<svg version="1.1" xmlns="http://www.w3.org/2000/svg" xmlns:xlink="http://www.w3.org/1999/xlink">
	<path transform="scale(0.200, -0.200) translate(0, -750)" d="M503 339q3 3 10.5 -3t15 -16.5t13.5 -22.5t6 -20q0 -10 -11 -34t-29.5 -54.5t-43 -64t-51 -61t-53 -45.5t-50.5 -18q-13 0 -29 11t-30.5 26t-24 31t-9.5 27v8q-21 -21 -42.5 -39.5t-42 -32.5t-39 -22.5t-33.5 -8.5q-24 0 -48.5 16.5t-45 40t-33.5 49.5t-13 46 q0 40 19.5 86t51.5 91t72 86.5t81 73t79 50.5t65 19q32 0 53 -22t31 -48t10 -48t-9 -22q-10 0 -14.5 8.5t-9 19t-12.5 19t-25 8.5q-24 0 -57 -18t-69.5 -48t-72 -68.5t-63.5 -79.5t-45.5 -81.5t-17.5 -73.5q0 -27 23 -27q21 0 47 15.5t52.5 40t53.5 54.5t50.5 58.5t41.5 53 t29 38.5q8 13 12 13t15 -10.5t22.5 -24t20.5 -26.5t9 -18q0 -3 -6.5 -17t-15 -33.5t-18.5 -41t-17 -40t-10 -30.5t3 -12q19 0 40.5 16.5t42.5 41.5t40.5 55t36 57t28 47t16.5 25zM226 507q4 2 7 4t5 4q3 2 5 3q0 -1 -1 -1t-2 -0.5t-2 -0.5q-2 -2 -5.5 -3.5t-8.5 -3.5 q-4 -2 -8.5 -4.5t-9.5 -6.5q-5 -3 -10.5 -6t-10.5 -7t-9.5 -7.5t-9.5 -7.5t-9 -7.5t-7 -6.5l-6.5 -6.5l-4.5 -4.5l-4 -4q1 2 4 4l12 9t17 13t20 15q5 4 10 7t10 7q5 3 9 6t9 5zM-25 271q5 10 11.5 19.5t13.5 19.5q8 10 15.5 20t15.5 20t16.5 19.5t17.5 19.5q17 19 36 36.5 t38 33.5q9 8 18 15.5t18 13.5q9 7 18 13t17 11q18 12 31 18q3 2 6.5 3t6.5 3q4 2 12 4q4 1 10 3q3 1 7 1q2 0 2.5 0.5t1.5 0.5h2h-6q-2 0 -3.5 -0.5t-3.5 -0.5q-2 -1 -5 -1t-5 -1l-6 -2t-7 -2q-3 -2 -6.5 -3t-6.5 -3q-8 -3 -16 -7t-16 -9q-17 -10 -35.5 -23t-38.5 -29 q-19 -16 -38 -33t-37 -37q-17 -19 -34 -40q-8 -10 -15.5 -20t-14.5 -20q-14 -20 -25 -40q-6 -10 -10 -20q-2 -5 -4.5 -9.5t-4.5 -9.5q-4 -9 -6.5 -17.5t-4.5 -16.5q-2 -4 -2.5 -7.5t-1.5 -6.5q-1 -4 -1 -7t-1 -6q-1 -5 -1 -9.5v-7.5v-7v2q0 3 1 5v7q1 2 1 4.5t1 5.5 q0 6 3 12q2 10 4 15q4 15 12 33l9 18q2 5 5 9.5t6 9.5zM99 108q-2 -1 -4 -3l-1 -1l1 1q2 2 4 3q3 2 6 4.5t8 5.5q4 3 8.5 7t9.5 9q5 4 10 9l10 10t9.5 10t8.5 10q5 5 8.5 9.5t7.5 8.5q3 4 5.5 8t4.5 6q2 3 4 5l-5 -5l-5 -5t-6 -7q-4 -4 -7.5 -8.5t-8.5 -9.5t-9.5 -10 t-9.5 -10l-19 -19l-9 -9t-8 -7q-5 -4 -8 -7zM179 86q5 4 9 7.5t7 6.5l6 6q-2 -2 -6 -5q-3 -2 -7.5 -5.5t-9.5 -7.5q-5 -5 -11 -9.5t-13 -9.5t-13.5 -10t-14.5 -10q-4 -2 -7.5 -5t-7.5 -5q-3 -2 -6.5 -4t-7.5 -4t-7.5 -3.5t-7.5 -3.5q-3 -2 -6.5 -2.5t-6.5 -1.5q-2 -1 -6 -1 q-2 -1 -6 -1h-9q-2 0 -3.5 0.5t-2.5 0.5h-2h2q2 -1 3 -1t3 -1q2 0 4.5 -0.5t4.5 0.5h6q4 0 7 1t6.5 1.5t6.5 2.5q4 1 7.5 2.5t7.5 3.5t7.5 4t7.5 4t7.5 5t7.5 5q8 5 14.5 10.5t13.5 10.5t12.5 9.5t10.5 9.5z" />
</svg>