<svg version="1.1" xmlns="http://www.w3.org/2000/svg" xmlns:xlink="http://www.w3.org/1999/xlink">
	<path transform="scale(0.200, -0.200) translate(0, -750)" d="M540 338q3 3 12 -0.5t18.5 -11t17 -17t7.5 -17.5q0 -9 -11.5 -34.5t-36.5 -57.5t-63.5 -67.5t-91.5 -64.5t-122.5 -48.5t-155.5 -19.5h-2h-1h-1q-23 0 -41.5 8t-28.5 17.5t-9 17.5t17 8q45 0 96 33.5t94 87.5t71.5 122.5t28.5 139.5q0 17 -4.5 33.5t-18.5 16.5 q-39 0 -78 -23t-74.5 -60t-65 -82t-48.5 -90q-11 -38 -18 -71t-7 -58q0 -29 2 -44.5t4 -24.5t4 -14t2 -13q0 -7 -14 -1t-31.5 24t-31.5 47t-14 69q0 28 12 72.5t31.5 99.5t44 116t50.5 121.5t50.5 117.5t44 102.5t31.5 76.5t12 40q0 14 12.5 9.5t27 -17t27 -29.5t12.5 -27 q0 -3 -12 -28.5t-31.5 -66.5t-44 -94t-50.5 -112q24 16 48.5 25t49.5 9q22 0 48.5 -12.5t48.5 -34t37 -49.5t15 -58q0 -36 -8.5 -73.5t-23.5 -73.5t-35.5 -70t-44.5 -64q33 3 63 19t55.5 38t46.5 47.5t36.5 48.5t26 40t15.5 22zM-11 245q2 6 3.5 11t2.5 9l2 8q-1 -1 -1 -2 q-1 -1 -1 -2.5t-1 -3.5q-2 -3 -3.5 -8t-3.5 -11t-5 -13t-5 -15l-2 -8l-2 -8q-2 -7 -4 -17q-5 -17 -6 -33q-2 -8 -2 -15.5v-14.5q0 -3 0.5 -6t0.5 -6q0 -2 0.5 -4.5t0.5 -4.5t0.5 -3t0.5 -2t1 -2q-1 1 -1 2v5q-1 4 -1 9.5v11.5q1 7 1.5 14t1.5 15l6 33q1 5 2 9l2 8l2 8l2 8 q2 8 4.5 15t4.5 13zM26 376q23 62 53 130q14 33 27.5 65.5t27.5 63.5t25.5 59.5t21.5 53.5q21 49 32 81q2 8 4 13l4 10q0 2 0.5 3.5t0.5 2.5t1 2q-1 -4 -3 -8t-4 -9.5t-5 -13.5q-11 -30 -34 -79q-11 -25 -23 -53t-26 -59l-28 -64t-28 -65q-14 -34 -27 -66.5t-26 -64.5 q-6 -16 -11.5 -31t-10.5 -29l-9.5 -28.5t-9.5 -26.5q-4 -13 -7.5 -24.5t-5.5 -22.5q-3 -11 -4.5 -20t-3.5 -17q-2 -10 -2 -14q-1 -3 -1 -5.5v-4.5v-9v9q1 2 1 4.5t1 5.5q0 3 0.5 6t1.5 7q3 18 10 37q2 5 3 10.5t3 11.5l9 24q8 26 19 54.5t24 60.5zM279 547l-2 1q-1 0 -5 2 q-2 1 -4.5 1t-5.5 1h-12q-4 -1 -14 -3q-4 -1 -7.5 -2t-8.5 -2q-4 -2 -7.5 -3.5t-7.5 -3.5q-5 -2 -8.5 -4t-7.5 -4q-14 -9 -29 -20q-3 -2 -6 -4.5t-6 -5.5q-4 -3 -10 -9q-12 -12 -15 -16q-2 -2 -2.5 -3t-1.5 -2l-1 -1l1 1q1 1 2 1.5t3 2.5q4 4 7 6t9 8q3 2 11 8q3 2 6.5 4.5 t6.5 5.5q3 2 6.5 4.5t7.5 4.5q3 2 6.5 4.5t7.5 4.5t7.5 4t8.5 4q4 2 7.5 3.5t7.5 3.5t7 3t7 2q6 2 14 4q3 0 6 0.5t5 0.5h9l6 -2h2zM247 144q3 4 7 10q2 2 3 4l-12 -12q-5 -5 -12 -12.5t-14 -14.5l-14 -14q-3 -3 -6.5 -6t-5.5 -6q-4 -3 -9 -8q-2 -2 -3 -2l-1 -1q1 1 4 3 q2 2 4.5 3.5t5.5 3.5t6.5 5t7.5 6l6.5 6.5t7.5 6.5q7 8 13.5 15t11.5 13zM278 203q2 4 4 7t4 7q9 13 15 27q7 13 12 27q3 6 5.5 12.5t4.5 11.5q2 6 3.5 11t3.5 10t3 9t2 7q1 5 3 11q1 2 1 4q0 -2 -1 -4t-2 -4.5t-2 -5.5q-1 -4 -2 -7.5t-3 -8.5t-4 -10.5t-4 -10.5t-4.5 -11.5 t-5.5 -12.5t-6 -12.5t-7 -13.5q-6 -14 -15 -27q-2 -4 -4 -7t-4 -7l-9 -13q-2 -4 -4.5 -7t-4.5 -6q-3 -4 -5.5 -7t-4.5 -6l-10 -12l-10 -12q-5 -5 -10 -10.5t-10 -10.5t-9.5 -9t-9.5 -9q-9 -8 -16.5 -14t-13.5 -11q-4 -3 -8 -7l-3 -3l12 9q3 2 6 4.5t7 6.5l8 6t9 8l10 8t10 9 t10 10.5t10 10.5q5 6 10.5 11.5t10.5 12.5q6 8 10 12q2 4 4.5 7t4.5 7z" />
</svg>