<svg version="1.1" xmlns="http://www.w3.org/2000/svg" xmlns:xlink="http://www.w3.org/1999/xlink">
	<path transform="scale(0.200, -0.200) translate(0, -750)" d="M428 338q3 4 10.5 -2.5t15 -17t13.5 -22.5t6 -20q0 -9 -16 -33t-43 -55t-63.5 -64t-78.5 -60.5t-86 -45.5t-87 -18q-28 0 -56 18t-50 43.5t-36 54t-14 49.5q0 37 14.5 80.5t38 87t54 84t62.5 72t63 50.5t56 19q22 0 42.5 -13t36 -33t24.5 -44.5t9 -47.5q0 -22 -9 -48.5 t-22 -49.5t-26 -38.5t-21 -15.5q-4 0 -12 4q4 4 7 6q3 4 6 7.5t6 6.5q2 4 4.5 7.5t4.5 6.5t3 5.5t3 4.5l2 4q-1 0 -1 -1q-1 -1 -1 -1.5t-1 -1.5q-1 -2 -3 -4t-4 -5q-2 -4 -10 -12q-3 -4 -6 -7t-6 -7l-3.5 -3.5l-3.5 -3.5q-12 8 -21 22t-9 22q0 7 10.5 23.5t22.5 37.5 t22.5 43t10.5 40q0 4 -1 11.5t-15 7.5q-21 0 -47.5 -17t-53 -45t-51.5 -64t-44.5 -75t-31.5 -78t-12 -72q0 -25 9.5 -42.5t41.5 -17.5q37 0 76 18.5t76 46.5t70 61.5t59 63t43.5 51.5t22.5 27zM300 326q-3 -5 -6 -10.5t-6 -9.5l-10 -15q-3 -4 -4 -5q1 2 4 5l5 5t6 8 q8 10 14 20q4 6 7.5 12t6.5 13t5 13q3 7 5 13q1 3 1.5 6.5t1.5 6.5t1.5 5.5t0.5 5.5q1 4 1 10v7v7v-7q-1 -2 -1 -7q-1 -2 -1 -4.5t-1 -5.5q0 -2 -1 -5l-2 -6l-3 -12q-2 -3 -2.5 -6t-2.5 -7l-6 -12q-6 -15 -13 -25zM20 342q-1 -3 2 2t7.5 12t9 14.5t6.5 9.5q3 5 6 9.5t5 8.5 q5 7 9 14q2 2 3 4.5t2 4.5t2 3q-1 -1 -2 -3t-2.5 -4t-3.5 -4q-5 -6 -10.5 -13.5t-11.5 -17.5q-4 -5 -7 -10t-7 -10zM16 263q3 8 6 15t5 13t4.5 11l4.5 9t3 8q0 -1 -1 -2t-1.5 -2.5t-1.5 -3.5q-2 -3 -4.5 -8l-5.5 -11t-6 -13t-7 -15q-6 -16 -11 -33q-2 -5 -3 -9t-2 -9 q-1 -4 -1.5 -8t-1.5 -9q-2 -10 -2 -16v-15q0 -11 2 -21q0 -2 0.5 -3.5t0.5 -2.5t1 -2q-1 1 -1 2v6q-1 5 -1 21q1 14 3.5 31t7.5 34q2 8 5.5 16.5t6.5 16.5zM326 206q2 2 3.5 4t2.5 4t2 3l-9 -9q-5 -5 -10.5 -11t-13.5 -13q-8 -8 -17 -16t-19 -16q-5 -5 -10.5 -8.5 t-11.5 -8.5q-5 -4 -10.5 -8t-11.5 -8q-10 -8 -23 -15q-6 -4 -12 -7.5t-12 -6.5q-11 -6 -23 -10q-2 -2 -5 -2.5t-5 -2.5q-3 -1 -5.5 -1.5t-5.5 -1.5q-11 -4 -18 -5q-5 -2 -8.5 -2t-6.5 -1t-5.5 -1h-4.5h-3h4h9h7t8 1q5 1 9.5 1.5t9.5 2.5q5 0 11 3q8 2 11 3q3 2 6 2.5t6 2.5 q4 1 12 5l12 6t12 7q13 7 24 15q24 16 44 35q10 9 18.5 17.5l16.5 16.5t13 14t9 11z" />
</svg>