<svg version="1.1" xmlns="http://www.w3.org/2000/svg" xmlns:xlink="http://www.w3.org/1999/xlink">
	<path transform="scale(0.200, -0.200) translate(0, -750)" d="M545 339q3 3 11 -3.5t15.5 -18t13.5 -25t6 -22.5q0 -6 -12.5 -28.5t-32 -52.5t-43.5 -63t-48.5 -61t-46 -46.5t-35.5 -18.5q-21 0 -42.5 13.5t-40 34.5t-31 45t-14.5 45q-22 -27 -45.5 -52t-47 -44t-45.5 -30.5t-41 -11.5q-24 0 -48.5 16.5t-45 39.5t-33.5 49t-13 46 q0 40 19.5 86t51.5 91.5t72 87t81 73t79 50.5t65 19q21 0 37 -10t28 -25q26 69 51.5 133.5t46 115.5t33.5 83t13 35q0 14 12.5 9.5t27 -17.5t27 -29.5t12.5 -26.5q0 -3 -14.5 -37t-37 -87t-51 -119.5t-56 -135.5t-51 -135t-38 -117t-16 -82.5t15.5 -31.5q12 0 31 18.5 t41.5 46t46 60t43 61t33 49t16.5 23.5zM487 799q2 8 4.5 14.5t4.5 11.5t3 10l-4 -10t-4.5 -11t-5.5 -14t-6.5 -17t-7.5 -19q-4 -11 -7.5 -21t-8.5 -21q-8 -21 -15.5 -41.5t-13.5 -36.5q-3 -8 -5.5 -14t-4.5 -11t-3 -10q1 4 4 9q2 5 5 11t6 14q7 16 15 36q4 10 7.5 20.5 t8.5 21.5l15 42q4 10 7 19t6 17zM366 520q-5 -15 -9.5 -27l-7.5 -20q-4 -10 -7 -17q3 7 7 17q3 8 8 20t11 26t12.5 31t14.5 35q7 18 14.5 36.5t15.5 38.5q15 39 30 75q7 18 13.5 35t11.5 31t10 26.5t8 20.5q4 10 6 17q-3 -7 -7 -17q-4 -8 -8.5 -20t-10.5 -26t-12.5 -31 t-14.5 -35q-14 -36 -30 -75q-8 -19 -15 -38t-14 -37q-8 -18 -14 -35t-12 -31zM234 513q-3 -2 -6.5 -4t-6.5 -4q-13 -8 -24.5 -16.5t-20.5 -16.5l-13 -13q-2 -2 -2 -2.5t-1 -1.5l-1 -1q1 1 5 4l15 10q5 4 10.5 7t10.5 8q6 4 12 7.5t13 7.5q8 6 13 8q3 2 6 3.5t6 3.5t6.5 3 t5.5 3l6 2t5 2q3 2 5.5 2t4.5 1q6 2 8 2t2.5 0.5t1.5 0.5h2h-2q-1 0 -2 0.5t-3 0.5q-4 0 -7 -1q-3 0 -5.5 -0.5t-5.5 -1.5t-6 -1t-6 -2t-6 -2.5t-7 -2.5q-8 -4 -13 -6zM100 435q-5 -5 -8 -8.5t-5 -5.5l-5 -5q1 2 5 5q2 2 6 5t9 7l10 8t10 9t11 10t13 10q6 5 12 9.5t12 9.5 q5 5 10.5 8.5t10.5 7.5q5 3 8.5 6t6.5 5q4 3 6 4l-6 -3q-3 -2 -7 -4.5t-9 -5.5q-5 -4 -11 -7.5t-11 -8.5q-6 -4 -12.5 -8.5t-12.5 -9.5l-12 -10t-11 -10q-6 -5 -10.5 -9.5t-9.5 -8.5zM-24 271q3 6 6 11t5 10q4 8 8 14l3 6q-1 0 -1 -1q-1 -1 -1 -2t-1 -2q-2 -2 -4.5 -5.5 t-5.5 -8.5l-6 -10l-6 -10l-6 -12t-6 -13q-3 -6 -5.5 -12.5t-4.5 -12.5q-2 -7 -3.5 -12.5t-3.5 -10.5t-2 -9.5t-1 -7.5q-1 -4 -1 -6q0 2 1 6q1 3 2 7t3 9q3 10 8 22.5t10 24.5q3 7 6 13zM-7 103q0 -27 23 -27q36 0 71 23.5t67.5 60.5t61 82.5t52.5 89t41.5 80t27.5 56.5 q-4 2 -8.5 3t-10.5 1q-24 0 -57 -18t-69.5 -48t-72 -68.5t-63.5 -79.5t-45.5 -81.5t-17.5 -73.5zM135 123q0 -1 -1 -1q-1 -1 -2 -1t-2 -1q-2 -2 -5 -4.5t-7 -5.5t-8.5 -6t-9.5 -6q-5 -4 -11 -7t-11 -7q-23 -12 -44 -17q-5 -1 -9 -1.5t-6 -0.5h-6h1q1 0 2 -0.5t3 -0.5h6t9 1 q3 1 5.5 1t5.5 1t5.5 1.5t5.5 1.5q3 2 6 2.5t6 2.5l12 6q24 14 39 28q4 3 7 5.5t5 4.5zM295 346q3 11 6.5 21.5t7.5 21.5q-4 -8 -8 -16.5t-9 -16.5q-10 -17 -19.5 -33.5t-18.5 -32.5t-17.5 -30t-16.5 -27t-14 -22.5t-11 -17.5l-9 -15q1 2 3 4t7 10q5 7 12 17t15 22 q5 6 9 12.5t9 13.5t9.5 14.5t9.5 15.5q8 14 17 29z" />
</svg>