<svg version="1.1" xmlns="http://www.w3.org/2000/svg" xmlns:xlink="http://www.w3.org/1999/xlink">
	<path transform="scale(0.200, -0.200) translate(0, -750)" d="M422 338q12 -6 21 -19t9 -30q0 -10 -12 -35.5t-33.5 -57.5t-51.5 -66.5t-66 -63.5t-76.5 -47.5t-83.5 -18.5q-29 0 -59 19t-54.5 48.5t-40 66.5t-15.5 73q0 34 11.5 73.5t31.5 78t46 74.5t55 63t58.5 43.5t57.5 16.5q36 0 57.5 -16.5t32.5 -37t12.5 -37t-2.5 -16.5t-6 1 q1 -4 1 -14q0 -31 -14.5 -65.5t-39 -63t-56.5 -47t-68 -18.5q-26 0 -44.5 9t-31.5 21q-22 -55 -22 -102q0 -17 2 -34.5t7 -31.5t14.5 -23.5t24.5 -9.5q44 0 83 17.5t71.5 44.5t58 59t44.5 61.5t30 51t15 28.5q9 15 28 7zM240 404q-1 -1 -1 -2q-1 -1 -1 -2.5t-1 -3.5l-4.5 -9 t-6.5 -12q-2 -4 -8 -12q-4 -6 -10 -14q-3 -3 -6 -6.5t-6 -6.5q-4 -3 -7 -6.5t-7 -5.5l-7 -6q-2 -2 -4 -2.5t-4 -2.5q-8 -5 -16 -8q-4 -2 -8 -3t-8 -3q-8 -3 -15 -3l-12 -3h-10q-3 -1 -7 -1h-2h9h10q3 0 6 0.5t7 0.5q3 1 7 1.5t8 1.5q4 2 8 3t8 3q5 2 8.5 4t8.5 4q2 2 4 2.5 t4 2.5l7 6q5 2 8 5.5t7 6.5q3 4 6 7t6 7q2 4 5 7t5 7l3.5 7t3.5 6q4 7 5.5 12t3.5 9zM95 301q41 0 69 18t46 44.5t28 56.5t16 54q-3 0 -6 0.5t-6 0.5q-19 0 -41.5 -14t-45 -38t-43.5 -55t-37 -64q7 -3 20 -3zM50 419q-2 -3 -3 -5l-2 -4t-2 -3q1 1 2 3t2.5 3.5t3.5 4.5 q5 5 11 12.5t14 15.5q4 5 8 9l9 9t10 9.5t10 9.5t11 9.5t12 9.5t12.5 8.5t12.5 7.5q14 8 28 12q12 5 28 7h13.5t13.5 -2q2 0 3 -0.5t3 -0.5q2 -1 3 -1t3 -1t3 -1t3 -1q2 -2 5 -2q9 -4 18 -11q4 -2 7 -5t6 -5q2 -2 3.5 -4t3.5 -3q2 -2 3 -2q-1 1 -2 3q-4 4 -7 8 q-2 2 -5.5 4.5t-6.5 6.5q-5 2 -9 5.5t-9 6.5q-2 0 -6 2q-1 1 -5 3q-1 0 -7 2q-2 1 -3 1t-3 1q-15 3 -29 2q-7 -1 -14.5 -2t-15.5 -4q-14 -4 -28 -12q-8 -4 -14 -8t-13 -9q-6 -5 -11.5 -10t-11.5 -10q-11 -10 -19.5 -20t-16.5 -19t-13 -17t-9 -13zM25 366q3 4 5.5 8t5.5 8 q2 4 5 7.5t5 7.5l9 12q5 6 9 10.5t6 8.5q2 2 2.5 3t1.5 2l2 2l-2 -2q-1 -1 -1.5 -2t-2.5 -3q-3 -3 -7 -7.5t-9 -9.5q-2 -3 -5 -6t-5 -7q-3 -3 -5.5 -6.5t-5.5 -7.5t-5.5 -8t-5.5 -8q-4 -8 -10 -17q-2 -5 -4 -9t-4 -9t-4 -9t-4 -9q-2 -4 -3 -8t-3 -8q-2 -10 -4 -16 q-2 -8 -3 -13.5t-1 -10.5q-1 -5 0 -9v3q0 3 1 6q1 2 1 5t1 5q1 4 3 14q2 3 2.5 6.5t2.5 8.5q2 4 3 8t3 8q2 5 4 9t4 9q2 4 4.5 8t4.5 9t4.5 9t4.5 8zM230 86q5 3 9 6t7 5q4 3 6 5q-2 -2 -6 -5q-3 -2 -7.5 -4.5t-9.5 -5.5q-5 -2 -11.5 -5.5t-13.5 -5.5q-4 -2 -7.5 -3t-7.5 -3 t-7.5 -3t-8.5 -2q-4 -2 -7.5 -2.5t-7.5 -2.5q-4 -1 -8 -1.5t-8 -1.5q-10 -2 -14 -3q-4 0 -7 -0.5t-6 -0.5q-4 -1 -11 -1q-4 -1 -9 -1q-2 0 -3.5 -0.5t-2.5 -0.5h-2h8h9q7 0 11 1q8 0 13 1q5 0 15 2q4 1 7.5 1.5t8.5 1.5q4 1 7.5 1.5t8.5 2.5q4 2 7.5 2.5t7.5 2.5l15 6 q7 4 13.5 7t11.5 7z" />
</svg>