<svg version="1.1" xmlns="http://www.w3.org/2000/svg" xmlns:xlink="http://www.w3.org/1999/xlink">
	<path transform="scale(0.200, -0.200) translate(0, -750)" d="M343 299q0 -8 -7 -25.5t-21 -39.5t-34 -46t-47 -45t-59.5 -37.5t-70.5 -22.5q0 -5 0.5 -10t0.5 -10q0 -105 -14 -186.5t-34 -137t-42.5 -84.5t-38.5 -29q-17 0 -38 11t-40 30t-32 44.5t-13 54.5q0 57 14.5 132.5t38 160t53.5 174.5t61.5 175.5t62 163.5t54 138.5t38 100 t14.5 48.5q0 15 12 11.5t27 -16.5t27 -30t12 -27q0 -6 -20.5 -56.5t-52 -129.5t-69.5 -178.5t-73 -203.5q14 2 26.5 -12t19.5 -56q48 13 79.5 39.5t52 54.5t30.5 51.5t14 30.5q3 4 14 0.5t23 -10t22 -15t10 -13.5zM193 680q-2 -5 -3 -9.5t-2 -7.5q-1 -4 -2 -7l3 6q2 3 4 7.5 t4 9.5q5 10 11 23t12 27t11 27t9 24q4 10 6 17q0 2 0.5 3t0.5 2t1 2l-3 -6q-2 -3 -4.5 -7t-4.5 -9q-5 -11 -11.5 -23.5t-11.5 -26.5q-13 -30 -20 -52zM71 326q-2 -5 -3 -9t-2 -6q-1 -3 -1 -5q1 2 2 5q1 2 2 6t3 9q8 18 21 53q14 33 30.5 74.5t34.5 86.5q8 22 16.5 44 t16.5 42q8 21 15.5 40t13.5 36q7 17 11.5 30t8.5 23q2 5 3.5 9t2.5 6q1 3 2 5q-1 -2 -3 -5q-3 -4 -6 -14q-5 -10 -10.5 -23t-12.5 -30t-15 -35.5t-16 -38.5q-8 -21 -17 -42.5t-18 -43.5q-17 -45 -33 -87q-8 -20 -15 -39t-13 -36t-10.5 -31t-7.5 -24zM28 155q-2 -4 -2 -5h3 q-1 2 -1 5zM-95 -58q1 5 1 8.5t1 6.5q0 4 1 6l-5 -20q-2 -5 -2.5 -10t-2.5 -10l-2 -12t-3 -12l-3 -24q-3 -11 -3 -20q-1 -5 -1.5 -8.5t-0.5 -6.5v-6q0 1 1 5q1 2 1 6t2 9q1 5 1.5 10t2.5 11q1 5 2 11l2 12q2 6 2.5 12t1.5 12q2 5 2.5 10t1.5 10zM-88 29q0 3 0.5 5.5t0.5 4.5 t1 4q0 -2 -1 -4t-3 -10q-2 -7 -4.5 -16.5t-5.5 -20.5q-3 -12 -6.5 -25.5t-6.5 -27.5q-4 -15 -7 -30.5t-6 -31.5l-2 -16t-3 -16q-1 -8 -1.5 -15.5t-1.5 -15.5t-1.5 -14.5t-0.5 -14.5v-13.5t1 -12.5q0 -3 0.5 -6t0.5 -5q1 -3 1.5 -5.5t1.5 -5.5q0 -4 2 -8q2 -6 3 -8q2 -4 3 -5 q1 -2 3 -4q0 -1 1 -2q0 -1 1 -1q-1 0 -1 1l-1 2q-1 1 -1 2t-1 2q-2 4 -2 6q-2 4 -3 7q0 3 -2 9q-1 5 -1 10.5t-1 11.5v11.5t1 13.5q0 14 3 29q0 5 2 15q0 5 2 15l2 16t3 16q3 16 6 31.5t6 29.5q2 15 5 28.5t5 25.5t4 21.5t4 16.5zM-55 -283q8 0 18 19t20 49.5t19 69.5 t16.5 78.5t11.5 76.5t4 65v1h-6q-7 0 -13 1t-11 3q-27 -94 -44.5 -177t-17.5 -144v-20.5t1 -12.5t2 -9z" />
</svg>