<svg version="1.1" xmlns="http://www.w3.org/2000/svg" xmlns:xlink="http://www.w3.org/1999/xlink">
	<path transform="scale(0.200, -0.200) translate(0, -750)" d="M507 322q10 19 23 17.5t24 -13t17.5 -26.5t2.5 -22q-21 -44 -58.5 -87.5t-83.5 -86t-97.5 -84.5t-102.5 -81q-29 -62 -59.5 -121t-61 -104.5t-60 -73t-55.5 -27.5q-13 0 -31 10.5t-34 26.5t-27.5 36t-11.5 39q0 23 19 47.5t52 51t76.5 56.5t93.5 65q20 48 39 97.5 t36 97.5q-24 -27 -49 -52.5t-49 -45t-46.5 -31t-40.5 -11.5q-16 0 -34.5 10t-34.5 26.5t-26.5 38t-10.5 45.5q0 41 18 89.5t47.5 97t67.5 94t78 80.5t79 56t71 21q37 0 63.5 -21t41.5 -46.5t20 -46.5t-1 -21t-10.5 9t-13 20t-22.5 20t-39 9q-37 0 -75.5 -20t-75 -53 t-69 -75.5t-56.5 -87t-38 -88t-14 -77.5q17 0 42.5 17t55 43t60 58t58 62t49.5 54.5t34 36.5q11 25 14 25q8 0 19.5 -9t22.5 -22t18.5 -26t7.5 -21q0 -3 -6.5 -23t-17.5 -52t-27 -73.5t-35 -87.5q63 54 120.5 118t102.5 142zM-43 225q-1 -2 -1 -4v-1v1q0 2 1 4q2 6 6 14 q10 20 27 47q17 28 42 62.5t55 67.5q8 8 15 16t15 16t15.5 15t15.5 14q5 4 8.5 7t7.5 6l8 6l8 6q8 5 15 9.5t15 9.5q10 4 14 6q10 4 14 6q6 2 11.5 3.5t10.5 2.5t9 1t6 1h5h-5h-6t-9 -2q-8 0 -23 -5q-6 -2 -13 -5q-4 -2 -7.5 -3.5t-7.5 -3.5q-13 -6 -31 -18q-9 -5 -16 -11 q-4 -3 -8 -6.5t-8 -6.5l-16 -14t-16 -15t-15 -16t-15 -16t-14.5 -17t-14.5 -17q-7 -9 -13 -17.5t-12 -17.5q-13 -17 -23.5 -33t-18.5 -30q-9 -14 -15 -26.5t-10 -21.5q-5 -10 -6 -14zM-21 240q2 5 4.5 9.5t5.5 9.5q5 10 11 19q5 10 11 19l12 18q6 8 11 16t10 15t9 12.5 t7 9.5l6 9l-2 -2q-1 -1 -2 -2.5t-3 -3.5q-3 -4 -7 -9t-9 -12t-11 -15l-12 -16l-12 -18t-12 -19q-5 -10 -11 -19q-2 -5 -4.5 -9.5t-4.5 -9.5q-5 -10 -8.5 -19t-6.5 -17t-4.5 -14.5t-3.5 -11.5q-2 -6 -2 -7v-2l3 9q2 5 4 11t5 14t7 17t9 18zM-10 167q-1 -3 -1 -6v-2q0 1 1 2 q0 1 2 5q1 4 3 8.5t4 9.5q2 6 5 12t6 14q3 7 6.5 13.5t6.5 14.5q4 7 7.5 14t7.5 14q3 7 6.5 13t6.5 11t5 9.5t4 7.5q1 2 3 4q1 1 1 2l-5 -5q-2 -3 -5 -7t-7 -9q-16 -20 -31 -51q-2 -4 -3 -7t-3 -7t-3 -7.5t-3 -7.5t-3 -7t-2 -7q-2 -4 -4 -12q-2 -6 -3 -11t-2 -8zM-29 -317 q21 0 48 36.5t56 95.5q-47 -40 -75.5 -73t-28.5 -59zM193 147q6 6 12.5 13t13.5 15l3 3l6 18q-4 -5 -7 -8.5t-7 -8.5q-14 -17 -24 -30q-5 -6 -9.5 -11.5t-7.5 -9.5q-2 -2 -3 -3.5t-2 -2.5l-2 -2l2 2q3 3 6 5q3 4 8 8.5t11 11.5zM204 -99q5 11 11 22l-12 -9q-2 -3 -3 -5.5 t-3 -5.5q-7 -15 -13.5 -28.5t-11.5 -25.5q-6 -12 -10.5 -21.5t-8.5 -16.5l-3 -6l-2 -4l-2 -4v1l2 2q1 2 2.5 4.5t3.5 5.5q5 7 10 16.5t12 20.5q6 12 13 25.5t15 28.5zM241 206q3 9 5 17t4 13q2 6 3 12q-7 -19 -14 -41q-6 -19 -14 -43t-16 -49q-5 -13 -8.5 -25.5t-8.5 -23.5 l-7.5 -22.5t-7.5 -20.5q-4 -9 -6.5 -16.5t-4.5 -12.5q-2 -3 -2.5 -5t-1.5 -4t-1 -3q0 1 1 3l4 8q2 5 5.5 12.5t7.5 17.5q4 9 8 19.5t8 22.5q10 24 17 49q5 12 8.5 24.5t7.5 24.5l7.5 22.5t5.5 20.5zM262 41q2 2 5 4.5t5 4.5q4 8 7 15.5t6 14.5q5 13 8.5 22.5t6.5 17.5l5 15 q-3 -7 -7 -15q-3 -7 -7.5 -16.5t-9.5 -21.5q-5 -9 -9.5 -19.5t-9.5 -21.5z" />
</svg>