<svg version="1.1" xmlns="http://www.w3.org/2000/svg" xmlns:xlink="http://www.w3.org/1999/xlink">
	<path transform="scale(0.200, -0.200) translate(0, -750)" d="M526 351q3 4 14.5 0t23.5 -14t18.5 -24t-0.5 -30q-10 -20 -28.5 -48.5t-42 -60t-50 -63t-53.5 -56t-52.5 -40t-45.5 -15.5q-13 0 -27 6t-26 18t-20 30t-8 42q0 16 9 43t23 59.5t29.5 67t29.5 66t23 56.5t9 39q-97 -103 -172 -196t-125 -154q0 -2 -5 -5q-27 -34 -45.5 -53 t-26.5 -19q-11 0 -21 5t-17.5 13t-13 16.5t-6.5 16.5v5q0 26 13 75.5t34.5 112t48.5 134.5t55.5 143t56 136.5t49 116.5t34.5 82.5t13 33.5q0 14 12 9.5t27 -17.5t27 -29.5t12 -26.5q0 -3 -12.5 -31.5t-32 -74t-45 -104t-51.5 -121t-51 -125t-43 -116.5q24 28 53 61.5 t59.5 67.5t61 65.5t57 56t48 39t33.5 14.5q9 0 20.5 -6.5t22.5 -19.5t18.5 -32.5t7.5 -46.5q0 -13 -10 -41t-25 -64t-32.5 -76t-32.5 -75.5t-25 -62.5t-10 -38q14 0 41.5 25t59 63.5t62 83t50.5 83.5zM-24 237l3.5 14t3.5 11l3 9l-3 -9q-2 -5 -4.5 -10.5t-4.5 -13.5 t-5.5 -16.5t-6.5 -17.5q-3 -10 -6 -19.5t-7 -20.5q-3 -10 -5.5 -20t-5.5 -20q-2 -10 -4 -19t-3 -17q-2 -10 -2 -14q-1 -4 -1 -11q0 -2 0.5 -4t0.5 -3v-3v3v7q0 2 0.5 5t0.5 6q1 4 3 14q2 8 4 16.5t4 18.5q3 10 6 19.5t6 20.5l6 20l6 20q3 9 6 17.5t5 16.5zM215 700 q-3 -7 -4.5 -11.5t-3.5 -8.5t-3 -8q2 3 4 7q4 10 9 20q3 6 6 12.5t7 14.5t7.5 16t7.5 16t7 16t7 16q3 8 6 15t6 13q2 6 3.5 11t3.5 9t3 8l-40 -86q-5 -15 -14 -32q-3 -8 -6 -15t-6 -13zM136 486q-2 -4 -3 -6.5t-2 -4.5q-1 -3 -1 -4q3 7 7 15q3 7 8 16.5t11 22.5 q5 12 11.5 25.5t13.5 29.5q7 15 14 31l14 32q8 17 14.5 33t13.5 31q7 16 12.5 30t10.5 26t8.5 22t6.5 18q4 9 6 16q-1 -1 -2 -4t-5 -11q-3 -7 -8 -17t-10 -22t-11.5 -26t-13.5 -29t-14 -31t-15 -33q-7 -16 -13.5 -32t-13.5 -32q-7 -15 -12.5 -29t-10.5 -27q-5 -12 -9 -22 t-7 -18zM51 234q3 11 6.5 21.5t6.5 20.5t5.5 18.5t4.5 14.5q1 3 1 5t1 4q0 2 1 4q-2 -5 -5 -12q-2 -6 -5 -14.5t-7 -18.5t-8 -21.5t-9 -24.5q-1 -3 -2 -5.5t-2 -5.5q3 3 6 6.5t6 7.5zM335 521q8 7 17 12.5t18 8.5q5 1 9.5 1.5t9.5 -1.5q7 -3 14 -8q6 -5 10 -10.5t7 -9.5 q1 -3 4 -6q1 -1 1 -2l-1 2q-3 2 -4 7q-1 2 -2.5 4.5t-3.5 4.5q-3 7 -9 11q-8 8 -16 10q-10 3 -19 0q-11 -3 -20 -8.5t-17 -12.5t-15.5 -14t-15.5 -15q-7 -7 -13.5 -14t-11.5 -12q-6 -6 -10.5 -11t-7.5 -9l-7 -7l7 7q4 3 8.5 7.5l10.5 10.5t12.5 12t13.5 14q8 7 15.5 14 t15.5 14zM308 254l-3 -6q-2 -3 -4.5 -8t-4.5 -10t-5 -11t-6 -14q-4 -7 -7 -14t-6 -15t-6 -15t-5 -14q-2 -8 -3.5 -14.5t-3.5 -12.5t-2 -11t-1 -8v-8v2q0 3 1 6t1.5 8t2.5 11q2 5 4 11.5t4 14.5l6 14t6 15t6 15l6 14q2 7 5 13.5t5 11.5zM310 280q4 11 8 21t9 20q4 10 7 19 t6 17t5 14.5t4 11.5q1 2 1 3.5t1 3.5q0 2 1 3q-1 0 -1 -2q-1 -2 -1 -4t-1 -4q-2 -5 -4.5 -11t-6.5 -14q-6 -16 -14.5 -36t-17.5 -40q-5 -11 -9 -21l-8 -20q-5 -10 -8.5 -19t-6.5 -17t-5.5 -14t-4.5 -11q-3 -5 -4 -10q2 4 5 9q2 5 4.5 11t6.5 14t7.5 17t8.5 18q5 10 9 20 t9 21z" />
</svg>