<svg version="1.1" xmlns="http://www.w3.org/2000/svg" xmlns:xlink="http://www.w3.org/1999/xlink">
	<path transform="scale(0.200, -0.200) translate(0, -750)" d="M169 571q-5 0 -12.5 7t-15 16.5t-12.5 19.5t-6 15q0 6 7 27.5t17.5 45t22 42.5t18.5 19q8 0 19.5 -11t21.5 -24.5t17.5 -26t7.5 -16.5t-11 -22t-26 -38.5t-29 -37t-19 -16.5zM240 343q3 5 12 2.5t18.5 -11t17.5 -22.5t8 -30q0 -11 -10.5 -36t-29 -56.5t-43.5 -65 t-54.5 -61t-61.5 -45.5t-64 -18q-10 0 -28.5 8t-37 22t-32.5 31.5t-14 37.5q0 22 11 62t28.5 87t37.5 96t37.5 89t30.5 66.5t15 29.5q6 7 17.5 0t22.5 -20.5t19 -29t8 -26.5q0 -4 -11.5 -32.5t-28.5 -68t-36 -84.5t-34 -83t-22.5 -63t-0.5 -25q39 0 73 26.5t62.5 64.5 t51.5 80.5t38 74.5zM-60 143q2 7 6 17q3 8 7 19t9 25q2 7 5 14.5t5 15.5l6 16t7 16q6 17 13 35t15 36l14 36t14 35q4 8 5.5 12t2.5 7t2 6.5t4 10.5q6 14 10 25t7 19q2 4 3 7t2 5q1 3 2 5h-1l-8 -16q-4 -8 -8.5 -19t-10.5 -24q-12 -27 -21.5 -48.5t-23.5 -57.5 q-15 -36 -27.5 -71t-21.5 -64q-4 -14 -7.5 -25.5t-5.5 -19.5q-2 -5 -2 -8t-1 -5q-1 -3 -1 -4zM-13 238q2 7 3.5 12t3.5 10q2 4 3 9q-1 -4 -3 -8t-4.5 -9.5t-4.5 -12.5q-6 -14 -12 -30l-12 -36l-6 -18t-5 -18l-4 -16t-3 -16q-2 -7 -2 -12.5v-10.5q0 -4 2 -6q0 -1 1 -2 q-1 1 -1 2q-1 1 -1 6q0 9 3 23q2 7 4 15l4 16l12 36q2 9 5 18t6 17q3 9 6 16.5t5 14.5zM163 140q3 3 6.5 7t7.5 9t7 10t7 10t7 10l6 10l6 10t5 9t3.5 8t3.5 6q1 3 2 5q-1 -2 -3 -5q-2 -2 -4 -5.5t-4 -7.5q-6 -8 -12 -18l-6 -10t-7 -10t-7 -10t-7 -10q-3 -5 -6.5 -9t-6.5 -8 l-9 -12q-2 -3 -4 -4l4 4q5 3 11 11zM243 248q2 5 3.5 9t3.5 7l3 6l-3 -6q-2 -3 -4.5 -6.5t-4.5 -8.5t-5.5 -10.5t-6.5 -11.5t-6.5 -12t-7.5 -13l-15 -24q-3 -6 -6.5 -11t-6.5 -10t-5.5 -8.5t-4.5 -5.5q-1 -2 -3 -4l-1 -1l1 1q1 1 1.5 1t2.5 2q2 3 5 6t6 8t6.5 10t7.5 10 l15 24q4 7 7.5 13t6.5 12l6 12t5 11z" />
</svg>