<svg version="1.1" xmlns="http://www.w3.org/2000/svg" xmlns:xlink="http://www.w3.org/1999/xlink">
	<path transform="scale(0.200, -0.200) translate(0, -750)" d="M215 788q8 0 20 -10.5t22.5 -24t18 -26t7.5 -16.5t-13 -22.5t-29.5 -39t-32 -37t-20.5 -16.5t-13.5 7t-16.5 17t-13.5 19.5t-5.5 15.5q0 5 9 26.5t21.5 45t25.5 42.5t20 19zM78 551q10 10 22.5 4t23.5 -19.5t19 -30t8 -26.5q0 -4 -13.5 -43t-36.5 -101t-54 -140 t-66 -158.5t-73 -157.5t-74.5 -137.5t-70 -97t-60.5 -36.5q-42 0 -72 12.5t-49.5 34t-28.5 49.5t-9 60q0 17 3 34.5t15 29.5q6 6 16 4t20 -8t17.5 -14.5t7.5 -14.5q0 -12 -1 -33t0 -42t6.5 -36t18.5 -15q25 0 56.5 37.5t65.5 98.5t69.5 139t68.5 160t63 161t53 141.5 t37.5 102t17.5 42.5zM-309 -328q4 4 8 7.5t8 8.5q5 5 8.5 10t8.5 11l15 21l6 10t6 9l10 20q-1 -2 -3 -5q-2 -2 -4.5 -5.5t-4.5 -7.5q-3 -5 -6 -9.5t-7 -9.5l-15 -21q-8 -11 -16 -20.5t-15 -16.5q-9 -9 -12 -11q-2 -2 -2.5 -2t-1.5 -1l-1 -1l2 1l4 2q6 4 12 10zM-113 -11 q6 15 12.5 30t12.5 30q6 16 12 30.5t11 29.5q12 29 22 55.5t18 49.5q9 23 15.5 42t11.5 33q4 12 8 22q2 4 2 7q-5 -12 -11 -28q-5 -14 -13 -32.5t-17 -41.5t-19.5 -49.5t-22.5 -55.5q-6 -14 -12 -29l-12 -30t-12.5 -30t-13.5 -30q-6 -15 -12.5 -30.5t-13.5 -29.5 q-12 -30 -26 -58q-7 -14 -13.5 -27.5t-12.5 -26.5q-7 -13 -12.5 -24.5t-12.5 -22.5q-3 -5 -5.5 -10.5t-5.5 -10.5t-6 -9t-5 -9q-5 -9 -10 -16t-9 -13t-8 -10t-6 -7q-2 -2 -2.5 -3t-1.5 -2t-1 -2l6 6q2 4 6 7q2 2 4 4.5t4 5.5q5 6 10 13t10 16l6 8t6 9l12 21q7 11 13 22.5 t13 24.5q7 12 13.5 25.5t13.5 27.5t13.5 28.5t13.5 29.5q7 14 13.5 29.5t13.5 30.5zM55 401q2 4 2.5 7t1.5 5q1 3 2 4q-11 -28 -22 -59q-10 -26 -22 -59.5t-25 -68.5t-25 -69t-22 -61q-5 -14 -9 -24t-6 -18q-4 -9 -5 -16q2 7 6 16q3 8 7 18t9 24q5 13 11 28t12 31 q6 17 12.5 34.5t13.5 34.5q6 18 12.5 35t12.5 34q5 17 10 32t10 29t8.5 24.5t5.5 18.5z" />
</svg>