<svg version="1.1" xmlns="http://www.w3.org/2000/svg" xmlns:xlink="http://www.w3.org/1999/xlink">
	<path transform="scale(0.200, -0.200) translate(0, -750)" d="M511 338q4 7 15.5 1t23 -16.5t19 -22t4.5 -17.5q-10 -18 -27.5 -46t-41.5 -59.5t-53.5 -63t-63 -57t-70.5 -41.5t-75 -16q-20 0 -44 13.5t-45.5 40.5t-38 67t-22.5 92q-9 -1 -18.5 -1.5t-19.5 -0.5q-9 0 -16 3q-29 -69 -47 -119t-18 -64q0 -17 -7.5 -24t-16.5 -7 q-8 0 -19.5 5t-22 14t-18.5 20.5t-8 23.5q0 4 15 39t39 90t55.5 125t63.5 143.5t63.5 145.5t55.5 131t39 100.5t15 53.5t11 7.5t24 -16t24 -25.5t11 -22q0 -11 -16.5 -53.5t-42.5 -104.5t-59 -137t-66 -151q28 34 61.5 68.5t67 63t66.5 46.5t61 18q13 0 28 -9.5t28 -25.5 t21 -35.5t8 -38.5q0 -29 -24 -66.5t-65 -74.5t-96.5 -67.5t-119.5 -45.5q-2 -21 -2.5 -48t7 -51t24.5 -40.5t50 -16.5q28 0 57 15t57.5 39t54.5 54t48 60.5t39 57.5t27 46zM-30 244q-1 -3 -3 -7q-2 -3 -4.5 -8t-4.5 -10t-5 -11.5t-6 -13.5q-3 -8 -6.5 -15t-6.5 -15l-12 -30 q-3 -7 -5.5 -13.5t-4.5 -12.5l-3.5 -10.5t-3.5 -8.5t-3 -7q1 3 3 7l9 18q2 6 5 12t6 14q3 7 6 14.5t7 15.5q3 8 6 15l6 14q3 8 5.5 14.5t4.5 12.5zM155 578q-1 -4 -3 -8l-1 -2l1 2l4 8q3 5 6 12t8 15q4 8 8.5 18t9.5 21t9.5 22t9.5 23q5 11 9.5 22.5t9.5 22.5t8.5 21t7.5 19 q4 8 6.5 15.5t4.5 12.5q1 2 1 4t1 4q0 2 1 3q0 -1 -1 -3q-2 -4 -4 -7q-2 -5 -5.5 -12t-7.5 -16q-4 -8 -8.5 -17.5t-9.5 -20.5t-10 -22.5t-10 -22.5q-5 -12 -9.5 -23.5t-9.5 -22.5t-8.5 -21t-6.5 -18q-4 -9 -6.5 -16.5t-4.5 -12.5zM102 391q0 2 2 5q1 2 3 5t4 8q4 8 9.5 20.5 t12.5 26.5q7 15 15 32t16 36t16.5 38.5t17.5 39.5q8 20 16.5 40t16.5 39q15 37 27 69q6 15 10.5 27.5t7.5 21.5q2 5 2.5 8.5t1.5 5.5q1 3 2 5q-1 -2 -2 -5t-5 -13q-4 -9 -9 -21.5t-12 -27.5q-13 -30 -29.5 -68t-33.5 -78q-8 -20 -16.5 -39.5t-16.5 -38.5t-15.5 -36.5 t-13.5 -32.5l-11 -27.5t-9 -20.5q-2 -5 -3 -8.5t-2 -5.5q-1 -3 -2 -5zM369 451q4 6 5 8t2 2l-2 -2q-1 -2 -2 -3.5t-3 -3.5t-4 -5t-5 -6q-2 -3 -5 -6.5t-6 -7.5q-3 -3 -6.5 -7t-7.5 -8l-8 -8t-9 -8q-4 -5 -8.5 -8.5t-9.5 -8.5l-10 -8l-10 -8l-21 -15q-5 -3 -10.5 -6.5 t-10.5 -6.5q-11 -6 -21 -11l-18 -9q-9 -5 -16.5 -8l-12.5 -5q-3 -2 -4.5 -2t-3.5 -1t-3 -1q1 0 3 1q2 0 3.5 0.5l4.5 1.5q3 2 6 2.5t7 2.5t8 3.5t9 3.5t9.5 4t9.5 4q5 3 10 5.5t10 5.5q6 3 11.5 6.5t10.5 6.5l21 15l10 8l10 8q5 5 9.5 8.5t9.5 8.5l8.5 8.5t7.5 8.5q4 4 7 8 t7 8q3 4 5.5 7.5t4.5 6.5q3 3 4.5 6t3.5 5zM364 563q-3 -1 -6.5 -1.5t-6.5 -1.5q-8 -2 -14 -5.5t-11 -5.5q-5 -4 -10 -6q1 0 3 1t4 1t4 2q5 2 11.5 4.5t13.5 4.5q16 5 25 4q2 0 4 -0.5t4 -0.5q1 -1 2 -1l1 -1l-1 1q-1 0 -2 1q-2 1 -3.5 2t-4.5 2h-6h-7zM153 410 q-2 -2 -3 -3.5t-2 -3.5t-2 -3q4 4 8 9t9.5 10t12.5 13q3 4 6.5 7.5l7.5 7.5q5 4 8.5 8t8.5 9q9 8 18 17t20 17q5 5 9.5 9t9.5 8l10 8t10 7q11 8 20 13q5 3 9 5.5t9 4.5q2 2 4 2.5t4 1.5q6 2 8 3q4 2 7 2.5t6 1.5t5 1t4 1h3h-3h-9q-3 -1 -6.5 -1t-7.5 -2q-2 -1 -4 -1t-4 -1 q-6 -2 -9 -4q-5 -2 -9.5 -4.5t-9.5 -4.5l-21 -12q-5 -4 -10 -7.5t-10 -7.5q-5 -5 -10.5 -8.5t-10.5 -8.5t-9.5 -9t-9.5 -8q-5 -5 -9 -9.5t-9 -8.5q-8 -9 -15.5 -17.5t-13.5 -16.5q-7 -8 -11.5 -14t-8.5 -11zM385 514q-28 0 -63 -23t-69.5 -56t-65.5 -69t-52 -62q33 12 71 31 t73 45.5t63.5 59.5t42.5 74z" />
</svg>