<svg version="1.1" xmlns="http://www.w3.org/2000/svg" xmlns:xlink="http://www.w3.org/1999/xlink">
	<path transform="scale(0.200, -0.200) translate(0, -750)" d="M268 340q3 5 14 -1t22.5 -17.5t19 -24t3.5 -20.5q-17 -34 -39.5 -81.5t-52.5 -91t-68 -74t-86 -30.5q-18 0 -42 10t-45 28t-36 42t-15 53t12.5 76.5t33 105.5t46.5 122t53.5 127t53.5 120.5t46.5 102t33 72t12.5 29.5q0 12 10 12q3 0 13.5 -6.5t22 -17t21 -24t9.5 -26.5 q0 -7 -12.5 -35t-32.5 -71.5t-46 -98.5t-52.5 -114.5t-52.5 -120.5t-46 -116.5t-32.5 -101.5t-12.5 -76q0 -20 23 -20t45.5 13.5t43.5 36t40 51t36 58.5t31.5 58.5t25.5 50.5zM218 762q4 9 7 16.5l5 12.5q3 6 5 12q-2 -5 -5 -11q-2 -5 -6 -12.5t-8 -16.5q-5 -10 -10 -20.5 t-10 -21.5t-11 -23t-11 -25q-12 -24 -21 -48q-5 -11 -9.5 -22t-8.5 -20q-4 -10 -6.5 -17.5l-4.5 -13.5l-4 -8q-1 -2 -1 -3q2 5 5 11q2 5 5.5 12.5t7.5 17.5q5 9 9.5 20t9.5 22q10 22 21 48q6 12 11.5 24t10.5 24q5 11 9.5 21.5t9.5 20.5zM-3 269q-2 -7 -4 -11.5t-3 -8.5 q-2 -4 -2 -7q5 12 10 27q5 13 11.5 30t14.5 39q5 11 9 22.5t9 23.5t10 24.5t10 26.5q11 27 22.5 55t23.5 56q12 29 24 56.5t24 53.5t23 50t20 45q10 21 17.5 38t12.5 29q6 14 11 26q-5 -11 -12 -25l-14.5 -29l-18.5 -37q-10 -21 -21.5 -44.5t-23.5 -49.5t-24.5 -53.5 t-24.5 -56.5t-23 -57t-22 -54q-5 -14 -9.5 -26.5t-9.5 -25.5t-9 -24.5t-8 -22.5q-8 -22 -13.5 -39.5t-9.5 -30.5zM17 131q1 4 1.5 8t2.5 9q2 11 6 23q2 6 4 12.5t4 14.5q2 7 4.5 14t5.5 15q5 15 11 31l12 32q12 33 24 63q6 15 11.5 28.5t10.5 25.5t9 21.5t7 16.5q4 8 6 15 l-2 -4q-1 -2 -1.5 -4.5t-2.5 -5.5q-6 -12 -18 -38q-5 -12 -11 -25.5t-12 -28.5t-12.5 -30.5t-12.5 -31.5q-6 -17 -12 -32.5t-11 -31.5q-2 -8 -4.5 -15t-4.5 -14q-2 -8 -3.5 -14.5t-3.5 -12.5q-2 -7 -3 -12.5t-3 -10.5q-1 -5 -1.5 -9.5t-0.5 -8.5q-1 -5 -1 -12v-4v4q0 7 1 12 z" />
</svg>