<svg version="1.1" xmlns="http://www.w3.org/2000/svg" xmlns:xlink="http://www.w3.org/1999/xlink">
	<path transform="scale(0.200, -0.200) translate(0, -750)" d="M657 341q4 7 15 1t22 -17.5t18.5 -24.5t4.5 -20q-19 -38 -50 -86.5t-68.5 -91.5t-79 -72t-81.5 -29q-14 0 -30.5 10t-30.5 25t-24 31t-10 28q0 24 13.5 59t34 75.5t43.5 85t42 86.5q-79 -79 -134 -151t-90.5 -127.5t-53.5 -88.5t-23 -33q-6 0 -18 6.5t-25 17t-22.5 23.5 t-9.5 26q0 8 14.5 38.5t36.5 73.5t47.5 94t48.5 100q-89 -92 -144.5 -162.5t-88.5 -118.5t-48.5 -73t-23.5 -25q-9 0 -21 9t-22.5 20.5t-18 22.5t-7.5 16q0 2 9.5 24.5t24.5 57.5t34.5 79.5t39.5 90.5t39.5 90.5t34.5 80.5t24.5 59.5t9.5 27.5q0 12 11 10t23.5 -11 t23.5 -21.5t11 -21.5q0 -5 -8.5 -27.5t-23 -56.5t-32 -75t-35.5 -82q37 43 76 87t73 80.5t59.5 62.5t35.5 33q2 2 4 2q8 0 18.5 -8t20 -20.5t16 -27t6.5 -26.5q0 -6 -4.5 -20.5t-12.5 -34.5t-18.5 -44.5t-21.5 -50.5q31 36 64 74t61.5 70.5t50 54.5t29.5 27q1 0 1 0.5t2 0.5 l2 -1q2 0 4 -1q6 -3 15.5 -10.5t18.5 -19t15.5 -27.5t6.5 -35q0 -15 -11 -43.5t-27.5 -63.5t-35.5 -73.5t-35.5 -73.5t-27.5 -63.5t-11 -43.5q24 0 53 20t58.5 54t58.5 77.5t54 90.5zM340 428q-2 -4 -2.5 -7t-1.5 -5q-1 -3 -1 -5q1 1 2 4q1 2 2 5t3 7q3 8 7 17t6 19 q3 10 3 21q-1 3 -1 5.5t-1 4.5q-2 6 -3 8q-3 8 -6 11q-1 1 -1 3q0 1 -1 1v-1q0 -2 1 -3q2 -2 2.5 -5t2.5 -7t2 -8q1 -3 1 -9q0 -5 -0.5 -10t-1.5 -10q-2 -5 -3 -9.5t-3 -9.5t-3 -9t-3 -8zM-19 293q-5 -11 -8.5 -20t-5.5 -15q-3 -7 -5 -13q2 6 6 13q3 6 6.5 14.5t8.5 19.5 t10.5 23t11.5 26q6 13 12 27l12 28l12 28t11 28q6 14 10.5 26t9.5 23l12 36q1 3 2 5l2 4t1 4q-2 -6 -5 -13q-2 -6 -5.5 -15t-8.5 -20t-10 -23t-11 -25q-5 -14 -11 -28l-12 -28q-13 -29 -24.5 -56t-20.5 -49zM-50 199q2 4 4.5 8.5t4.5 9.5t4.5 11t5.5 11l9 21l4 10t4 9t3 8 t2 6q1 3 2 5q-1 -2 -3 -5t-6 -13q-5 -8 -9 -18q-2 -5 -5 -10.5t-5 -11.5l-9 -21l-4 -10t-4 -9q-2 -5 -3 -8.5t-2 -5.5q-1 -3 -2 -5q1 2 3 5q2 2 3 5t3 8zM-18 243q3 7 6.5 14.5t7.5 15.5t8 16.5t8 17.5t7.5 17.5t6.5 16.5q4 8 6.5 16t5.5 15q2 7 4 12.5t3 9.5q1 2 1 3.5 t1 2.5q0 1 1 2q0 -1 -1 -2t-1.5 -2.5t-1.5 -3.5l-4.5 -9l-5.5 -11q-3 -7 -6.5 -14.5t-7.5 -15.5t-7.5 -16.5t-7.5 -17.5t-7.5 -18t-7.5 -17t-6.5 -15.5t-5.5 -14.5t-4.5 -12t-3.5 -10t-3 -6t-1 -2q2 4 5 8q2 4 4.5 8.5t6.5 11.5zM187 419q8 8 13.5 15.5t10.5 12.5q5 6 9 11 l-10 -10q-5 -5 -11 -12t-14 -15q-8 -9 -16.5 -18.5t-18.5 -20.5l-20 -22l-20 -22q-21 -24 -39 -45q-10 -11 -18 -21.5t-16 -18.5q-8 -9 -13.5 -16.5t-10.5 -12.5l-3 -4.5t-3 -3.5l-3 -3q4 5 9 11q5 5 11 12t14 15q16 17 35.5 39t39.5 45t39.5 45t34.5 39zM211 283q6 13 9 21 l4 8q-1 -4 -4 -8q-2 -4 -5 -9t-6 -11q-7 -11 -15 -29q-5 -8 -8.5 -16.5t-8.5 -16.5q-5 -9 -9 -17.5t-8 -16.5t-7.5 -15.5t-6.5 -14.5l-9 -21q-2 -4 -3 -8l4 8q3 7 10 20t15.5 29.5t16.5 33.5q5 8 8.5 17t8.5 17l7.5 15t6.5 14zM366 152q2 3 2.5 6t1.5 5q1 3 2 4q-1 0 -1 -1 t-0.5 -1.5t-0.5 -1.5q-2 -2 -6 -10l-6 -15q-2 -5 -3 -9.5t-2 -9.5t-1.5 -9.5t-0.5 -9.5q0 -9 3 -16q1 -4 2 -6.5t2 -4.5l3 -3q-1 0 -1 1t-0.5 1t-0.5 2q-1 2 -3 10t-1.5 16.5t2.5 18.5q1 5 2 9t2 9q4 10 5 15zM409 426q6 8 12.5 15t12.5 14q6 8 11.5 14t10.5 12q5 5 8.5 10 t6.5 8q2 2 2.5 3t1.5 2l2 2l-6 -6q-3 -3 -7.5 -8t-9.5 -10l-11 -11t-12 -13q-6 -8 -12.5 -14.5t-12.5 -14.5q-7 -8 -13 -15t-13 -14q-5 -8 -10.5 -14t-10.5 -12t-8.5 -10.5t-6.5 -7.5q-4 -4 -6 -7l6 6l7.5 7.5t9.5 10.5q5 5 10.5 11t11.5 14q6 7 12.5 14t13.5 14zM469 485 q6 7 11.5 14t10.5 12q2 2 3.5 4.5t3.5 4.5l3 3l-3 -3q-2 -2 -4.5 -3.5t-4.5 -3.5q-5 -5 -11 -11.5t-12 -14.5q-6 -7 -11.5 -14t-10.5 -12q-6 -8 -7 -10q-2 -2 -2 -3l11 11q5 5 11 11.5t12 14.5zM413 250q4 9 8.5 18l9.5 19q5 9 9 18.5t9 18.5l8 16t7 16q3 7 5.5 12.5 t4.5 10.5t4 9q-1 -5 -4 -9q-2 -5 -5 -10t-7 -12l-16 -32q-5 -9 -9.5 -18l-9.5 -19q-5 -9 -9 -18.5t-9 -17.5q-8 -18 -15 -33q-4 -8 -6 -13.5t-4 -9.5l-4 -8q1 4 4 8q2 4 5 9.5t7 12.5l8 16t9 16z" />
</svg>