<svg version="1.1" xmlns="http://www.w3.org/2000/svg" xmlns:xlink="http://www.w3.org/1999/xlink">
	<path transform="scale(0.200, -0.200) translate(0, -750)" d="M441 340q4 7 15 1t22.5 -17t18.5 -24t4 -20q-19 -38 -50 -86.5t-68.5 -91.5t-79 -72.5t-80.5 -29.5q-14 0 -30.5 10.5t-30.5 25t-24 30.5t-10 28q0 24 13.5 59t34 76t43.5 85.5t41 86.5q-79 -79 -136.5 -151t-96 -127.5t-59 -88.5t-25.5 -33q-6 0 -16 6.5t-19.5 17 t-16.5 23.5t-7 26q0 8 15.5 45.5t39 89t50.5 110.5t50.5 111t39 89.5t15.5 47.5q0 2 1 4q2 5 8 5q8 0 18.5 -5t20.5 -13t16.5 -19.5t6.5 -23.5q0 -6 -6 -25t-16.5 -45.5t-23.5 -58t-27 -64.5q31 37 64.5 75.5t62.5 71.5t51 56t30 28q1 0 1.5 0.5t1.5 0.5t2 -1q3 0 4 -1 q6 -3 15.5 -10.5t18.5 -19t15.5 -27.5t6.5 -36q0 -15 -11 -43.5t-27 -63t-35.5 -73t-35.5 -73.5t-27 -63.5t-11 -43.5q24 0 52.5 20t58 54t58.5 77t54 90zM48 282q5 10 9 20t9 20q5 11 9 21t9 20q4 10 7.5 19t6.5 17t5.5 14t4.5 11q1 2 1 3.5t1 3.5q0 2 1 3l-48 -110 q-9 -21 -17.5 -40.5t-15.5 -35.5q-4 -8 -6.5 -14t-4.5 -11q-3 -5 -4 -9q2 4 5 9l12 24q4 8 7.5 16.5t8.5 18.5zM82 333q0 1 1 2t1 2.5t2 3.5q5 8 11 22q4 7 7.5 15t7.5 16l8 18t8 19q4 9 7 18.5t6 18.5t5.5 17.5t4.5 15.5q3 15 3 25v4q0 2 -1 3t-1 2l1 -2v-3v-4 q-1 -2 -1 -4.5t-1 -5.5q-2 -3 -2.5 -6.5t-1.5 -6.5q-2 -8 -5.5 -16t-6.5 -17q-4 -8 -7.5 -17.5t-7.5 -18.5q-4 -10 -7.5 -19t-6.5 -18q-4 -9 -7 -17t-6 -15q-2 -8 -4 -13.5t-4 -9.5zM265 372q-11 -24 -27 -54l-7.5 -15t-6.5 -15q-4 -7 -6.5 -13.5t-5.5 -12.5q-2 -6 -4 -10.5 t-3 -8.5q-2 -4 -2 -7q1 3 3 7q2 3 3.5 7.5t4.5 10.5q6 11 12.5 25.5t14.5 29.5l7.5 15t6.5 14q4 8 7 14.5t5 11.5l4 10t4 9t3 7q-2 -3 -4 -7q-2 -3 -4 -8t-5 -10zM162 169q5 9 8.5 18.5t8.5 18.5q5 10 9 19t9 18q8 20 15 32q3 8 5 13.5t4 9.5q1 3 3 7q1 1 1 2q0 -1 -1 -2 q-2 -2 -4 -6t-5 -9.5t-7 -12.5t-8 -15t-9 -16q-5 -9 -9.5 -18l-9.5 -19q-4 -9 -8 -18.5t-8 -18.5q-2 -5 -3.5 -9t-3.5 -8q-2 -5 -3 -9l-2 -8q-3 -8 -3 -14q-1 -3 -1.5 -5.5t-0.5 -5.5v-7v-2l1 2q0 4 1 7q2 11 7 24q3 8 6.5 16t7.5 16zM268 19q3 2 5.5 2.5t4.5 2.5q2 1 4 3 l-4 -2q-6 -2 -11 -4q-13 -6 -32 -8h-9q-2 0 -4.5 0.5t-4.5 0.5q-8 1 -15 5l-6 3q-2 0 -4 2q-2 0 -2 0.5t-1 0.5t-1 1l3 -3q2 -1 4 -3l6 -3q3 -2 6.5 -3.5t8.5 -2.5q2 -1 4.5 -1t4.5 -1h10q5 0 9 1t9 3q5 1 8.5 2.5t6.5 3.5z" />
</svg>