<svg version="1.1" xmlns="http://www.w3.org/2000/svg" xmlns:xlink="http://www.w3.org/1999/xlink">
	<path transform="scale(0.200, -0.200) translate(0, -750)" d="M472 423q5 9 16 5t21.5 -13.5t18 -20.5t5.5 -16q-13 -33 -35.5 -75.5t-56.5 -81t-80 -65t-105 -26.5h-9.5t-9.5 1q-21 -28 -43.5 -52t-46 -41.5t-47.5 -27.5t-47 -10q-11 0 -33 10.5t-44.5 30t-39 45.5t-16.5 58q0 26 10.5 58.5t27 65.5t37.5 64t41 55v19q0 29 20 58.5 t49 53t62.5 38.5t59.5 15q13 0 32.5 -13.5t36.5 -38.5t29.5 -60t12.5 -78q0 -37 -14 -81.5t-38 -90.5q33 7 61.5 32t51.5 57.5t41 66.5t32 58zM114 509q-2 -1 -2 -1.5t-1 -1.5l-1 -1q2 1 5 3q2 2 5 3.5t7 4.5q5 2 9 5t9 6q2 2 5 3t5 3q3 2 5.5 2.5t5.5 2.5t11 6q5 2 10 5 q5 2 10 3.5t9 3.5q6 2 8 2q2 1 3.5 1t3.5 1h4q1 0 1 1h-6h-6q-6 0 -9 -1q-2 0 -10 -2q-2 -1 -5 -1.5t-5 -1.5q-6 -2 -11.5 -4.5t-11.5 -5.5q-5 -3 -10.5 -6t-10.5 -7q-9 -6 -16 -13q-9 -7 -11 -10zM105 490q-3 -3 -5.5 -5t-4.5 -4l-3 -3h1l3 3q2 2 4.5 4t5.5 4t6.5 4.5 t8.5 5.5q4 3 7.5 6t8.5 5q5 3 9 6t8 5q5 2 8.5 4.5t7.5 4.5q8 4 11 6l4 2v1q-2 -1 -5 -2t-11 -5t-16.5 -8.5t-17.5 -10.5q-8 -5 -16 -11.5t-14 -11.5zM94 319q-1 -3 -1.5 -5.5t-1.5 -5.5q4 5 7.5 9t7.5 8l7.5 7.5t6.5 7.5l10 10l10 10q-1 -1 -3 -2t-4 -2.5t-4 -3.5 q-5 -5 -11.5 -10.5t-14.5 -13.5zM-19 132q0 3 2 9q0 3 2 9q2 5 3.5 10.5t3.5 10.5q2 10 8 21q2 5 4 9t4 9q2 4 2.5 7t2.5 5q1 3 3 5q-1 -2 -3 -5q-2 -2 -3.5 -5t-3.5 -6q-5 -8 -9 -18q-2 -5 -4.5 -10t-4.5 -10t-3 -11t-3 -11q-2 -6 -2 -10q0 -2 -0.5 -4.5t-0.5 -4.5 q-1 -5 -1 -8v-6v-5v1q0 1 0.5 1.5t0.5 2.5q0 3 0.5 6t1.5 8zM-11 130q1 5 2 9.5t3 9.5q3 10 8 21l6 12q1 4 5 12q3 6 6.5 12t6.5 12l15 24q4 6 8 11.5t8 10.5l-3 9l-3 -3q-4 -6 -8 -11.5t-8 -12.5l-15 -24q-4 -7 -7 -13l-6 -12q-2 -4 -3 -7l-2 -6q-2 -3 -2.5 -6t-2.5 -6 q-2 -6 -3.5 -11.5t-3.5 -10.5q-1 -4 -3 -10q0 -2 -0.5 -5t-0.5 -5q-2 -10 -2 -15q-1 -3 -0.5 -5.5t0.5 -4.5v-3v3q1 3 1 10q1 3 1.5 6.5t2.5 8.5zM-4 85q37 0 73 20.5t68 54.5q-29 17 -47.5 41.5t-29.5 52.5q-26 -35 -45 -78t-19 -91zM133 145q3 2 5.5 5t5.5 6q-1 0 -1 0.5 t-1 0.5l-11 -11q-5 -4 -8.5 -8t-7.5 -7q-4 -4 -7.5 -6.5t-5.5 -4.5q-3 -3 -5 -4.5t-4 -3.5t-3 -2l12 9q3 2 6.5 5t7.5 6t8 6.5t9 8.5zM88 289q-2 -32 17 -56.5t67 -31.5q24 32 44.5 68t34.5 71.5t22 68.5t8 59q0 23 -18 23q-29 0 -62.5 -25t-61.5 -61q11 -15 16 -29.5 t0 -19.5q-5 -4 -24 -21.5t-43 -45.5zM235 282q2 4 3.5 7.5t3.5 7.5q4 7 7 13.5t6 13.5q2 7 5 13t5 12q7 24 12 39q2 8 3 10t1 4q0 -2 -1 -4t-2 -4.5t-2 -5.5q-2 -7 -5.5 -17t-8.5 -21q-2 -6 -4.5 -12t-5.5 -13t-6 -13.5t-7 -13.5q-3 -7 -7 -14q-2 -4 -3.5 -7.5t-3.5 -6.5 q-5 -8 -9 -14.5t-8 -14.5q-5 -7 -9.5 -13.5t-9.5 -13.5q-2 -4 -5 -7t-5 -7h4l9 12q5 7 9.5 13.5t9.5 13.5q5 8 9 14.5t8 14.5l3.5 7zM276 355q2 8 4.5 15.5t4.5 15.5t3.5 15.5t2.5 14.5q2 8 2.5 15t1.5 13v19v8v-2q0 -1 -0.5 -2.5t-0.5 -3.5q0 -3 -0.5 -8t-1.5 -11 t-1.5 -12.5t-2.5 -14.5t-3.5 -15t-3.5 -15t-4 -15.5t-4 -15.5q-2 -7 -4.5 -13.5t-4.5 -11.5l-3.5 -10.5t-3.5 -7.5q-1 -3 -1 -5q0 -1 -1 -2l3 6q2 3 4 7.5t4 10.5q2 5 5 11.5t5 13.5z" />
</svg>