<svg version="1.1" xmlns="http://www.w3.org/2000/svg" xmlns:xlink="http://www.w3.org/1999/xlink">
	<path transform="scale(0.200, -0.200) translate(0, -750)" d="M471 340q7 14 19 10.5t23 -16t17 -28.5t0 -27q-21 -41 -56 -89t-84 -90t-112.5 -70.5t-142.5 -29.5h-2h-1h-2q-24 1 -44 10t-35.5 23t-27 32t-19.5 36q-29 -77 -57 -152.5t-50 -136.5t-35.5 -102t-13.5 -50q0 -7 -15 -2.5t-32.5 14t-32.5 22.5t-15 22q0 5 14 41.5 t36.5 94.5t51.5 130t59.5 148t59.5 149.5t51.5 132.5t36.5 98.5t14 47.5q0 24 11.5 23.5t25 -13t25 -30.5t11.5 -30q0 -5 -5.5 -24.5t-16.5 -49.5q42 53 79.5 88.5t63.5 35.5q13 0 27 -9.5t25.5 -30.5t19 -55.5t7.5 -83.5q0 -26 -5 -57t-14 -64t-21.5 -66t-28.5 -63 q36 20 66 46t54 54.5t41.5 57t29.5 53.5zM241 503q-3 -2 -6.5 -4.5t-6.5 -4.5q-4 -3 -7.5 -6t-6.5 -6t-6 -6.5t-6 -6.5q-3 -4 -5.5 -7t-4.5 -6q-5 -6 -6 -9l-2 -4l3 3q2 2 3.5 4t3.5 5q5 5 10.5 11.5t12.5 12.5q6 8 13 12l6 6q2 1 3 2t3 2q6 3 9 6q1 0 1.5 0.5t1.5 0.5t1 1 l-4 -2q-6 -2 -10 -4zM205 455l-16 -16q-5 -5 -10 -11t-10 -13q-6 -7 -11.5 -14t-11.5 -15q-5 -8 -10.5 -15t-10.5 -14q-5 -8 -9.5 -14.5t-8.5 -11.5q-4 -6 -7 -11t-5 -9q-3 -4 -4 -7q2 3 5 7l5 7.5t8 10.5q4 6 9 12.5t10 13.5t10.5 14t10.5 15q6 8 11.5 15t10.5 14t10 13 t10 11t8 10t6 8q3 4 6 6zM95 373q-4 -7 -7 -12.5t-5 -9.5q-3 -5 -4 -9q0 1 1 2l4 6q2 4 5.5 9.5t7.5 12.5l10 14t11 15q5 8 11.5 16.5t13.5 16.5q12 16 26 32q12 15 24 27q5 6 9.5 10.5l7.5 7.5q2 2 2.5 3.5t1.5 2.5l2 2l-2 -2l-5 -5q-3 -3 -8 -7.5t-10 -10.5 q-6 -5 -12 -11.5t-13 -14.5t-13.5 -16t-13.5 -16q-6 -8 -12.5 -16.5t-11.5 -16.5q-6 -8 -10.5 -15.5t-9.5 -14.5zM-193 -195q5 14 10.5 28t9.5 25q4 12 9 24l-3 -6q-2 -3 -4 -8l-4 -10t-5 -11t-5 -13q-3 -7 -6 -13.5t-6 -14.5q-2 -8 -5 -14.5t-5 -13.5q-4 -13 -9 -25t-6 -18 q-1 -4 -2 -7l3 6q2 3 3.5 7.5l3.5 10.5q2 5 5 11t5 13q3 7 5.5 14t5.5 15zM42 426q2 7 3.5 12t3.5 9t3 7h-1q-4 -13 -10 -28q-5 -14 -12.5 -31.5t-15.5 -40.5q-18 -45 -41 -102t-46 -117l-88 -220q-21 -53 -40 -99l1 -1q1 3 3 7t4 8.5t5 11.5q5 14 13.5 31.5t17.5 40.5 q10 22 21 47.5t22 53.5t23.5 57.5t24.5 59.5q11 30 22.5 59.5t22.5 57.5q11 29 21 54.5t18 48.5q4 12 7.5 22t6.5 20q4 9 6.5 17t4.5 15zM47 184q-2 -17 -3 -38t2 -39.5t11.5 -31t24.5 -12.5q33 0 61 21.5t51 56t40 78.5t28.5 88.5t17.5 86t6 72.5q-22 -7 -55 -40 q-29 -28 -74 -84.5t-110 -157.5zM212 123q1 1 1.5 2t1.5 2l1 1l-17 -17q-4 -5 -8 -9l-9 -9q-4 -3 -11 -10q-3 -3 -11 -9q-4 -2 -12 -8q-3 -2 -6 -3.5t-6 -3.5q-8 -4 -11 -6l-6 -2t-5 -2q-10 -4 -17 -6q-2 -1 -5 -1q-1 0 -1 -1h1q3 0 5 1q4 1 8.5 2t9.5 3q2 1 5 1.5t6 2.5 q4 1 12 5t12 7q5 2 13 8q11 9 21 19.5t17 18.5q4 5 6.5 8t4.5 6zM268 260l4 16l4 16t3 15.5t3 15.5q1 7 2 13.5t2 13.5q2 13 3 23t2 18q0 4 0.5 6.5t0.5 4.5v4l-3 -15q-2 -8 -4 -18t-4 -22q-1 -7 -2 -13.5t-3 -13.5q-2 -8 -3.5 -15t-3.5 -15t-4.5 -15.5t-4.5 -15.5t-4.5 -16 t-6.5 -16q-1 -5 -2 -8.5t-3 -7.5t-3.5 -8t-3.5 -8t-3.5 -7.5t-3.5 -7.5q-2 -3 -3.5 -6.5t-3.5 -7.5q-5 -7 -8 -13.5t-8 -12.5l-4 -6l-4 -6q-2 -2 -4 -5t-4 -5q-4 -5 -7.5 -9t-7.5 -8q-2 -3 -6 -7q-3 -2 -7 -6l-11 -11l3 3q2 2 4.5 3.5t5.5 3.5q2 1 6 5q2 2 3.5 3t3.5 3l8 8 l9 9q2 2 4 5t5 5l4 6l4 6q10 11 17 26q2 3 4 6.5t4 7.5t3.5 7.5t3.5 7.5q4 6 7 16q2 4 3 7.5t3 8.5q3 8 5.5 16t5.5 16z" />
</svg>