<svg version="1.1" xmlns="http://www.w3.org/2000/svg" xmlns:xlink="http://www.w3.org/1999/xlink">
	<path transform="scale(0.200, -0.200) translate(0, -750)" d="M514 341q4 7 15.5 2t23 -16t18.5 -24t3 -21q-29 -52 -63 -95t-72 -83t-79.5 -80t-84.5 -87t-87.5 -104.5t-87.5 -131.5q-7 -20 -13.5 -39.5t-11.5 -39.5q0 -9 -12.5 -5.5t-27 14t-27 24.5t-12.5 26q0 7 17.5 46.5t45 99t61.5 131.5t68 143q-47 -42 -95 -71t-90 -29 q-12 0 -31.5 10t-38 26t-32 36t-13.5 40q0 32 19.5 77.5t52.5 95t74.5 98.5t86.5 87.5t88.5 62.5t79.5 24q34 0 57.5 -18t36.5 -39t16 -39t-3 -18t-11.5 6t-13 13.5t-19.5 13.5t-30 6q-40 0 -84.5 -30t-87 -75.5t-79.5 -98t-62 -98t-34.5 -75.5t3.5 -30q30 0 64 19t68 48 t66.5 64.5t60 68.5t48.5 60t32 40q8 19 8 22q0 14 10 8.5t22 -20t22 -33t10 -29.5q0 -6 -12.5 -31t-33 -65t-47.5 -92t-56 -112q30 23 66.5 55t74 72.5t72.5 88t61 101.5zM315 538q-2 1 -5 1t-6 1q-4 1 -12 1q-3 0 -6 -0.5t-6 -0.5q-3 -1 -6 -1t-6 -1t-5.5 -2t-4.5 -2 q-4 -1 -10 -3q-4 -2 -7.5 -3.5t-5.5 -2.5q-4 -2 -3 -2l-1 -1q0 1 1 1q2 0 4 1q3 1 13 5q11 4 20 5q6 2 11 2q4 1 12 1h11q3 -1 6 -1t5 -2q6 -1 10.5 -2.5t8.5 -3.5q5 -2 8 -4t5 -4t3 -2l1 -1l-4 4q-1 1 -2 1.5t-3 2.5q-2 1 -3.5 2t-3.5 2q-2 2 -4 2.5t-4 2.5q-3 1 -5.5 2 t-5.5 2zM99 436q-7 -7 -11.5 -12.5t-8.5 -9.5q-4 -5 -8 -9l8 8q4 4 9 9.5t13 12.5q7 6 15 13t17 15t18.5 15.5t19.5 15.5q11 8 21 14.5t20 12.5q5 3 10 5.5t10 4.5t9.5 4t9.5 4l9 3q3 0 7 2q10 2 13 2q4 1 9 1h3h-3h-9q-3 0 -13 -2q-4 -1 -8 -1.5t-9 -2.5t-9.5 -3.5 t-9.5 -3.5t-10 -4.5t-10 -5.5q-21 -12 -42 -27q-11 -8 -20.5 -15.5t-17.5 -15.5q-9 -8 -17 -15.5t-15 -14.5zM21 351q-2 -2 -2.5 -3l-1.5 -3t-2 -3q3 5 7 9q3 4 7 8.5t9 9.5t8.5 9.5t7.5 9.5q2 2 3 3.5t2 2.5l2 2q-2 -1 -3 -2q-2 -1 -2.5 -2.5t-2.5 -3.5q-7 -6 -16 -18 q-10 -10 -16 -19zM-35 140q3 6 7.5 14t9.5 18q11 20 24.5 44.5t30.5 48.5q4 7 8 13t9 12t8.5 11.5t8.5 11.5q8 11 16 21t16 18q7 8 12.5 15.5t10.5 12.5q5 6 9 10q-1 -1 -2 -3l-7 -7q-5 -5 -11 -11.5t-14 -15.5q-8 -8 -16 -17.5t-17 -20.5q-4 -6 -8 -11.5t-9 -11.5t-9 -12 l-8 -12q-8 -13 -16 -25.5t-15 -24.5t-12.5 -23.5t-10.5 -21.5q-11 -21 -15 -33l-6 -12zM101 120q4 3 7 5.5t5 4.5q3 3 4 5q-2 -2 -5 -4q-2 -2 -5.5 -4.5t-7.5 -5.5t-8.5 -6t-9.5 -7t-10 -7t-11 -7q-11 -7 -22.5 -11.5t-20.5 -7.5q-6 -2 -8 -3q-3 -1 -7 -1q-2 -1 -5 -1 q-1 0 -1 -1h1q1 0 2 0.5t3 0.5q4 0 7 1q1 0 9 2q2 0 10 2q2 2 5 2.5t6 2.5q6 2 11.5 5t11.5 6q11 7 21 14.5t18 14.5zM94 -147q3 7 5.5 13t4.5 10l4 8q-1 -4 -4 -8l-5 -10t-7 -13q-3 -7 -7 -15l-8 -16q-5 -9 -9 -18.5t-9 -18.5q-4 -10 -8 -19.5t-8 -18.5t-7.5 -17t-6.5 -16 t-4.5 -13.5t-3.5 -10.5t-2 -9l3 9q2 5 4.5 10.5t4.5 13.5q3 7 6.5 15t8.5 17l8 18t9 19t8.5 19t8.5 18q4 9 7.5 17t6.5 16zM171 43q5 11 9.5 20t7.5 16q4 8 6 14l-7 -14q-3 -7 -8 -15.5t-10 -19.5q-11 -23 -24 -51q-7 -14 -13.5 -28.5t-13.5 -29.5t-14 -29.5t-13 -28.5 q-7 -14 -12.5 -27.5t-10.5 -24.5t-9 -20t-7 -16q-4 -8 -6 -14q2 6 6 14q6 13 18 36q5 11 11 23.5t13 26.5t13.5 29t13.5 29q8 15 14.5 30t12.5 29q13 26 23 51z" />
</svg>