<svg version="1.1" xmlns="http://www.w3.org/2000/svg" xmlns:xlink="http://www.w3.org/1999/xlink">
	<path transform="scale(0.200, -0.200) translate(0, -750)" d="M373 333q6 10 19 8.5t25 -10t19.5 -21t2.5 -23.5t-20 -36t-37.5 -57t-50 -66.5t-56.5 -62.5t-57 -46.5t-52 -18.5q-6 0 -21.5 7t-31.5 21.5t-28 35.5t-12 50q0 38 16 81t35.5 83.5t35.5 74t16 51.5q0 4 -15.5 12.5t-29.5 13.5q-18 -35 -40 -79t-40 -79q-7 -14 -18 -9 t-21 17.5t-15.5 28.5t-0.5 25q14 30 29.5 64t30.5 64q-17 9 -33 20t-28 26t-19.5 34.5t-7.5 44.5q0 30 11.5 64.5t29.5 68t40.5 64t44 53.5t40 37t29.5 14q12 0 30.5 -10t36 -25.5t30 -35.5t12.5 -41q0 -16 -9.5 -47t-26 -73t-39 -91.5t-49.5 -102.5q17 -7 36.5 -16.5 t36 -21t27 -25t10.5 -28.5q0 -10 -10 -35.5t-23.5 -57.5t-29 -67t-26.5 -64t-15.5 -47.5t4.5 -18.5q17 0 38.5 16t44 41t44 55.5t39.5 58.5t31 50t18 31zM4 512q-1 0 -1 1l-2 4q-2 2 -3.5 5l-3.5 7q-4 7 -7 19q-1 3 -1 5.5t-1 5.5q0 3 -0.5 6t-0.5 6v11q1 4 1 12q1 5 1.5 10 t1.5 10q2 4 2.5 7.5t1.5 6.5q0 1 0.5 2t0.5 2v1q-1 0 -1 -1t-0.5 -2t-0.5 -2q-1 -2 -2 -5.5t-3 -8.5q-1 -2 -1 -4.5t-1 -4.5q-2 -6 -2 -11q-1 -3 -1 -11q-1 -4 -1 -12q0 -4 2 -12q0 -4 2 -12q2 -5 4 -9.5t4 -9.5q2 -4 4 -7t4 -5zM34 730q3 5 5.5 10t5.5 10l12 18q2 4 5 8 t5 8q5 8 9 13.5t7 10.5l6 9l-2 -2q-1 -1 -2 -2.5t-3 -3.5q-3 -5 -8 -10t-10 -13q-3 -3 -6 -7l-6 -8l-12 -18q-4 -5 -7 -9.5t-6 -9.5l-12 -21q-2 -5 -5 -10.5t-6 -10.5q-2 -5 -4.5 -10.5t-4.5 -10.5t-4 -10.5t-4 -10.5q-4 -11 -5 -18q-2 -5 -2.5 -9t-1.5 -7q-1 -5 -1 -13 q-1 -2 -0.5 -4t-0.5 -4v-2q0 -1 1 -1v3q0 4 1 8l3 12q1 5 5 15q2 5 3.5 9t3.5 9l4 10l4 10l10 20t11 21zM41 555q0 -20 8 -33t24 -24q30 62 55 119t42 101t24.5 70t1.5 26t-20 -12.5t-31 -33.5t-35.5 -47.5t-33.5 -55.5t-25 -57.5t-10 -52.5zM120 563q5 11 9.5 21t9.5 21 t9 21t8 21q2 5 4 9.5t4 9.5q3 10 6 18q4 16 8 27q0 2 0.5 4t0.5 4t1 2v1q-1 -5 -4 -10q-2 -5 -5 -11.5t-6 -14.5q-6 -17 -14.5 -37t-18.5 -41q-9 -22 -18 -42t-16 -36q-9 -18 -16 -35h1l6 9q2 5 5.5 10.5t7.5 13.5q8 13 18 35zM94 157q0 -1 -1 -3t-3 -8q-1 -6 -2 -12.5 t-2 -14.5q0 -17 3 -27q1 -6 3 -9q1 -2 1 -3q-1 1 -1 3t-0.5 4t-0.5 5q-1 6 -1 12.5v14.5q1 7 1.5 14t1.5 12q0 7 1 9v3zM124 236q0 2 0.5 3.5t0.5 3.5q0 1 1 2q-1 -1 -1 -2q-1 -1 -1 -2.5t-1 -3.5l-4 -10t-4 -12t-4.5 -14.5t-4.5 -16.5q-1 -4 -2 -8.5t-2 -9.5l-3 -18 q-1 -5 -1.5 -9.5t-0.5 -9.5q-1 -5 -0.5 -9t-0.5 -9q1 -5 1 -9t1 -8q1 -2 1 -4t1 -4q0 -3 2 -7q0 -3 2 -7q1 -2 1.5 -2.5t1.5 -2.5q1 -3 2.5 -5t2.5 -4l4 -4q0 -1 1 -2h1h-1l-1 2q-2 2 -3 5q-4 4 -5 9q-1 1 -1 2t-1 3q-2 4 -2 6q-1 2 -1 4t-1 4q0 2 -0.5 3.5t-0.5 3.5 q-1 4 -1 8v9v9t1 9q0 5 0.5 9t1.5 9t1 9.5t2 9.5q1 5 1.5 9t2.5 8q2 9 4 16.5t4 14.5q3 16 6 22z" />
</svg>