<svg version="1.1" xmlns="http://www.w3.org/2000/svg" xmlns:xlink="http://www.w3.org/1999/xlink">
	<path transform="scale(0.200, -0.200) translate(0, -750)" d="M459 337q6 14 17.5 10t22 -16t16 -28t0.5 -27q-20 -41 -53 -88.5t-79.5 -89t-106.5 -69.5t-135 -29q-7 -1 -13.5 -1.5t-13.5 -0.5q-30 0 -50.5 11.5t-33 29.5t-17.5 40t-3 42t6.5 31t9.5 15.5t8.5 4t3.5 -3.5q-2 -29 11.5 -46.5t36 -25t50 -6.5t51 9t40 21.5t18.5 31.5 q1 14 -17.5 23t-47 17t-61.5 17.5t-61 25t-45 39.5t-14 61q3 34 20.5 63.5t43.5 54.5t57 45t62 33.5t57.5 21t43.5 7.5t28.5 -11.5t18.5 -29t9.5 -37t1.5 -34.5t-9 -34t-18 -35.5t-19 -27.5t-12 -11h-14.5t-21 1.5t-19 5.5t-7.5 11t8 21l15 30l15 30t8 21q0 4 -14.5 1 t-36.5 -12.5t-48 -23.5t-48.5 -31t-38.5 -35t-17 -36q0 -3 17 -8l42.5 -12.5t55.5 -19t56 -27t43 -36t17 -46.5q0 -11 -0.5 -20t-1.5 -17q62 41 103.5 96.5t62.5 103.5zM24 384q3 5 6 10.5t7 10.5l18 21q10 11 21.5 20.5t23.5 19.5q24 19 49.5 34t45.5 25q11 5 19.5 9 t14.5 6q3 2 5.5 2.5t4.5 1.5h3q1 0 1 1h-1q-1 0 -1.5 -0.5t-1.5 -0.5q-2 -1 -10 -3q-7 -2 -15.5 -5.5t-19.5 -8.5t-22.5 -10.5t-23.5 -13.5q-13 -8 -25.5 -16.5t-24.5 -17.5q-24 -18 -45 -41q-5 -5 -9.5 -11t-8.5 -11t-7 -10.5t-6 -10.5q-7 -12 -8 -19l-3 -9q0 -2 -0.5 -3.5 t-0.5 -3.5q-1 -5 -1 -11v-3v3q0 2 0.5 4.5t1.5 6.5q0 4 1 7q1 2 3 8t4 9q2 5 5 10zM36 384q4 5 8.5 10.5t9.5 11.5t10 11t9 10q2 3 6 7l3 3q-1 -1 -3 -2t-4 -2.5t-4 -3.5l-20 -20q-11 -13 -16 -24q-4 -6 -5 -8t-1 -3q1 0 1 1l1 2q2 2 2 3q1 1 1.5 2t1.5 2zM216 100q2 1 4 3 q1 1 2 1l-6 -3q-2 -1 -8 -3q-3 -2 -9 -4t-12 -3.5t-13 -3.5q-8 -1 -15 -2t-15 -2h-15q-8 -2 -14 0q-4 0 -7.5 0.5t-6.5 0.5q-3 1 -6 1t-6 1t-5.5 1t-4.5 1q-6 2 -8 3l-6 3l1 -1q1 -1 5 -3q2 -1 3.5 -1.5t3.5 -1.5t5 -1.5t5 -1.5q8 -2 13 -3q3 -1 6.5 -1t6.5 -1h15h15 q8 1 15.5 2t14.5 3q4 1 7 2t7 2q8 2 11 4q3 1 5.5 2t4.5 2q3 2 7 4z" />
</svg>