<svg version="1.1" xmlns="http://www.w3.org/2000/svg" xmlns:xlink="http://www.w3.org/1999/xlink">
	<path transform="scale(0.200, -0.200) translate(0, -750)" d="M329 340q5 10 16.5 5t22.5 -17t18 -26t3 -21q-21 -40 -49.5 -89t-64 -91.5t-77.5 -71.5t-91 -29q-17 0 -42 9t-49 30t-41 54.5t-17 82.5q0 20 12.5 64.5t32.5 101.5t44.5 121t48.5 124q-20 -2 -39 -2h-36q-26 0 -38 14.5t-15 31.5t0.5 31.5t9.5 14.5h28.5t43 0.5t46.5 1 t38 1.5q38 93 59 145t21 60q0 17 13 15.5t28.5 -13.5t28.5 -29t13 -32q0 -5 -14 -37t-43 -102q48 3 87.5 4t57.5 1q21 0 31.5 -5.5t15.5 -14.5t5.5 -21t0.5 -24q0 -13 -9.5 -16t-23.5 -3q-48 0 -99.5 -4t-102.5 -9q-26 -64 -54.5 -137.5t-52 -142.5t-38.5 -128t-15 -95 q0 -24 13 -24q41 0 81 28.5t76 70t66 88.5t50 85zM158 717q-3 -8 -4.5 -11t-2.5 -6t-2.5 -7t-5.5 -13h7q3 9 4.5 13t2 6.5t1.5 5.5t4 10q7 17 12 31.5t10 24.5q2 5 3 8.5t2 6.5q1 4 2 6q-1 -2 -2 -5q-2 -2 -3.5 -6t-3.5 -9q-5 -11 -10.5 -24.5t-13.5 -30.5zM26 381 q-6 -18 -11 -32t-8 -25l-6 -21q1 1 2 5q1 2 2.5 6.5t3.5 9.5q4 10 9 24t12 31t17 41.5t20.5 51.5t21.5 54t20 50l2 6l2 6q-2 -1 -8 -1q-1 -2 -1.5 -4t-1.5 -4q-5 -12 -11 -28t-13 -32.5t-13 -32t-10 -26.5q-8 -22 -15 -42t-14 -37zM1 69q2 -4 6 -8l3 -3q-1 1 -2 3t-2.5 4.5 t-3.5 5.5q-2 2 -3.5 5.5t-3.5 6.5q-2 4 -4 7.5t-4 8.5q-2 4 -3.5 7.5t-3.5 7.5q-4 7 -6 14q-1 3 -2 5.5t-1 4.5q-1 1 -1 3v1v-4q0 -2 0.5 -4.5t1.5 -6.5q1 -3 1.5 -6.5t2.5 -7.5t3.5 -8t3.5 -8q4 -8 8.5 -15.5t9.5 -12.5zM30 350q2 3 3 6.5t3 8.5q4 9 9 21q2 5 4.5 11.5 t5.5 12.5q2 6 4.5 12.5t4.5 11.5q2 6 4 11.5t4 10.5l7 21l-10 -20q-2 -5 -4 -10.5t-4 -10.5q-2 -6 -5 -12t-5 -13l-9 -24q-2 -6 -4 -11l-4 -10t-3 -9t-2 -7q-1 -4 -2 -6z" />
</svg>