<svg version="1.1" xmlns="http://www.w3.org/2000/svg" xmlns:xlink="http://www.w3.org/1999/xlink">
	<path transform="scale(0.200, -0.200) translate(0, -750)" d="M483 340q4 7 14.5 1t20.5 -17t16.5 -24t2.5 -20q-22 -38 -57.5 -86.5t-77 -91.5t-85.5 -72.5t-83 -29.5q-18 0 -33 9t-25.5 22.5t-16 28.5t-4.5 26q1 9 8 32.5t19 56.5q-26 -36 -52 -67.5t-51.5 -55.5t-50 -38t-46.5 -14q-11 0 -26.5 7.5t-29.5 21.5t-23 34t-7 46 q1 17 15.5 54t35 83t44 96t43.5 93t33.5 74t14.5 40q1 8 6.5 8t13 -6t16.5 -16t16 -20.5t11.5 -20t4.5 -14.5t-13 -31t-31.5 -64t-40 -82t-40 -84t-31.5 -71t-14 -42q25 0 60 33.5t73.5 83.5t77 109t70 109t53 83.5t26.5 33.5q13 0 21.5 -10t14 -23.5t7.5 -26.5t2 -20 q-1 -5 -12 -33.5t-27 -68.5t-34 -86t-33 -85t-23.5 -64.5t-4.5 -25.5q24 0 52.5 17.5t58.5 48t61 71.5t60 88zM307 346q-5 -11 -6 -16q-1 -4 -2 -7l3 6q2 3 3.5 7.5t3.5 9.5t5 10.5t5 11.5q2 7 5 13.5t6 13.5q2 7 5 13.5t5 12.5q4 13 9 24q2 5 3 9t2 7q1 4 2 6l-3 -6 q-2 -3 -3.5 -7t-3.5 -9t-4.5 -10.5t-4.5 -11.5q-3 -7 -5.5 -13.5t-5.5 -13.5q-2 -7 -5 -13.5t-5 -12.5q-5 -14 -9 -24zM59 119q-4 -3 -6 -5.5t-4 -4.5t-4 -3l1 1q-1 0 3 2q2 2 4.5 4t5.5 5q4 3 7.5 6t7.5 7l7.5 7.5t7.5 8.5q17 17 27 32q2 3 4.5 6t4.5 5q2 3 3 5 q-1 -1 -3 -4q-2 -2 -4.5 -5t-4.5 -6q-6 -7 -13 -15t-15 -17q-16 -18 -29 -29zM-66 180q2 5 4.5 10.5t5.5 10.5q2 6 5 12.5t6 13.5q4 6 7 13t7 15q7 14 13.5 29.5t14.5 30.5q8 16 15 31.5t14 29.5q7 15 12.5 28.5t10.5 25.5q5 11 9.5 21t6.5 17q2 3 2.5 6t1.5 5q1 3 2 4 l-7 -14q-4 -7 -8.5 -16.5t-10.5 -20.5q-5 -12 -11.5 -25.5t-13.5 -27.5q-8 -14 -15 -29.5t-15 -30.5q-7 -16 -14 -31.5t-14 -30.5q-6 -14 -11.5 -28t-10.5 -26q-9 -24 -14 -39q-2 -4 -2 -6.5t-1 -4.5q-1 -3 -1 -4q0 2 1 4l2 4l3 6q1 4 2.5 8t3.5 9zM112 108q2 2 2.5 3t1.5 2 l2 2l-6 -6q-4 -3 -8 -7.5t-10 -9.5l-5 -5t-6 -5q-3 -3 -6.5 -6t-6.5 -6l-15 -12l-15 -12q-5 -2 -8.5 -5t-7.5 -5q-2 -2 -4.5 -2.5t-4.5 -2.5q-2 -1 -8 -3q-2 -2 -4 -2t-4 -1q-6 -2 -8 -3h-4q-2 0 -2.5 -0.5t-1.5 -0.5h-8q-2 0 -3.5 0.5t-3.5 0.5q-2 1 -3 1t-3 1q-1 0 -5 2 q-2 0 -4 2l-3 1.5l-3 1.5q-1 1 -2 1l2 -1l3 -1.5t3 -2.5l4 -2q1 -1 5 -3l6 -2t7 -1h8h4q3 0 4 1q3 0 9 2q2 0 8 2q3 2 9 4q2 2 4 2.5t4 2.5q5 2 9 5t8 5l8 6l8 6q3 3 6.5 6t7.5 6l24 24q5 5 9 9.5t7 7.5zM215 265q2 2 2.5 4t1.5 4t2 3q-1 -1 -2 -3t-2 -3.5t-3 -3.5 q-3 -5 -7.5 -11.5t-9.5 -14.5q-11 -17 -24 -36q-7 -11 -14.5 -20.5t-15.5 -20.5t-15.5 -20.5t-15.5 -18.5l-15 -18l-7.5 -7.5t-6.5 -7.5l-22 -22q-2 -2 -4 -3t-3 -2q-2 -1 -2 -2q0 1 2 2q1 1 3 2t4 3q3 2 10 9q8 6 13 12q8 6 15.5 14t15.5 17q8 10 15.5 19.5t15.5 20.5 q15 18 30 41q7 10 12.5 19.5t10.5 17.5t9 14.5t7 11.5z" />
</svg>