<svg version="1.1" xmlns="http://www.w3.org/2000/svg" xmlns:xlink="http://www.w3.org/1999/xlink">
	<path transform="scale(0.200, -0.200) translate(0, -750)" d="M471 340q5 9 16 3t21.5 -17.5t18 -24.5t5.5 -17q-12 -24 -26.5 -45t-36.5 -36.5t-51.5 -24.5t-71.5 -9q-19 0 -46 22q-27 -37 -57.5 -71.5t-62 -61t-62 -42.5t-57.5 -16q-15 0 -35 15.5t-38 39.5t-30.5 53.5t-12.5 58.5t12.5 69.5t31.5 83.5t42.5 85.5t44.5 76t38 54.5 t24 21q10 0 21.5 -9.5t21 -22t15.5 -25.5t6 -19q0 -5 -13 -23.5t-33 -47t-43 -65t-43 -76.5t-33 -82t-13 -82q0 -13 7 -13q26 0 53.5 15.5t55.5 41.5t54.5 59t50.5 68q-2 8 -3 15.5t-1 15.5q0 17 7.5 42.5t19.5 53.5t26.5 55.5t28 49.5t24.5 36t16 14q12 0 24 -8t21 -20 t14.5 -25.5t5.5 -24.5q0 -5 -4.5 -15.5t-11.5 -25t-16.5 -32t-18.5 -36.5q2 -16 1.5 -31t-6.5 -27q-8 -18 -18.5 -36.5t-22.5 -38.5q3 -9 14 -9q22 0 41 11.5t35 28t28.5 36t21.5 35.5zM-41 184q1 7 3 18q2 5 3.5 11t3.5 13q2 6 4 13t5 14q2 8 5 15t6 15q4 8 7 16t7 16 t7.5 16t7.5 16q8 17 15.5 32.5t15.5 30.5q5 8 8.5 14.5t7.5 13.5t7.5 13t6.5 12q7 12 12.5 21t10.5 16q2 3 3.5 5.5t2.5 4.5l2 4l-2 -4q-1 -1 -7 -9q-2 -4 -5 -7.5t-6 -8.5l-6 -10t-7 -11q-3 -5 -6.5 -11.5t-8.5 -13.5q-4 -6 -7.5 -13t-8.5 -15q-8 -14 -16 -30l-16 -32 q-4 -8 -7.5 -16.5t-6.5 -16.5q-9 -17 -14 -32q-3 -8 -6 -15t-5 -15t-4 -14.5t-4 -13.5q-2 -6 -3 -12t-3 -11q-1 -11 -3 -19q-1 -5 -1 -8v-5v-4q1 1 1 4v5t1 8zM-14 261q9 26 20 49t19 41l20 40q-1 -1 -2 -3t-1.5 -4t-2.5 -4q-2 -5 -6 -12.5t-9 -16.5q-9 -17 -19.5 -40.5 t-19.5 -48.5q-5 -13 -9 -25.5t-7 -24.5q-2 -12 -4 -23.5t-2 -21.5q0 -13 1 -18q0 -5 0.5 -8t1.5 -6q1 -6 3 -9q0 -1 1 -2v-1v1l-1 2t-1 4t-1 5t-1.5 6t-0.5 8q-1 5 -1 18q0 10 2 21.5t5 23.5t6.5 24.5t8.5 24.5zM140 89q2 2 4 3.5t4 3.5l3 3l-3 -3q-3 -3 -9 -6 q-12 -10 -28 -19q-8 -5 -16 -8q-2 -1 -4 -1.5t-4 -1.5q-4 -2 -7 -2q-2 -1 -3 -1t-3 -1h-5q-1 -1 -3 -1h-1h4q3 0 5 1q4 0 6 1q4 1 7.5 1.5t8.5 2.5q8 3 16 8q5 2 8.5 5t7.5 5q3 2 6 5t6 5zM158 136q0 -1 -1 -1q-1 -1 -2 -1t-2 -1q-2 -2 -5 -4.5t-7 -5.5l-8 -6t-9 -7 q-5 -3 -10.5 -6.5t-10.5 -6.5q-3 -2 -5.5 -3t-5.5 -3t-11 -6q-5 -2 -9.5 -4t-9.5 -3q-2 -2 -4.5 -2t-4.5 -1t-6 -1q-2 -1 -5 -1h-1h1q1 0 2 -0.5t3 -0.5h7q2 1 4 0.5t5 0.5q2 1 4.5 1t5.5 1q6 1 11 4q11 4 23 11q6 4 11 7q2 2 5 4t5 4q5 4 9 7.5t7 7.5q4 3 6 6.5t4 5.5z M345 519l-2 -4l-1 -1l1 1q2 2 3 4q2 2 3.5 4.5t3.5 5.5t3.5 6l2.5 5q1 1 1 2t1 2q0 1 1 1q-1 0 -1 -1q-1 -1 -1 -1.5t-1 -1.5q-2 -2 -4 -5l-4 -6t-3.5 -6zM306 446l8 16t7 15q3 6 6 11.5t5 9.5q3 4 4 8q0 -1 -1 -2q-2 -2 -4 -6t-5 -9t-7 -11q-4 -7 -8 -14.5t-8 -15.5 q-5 -8 -9 -17t-9 -18q-4 -10 -8 -19t-7 -18q-4 -8 -6.5 -16t-4.5 -16q-4 -13 -4 -24q-1 -3 -1 -7v-2v2q0 1 0.5 3t0.5 4q2 6 3 10q1 3 1.5 6.5t1.5 6.5q5 16 12 32q4 9 7.5 18t8.5 18q7 16 17 35zM432 267l-3 -3l-4 -4t-5 -4q-11 -11 -29 -20q-4 -3 -8 -4q-3 -2 -9 -4 q-5 -2 -8.5 -2.5t-7.5 -1.5q-2 -1 -6 -1q-2 -1 -5 -1q-2 0 -2.5 -0.5t-1.5 -0.5h-1h5h4.5t6.5 1q8 0 17 3q5 2 9 3.5t9 3.5t8.5 5t7.5 6t7 6t6 5q2 3 4 5l4 4z" />
</svg>