<svg version="1.1" xmlns="http://www.w3.org/2000/svg" xmlns:xlink="http://www.w3.org/1999/xlink">
	<path transform="scale(0.200, -0.200) translate(0, -750)" d="M691 341q5 9 16 3t21.5 -17.5t18 -24.5t5.5 -17q-12 -24 -34 -53.5t-54 -55.5t-74 -43.5t-93 -17.5q-8 0 -23.5 4t-26.5 12q-19 -34 -37 -58.5t-38 -40.5t-43 -24t-52 -8q-21 0 -47 18.5t-46 43.5q-22 -26 -48.5 -44t-57.5 -18q-18 0 -40.5 16.5t-42 40t-32.5 50.5 t-13 48q0 34 12.5 77.5t32 88.5t43 87.5t45.5 75.5t39.5 53.5t25.5 20.5q9 0 19.5 -10.5t19 -24t14.5 -27t6 -19.5q0 -4 -13 -20.5t-33 -43t-43 -61t-43 -73.5t-33 -82t-13 -85q0 -30 19 -30t37 16.5t34 42.5t30 57.5t26 60.5q9 39 19 68.5t21 29.5q10 0 22.5 -9.5 t23.5 -22.5t18.5 -25.5t7.5 -18.5q0 -8 -6.5 -24.5t-15.5 -37.5q-2 -11 -9 -30.5t-19 -43.5q-8 -23 -8.5 -39t12.5 -16q21 0 44.5 18t46 47t43 64.5t37.5 70.5q-1 5 -1 9v9q0 17 7.5 42.5t19.5 53.5t26.5 55.5t28 49.5t24 36t15.5 14q13 0 24.5 -8t20.5 -20t14.5 -25.5 t5.5 -24.5q0 -5 -6 -18.5t-15 -31.5t-20.5 -39.5t-21.5 -43.5q3 -6 3 -13q0 -6 -6.5 -23t-15.5 -38.5t-19.5 -44.5t-18.5 -40q3 -5 11 -5q40 0 74 18.5t59.5 44t43 52t26.5 42.5zM-8 88q2 -2 3 -3.5t2 -3.5t2 -3q0 1 -1 3l-2 4l-2 4q-3 5 -6 10.5t-7 11.5q-2 5 -6 13 q-3 5 -4 11q-3 4 -3 8q0 1 -0.5 1t-0.5 1v1v-3q0 -2 0.5 -4t0.5 -5q1 -2 1.5 -5t2.5 -7l6 -12q3 -7 7 -12.5t7 -9.5zM8 298q2 7 5 13l6 12t5.5 12.5t5.5 11.5q5 12 10.5 23t10.5 20t8 17t6 13q3 6 6 11q-1 0 -2 -2t-5 -8l-7.5 -12.5t-9.5 -16.5t-11 -19.5t-12 -22.5 q-6 -11 -12 -24l-6 -12t-5 -13q-3 -7 -5.5 -13t-5.5 -13q-2 -6 -4 -12.5t-4 -12.5q-2 -7 -3.5 -13t-3.5 -12q-2 -5 -2.5 -11t-1.5 -11q-3 -11 -3 -19q0 -4 -0.5 -7.5t-0.5 -6.5v-13q1 1 1 3v4.5t1 5.5q0 3 0.5 6t1.5 8t1.5 9t2.5 9q1 10 6 22q2 6 3.5 11.5t3.5 12.5 q2 6 4.5 12t4.5 13q3 6 5.5 12.5t5.5 12.5zM138 141q0 1 0.5 2t0.5 2t1 1q-1 0 -1 -1q-1 -1 -1 -1.5t-1 -1.5q-1 -3 -7 -11q-2 -4 -5 -7.5t-6 -7.5t-6.5 -8t-8.5 -8l-7 -7q-3 -2 -8 -7q-10 -7 -16 -9q-2 -2 -3.5 -2t-3.5 -1q-4 -2 -5 -2q-2 0 -2.5 -0.5t-1.5 -0.5h-1h5 q2 1 5.5 1.5t7.5 2.5q9 4 16 9l9 6q5 3 8 8l7.5 7.5t6.5 8.5q4 4 6.5 8t4.5 7q4 7 6 12zM309 110q-3 -4 -8 -9l-3 -3q2 1 4 3t4 3.5t5 3.5q11 9 25 25q6 7 11.5 14t9.5 14q2 3 3.5 5t2.5 4l2 4l-3 -3q-2 -2 -3.5 -4.5t-3.5 -4.5q-5 -6 -10.5 -12.5t-11.5 -14.5 q-7 -7 -13 -13.5t-11 -11.5zM407 217q2 6 3 8l1 2l-6 -9q-1 -4 -6 -10q-2 -3 -4 -6.5t-4 -7.5q-2 -3 -4.5 -7t-5.5 -8q-2 -4 -5 -8t-6 -9t-6 -9t-7 -8q-3 -5 -6.5 -9t-7.5 -9t-7 -8.5t-8 -8.5l-15 -15q-5 -3 -8.5 -6.5t-7.5 -5.5q-4 -3 -7.5 -5.5t-7.5 -4.5q-7 -4 -14 -6 q-3 -2 -6 -2.5t-5 -1.5q-4 -1 -8 -1h-3h11q2 0 12 2q7 2 15 5l8 4t8 5q5 2 9 5.5t8 6.5q5 4 9 7.5t8 7.5t7.5 8t7.5 9t7.5 9t6.5 9q4 5 7 9t6 9t5.5 9t4.5 9q3 5 5 8.5t4 7.5t3.5 7.5t3.5 6.5q3 9 5 11z" />
</svg>