<svg version="1.1" xmlns="http://www.w3.org/2000/svg" xmlns:xlink="http://www.w3.org/1999/xlink">
	<path transform="scale(0.200, -0.200) translate(0, -750)" d="M564 337q6 12 19 9.5t24.5 -13t18.5 -24t2 -23.5q-4 -9 -16.5 -33.5t-31 -56.5t-41.5 -66.5t-48.5 -63.5t-52.5 -47.5t-53 -18.5q-59 0 -103 35t-76 90q-25 -27 -48 -50t-43 -39.5t-36.5 -26t-28.5 -9.5q-10 0 -24 7.5t-26.5 18.5t-21 23.5t-8.5 21.5t3 11.5t8 2.5t11 -2 t13 -2q35 0 77.5 32.5t87.5 83.5q-22 54 -36 110.5t-21 106.5q-9 -20 -19 -44.5t-20.5 -48t-20 -43.5t-15.5 -31q-4 -8 -14.5 -2.5t-20 16t-16 23.5t-3.5 21q2 5 10.5 24t20.5 45.5t26.5 56.5t28 56t24.5 45t17 24q2 2 3 2q12 0 26.5 -4.5t26.5 -12t20 -17.5t8 -21 q0 -67 9.5 -125.5t25.5 -107.5q43 56 83 115.5t72 108t54 80t28 31.5q7 0 14 -8t13 -20t9.5 -25.5t3.5 -24.5q0 -6 -21 -39.5t-55.5 -81.5t-78.5 -105t-89 -111q26 -51 55 -79t55 -28q16 0 35 16t38.5 41t38.5 55.5t35 58.5t27.5 50.5t16.5 32.5zM96 513l-1 -1 q-1 -1 -1.5 -2t-1.5 -2l-4 -6t-5 -8q-5 -9 -11.5 -21t-12.5 -24q-6 -13 -11.5 -25t-9.5 -21q-5 -11 -6 -16l-3 -6l1 1q2 2 3 4q3 6 9 15q5 8 11.5 20t12.5 24q6 13 11.5 25t9.5 22q4 9 6 15zM90 103q3 2 4.5 4.5t3.5 4.5l3 3l-4 -2q-2 -1 -4.5 -2.5t-5.5 -3.5t-6.5 -4.5 t-7.5 -4.5q-2 -2 -4 -2.5t-4 -2.5q-2 -1 -4.5 -2t-4.5 -2t-4.5 -2t-4.5 -2l-4 -2l-4 -2q-6 -2 -9 -2q-2 -1 -3.5 -1.5t-3.5 -1.5q-2 0 -3.5 -0.5t-3.5 -0.5q-2 -1 -5 -1q-2 -1 -3 -1h-1q0 -1 1 -1h3h13q5 0 8 1q3 0 9 2q5 2 9 3.5t9 3.5q8 4 18 10q4 3 7 6t6 5zM164 169 q1 2 4 5l2 2q-2 -1 -3 -2q-2 -1 -5 -4q-3 -2 -7 -5.5t-8 -8.5l-14 -14l-4 -6l-2 -2q1 0 2 1q3 3 6 5q3 3 7 6t8 8l7.5 7.5t6.5 7.5zM140 330q1 -4 3 -8q1 -2 1 -3q-1 1 -1 3t-0.5 4t-0.5 5q-2 5 -3 11.5t-3 14.5q-2 7 -3 14t-3 12q-1 2 -1 4t-1 4t-1 3v-3q0 -5 1 -9 q1 -10 5 -26q2 -8 3.5 -14.5t3.5 -11.5zM182 210q-5 11 -8.5 20.5t-7.5 18.5q-5 13 -8.5 23.5t-5.5 18.5q-2 4 -2.5 7t-1.5 5q-1 3 -1 4q0 -1 1 -4q1 -2 1 -5.5t2 -7.5q2 -8 4.5 -18.5t6.5 -24.5q6 -20 15 -42zM372 18q1 0 2 -0.5t2 -0.5h1h-1q-1 0 -2 0.5t-2 0.5q-2 1 -5 1 t-7 1q-2 1 -4.5 1t-4.5 1q-6 2 -10 3q-5 2 -11 4.5t-12 5.5q-10 5 -25 15q-6 5 -12 10.5t-13 10.5q-12 12 -23 26.5t-21 29.5q-4 8 -7 11q-1 -2 -5 -6l6 -9q10 -16 21.5 -30t24.5 -27q11 -11 26 -21q7 -5 13.5 -8t12.5 -6q4 -2 7 -3l6 -2l6 -2t5 -2q3 -1 6 -1t5 -1 q3 -1 9 -1q5 -1 12 -1zM472 133q2 2 3.5 4.5t2.5 4.5l2 4q-1 0 -1 -1q-1 -1 -1 -1.5t-1 -1.5q-1 -2 -2.5 -3.5t-3.5 -4.5l-5 -5t-5 -6l-12 -12l-12 -12l-11 -11l-10 -10q1 0 3 2q2 1 4 3t5 4q5 4 11.5 9.5t12.5 11.5q5 5 11 13q6 6 9 12zM506 204q3 5 5 10t4 8q2 4 4 6 q-1 -2 -4 -6q-5 -7 -11 -17q-3 -5 -7 -11l-8 -12q-5 -7 -9.5 -13.5t-9.5 -13.5t-9.5 -13.5t-9.5 -12.5q-11 -12 -18 -21l-8 -8q-3 -5 -6 -6l-6 -6q1 0 2 1l4 4q2 2 3.5 3t3.5 3t4 3.5t4 3.5l10 10t10 11t10 12.5t10 13.5l18 27q4 6 7.5 12.5t6.5 11.5z" />
</svg>