<svg version="1.1" xmlns="http://www.w3.org/2000/svg" xmlns:xlink="http://www.w3.org/1999/xlink">
	<path transform="scale(0.200, -0.200) translate(0, -750)" d="M535 339q5 9 18 6.5t25 -12t18.5 -24t-0.5 -29.5q-33 -65 -84.5 -137t-108.5 -145.5t-114.5 -146t-103 -138t-72.5 -121.5t-23 -97q1 -16 -13 -12t-31.5 17t-33 28.5t-15.5 23.5q-1 10 6.5 41.5t22 78t34 105.5t43 124.5t49.5 134t53 135.5q-32 -34 -62 -65t-55 -55 t-42.5 -38t-23.5 -14q-15 0 -33.5 10t-36 24t-29.5 30.5t-13 28.5q-2 25 11.5 69t36 95.5t50 105t53 97t46 71t28.5 27.5q10 0 20 -9t18.5 -21t14.5 -23.5t6 -17.5q0 -4 -13.5 -28t-34 -60t-44 -78.5t-43.5 -83t-33 -74t-11 -50.5q4 0 23.5 20.5t48.5 54t65 75.5t72.5 85 t70 82t59.5 67q17 29 30.5 45t22.5 16t23 -8t26.5 -19.5t20 -23.5t3.5 -20q-16 -18 -39.5 -56t-50 -88.5t-55 -109.5t-54 -119t-46.5 -118t-33 -105q32 39 71.5 82.5t82.5 97t88.5 119.5t90.5 150zM-10 296q-2 -5 -3 -8.5t-2 -5.5q-1 -3 -2 -5q1 2 3 5q2 2 3 5t3 8 q2 4 4.5 8.5t4.5 9.5t5 10.5t5 11.5q5 11 10 21.5t9 18.5q4 10 8 18q-1 -2 -3 -5q-2 -2 -3.5 -5.5t-3.5 -7.5t-5 -8.5t-5 -9.5t-5 -10.5t-5 -10.5q-3 -5 -5.5 -10.5t-4.5 -10.5l-4 -10t-4 -9zM-29 247q1 2 1 3t1 2q0 1 1 2q0 -1 -1 -2t-3 -5q-2 -3 -4.5 -7.5t-4.5 -10.5 q-2 -5 -5 -11.5t-6 -13.5q-3 -8 -5.5 -15.5t-5.5 -15.5l-2 -8l-2 -8t-2 -7.5t-2 -7.5q-2 -8 -2.5 -15t-1.5 -13v-20l2 -6v-2v2q0 1 -0.5 2.5t-0.5 3.5v8t2 11q1 6 2 13t3 15l3 15q2 4 2.5 8t2.5 8q2 8 5 15.5t5 14.5q3 8 5.5 14.5t4.5 12.5l4 10t4 8zM-6 265l9 18t10 21 t11 22t11 22l12 22l12 22q5 11 10 20.5t10 17.5q9 16 15 27q4 5 6 10l-2 -2q-1 -2 -2 -3.5t-3 -3.5q-3 -5 -7.5 -11.5t-9.5 -14.5q-10 -14 -23 -37l-12 -21q-3 -5 -6 -11t-6 -11q-6 -11 -11.5 -22.5t-10.5 -22.5q-3 -5 -5 -10.5t-4 -10.5t-4 -9.5t-4 -9.5q-4 -9 -6.5 -16.5 t-4.5 -12.5l-1.5 -4.5t-0.5 -3.5q-1 -2 -1 -3l5 10q2 5 5 12t8 16zM141 157q6 7 12.5 14.5t11.5 14.5q6 7 11 14t10 12q5 6 8.5 10.5t5.5 8.5q3 4 5 8q-2 -3 -6 -7q-3 -3 -6.5 -8t-8.5 -10q-9 -11 -21 -25.5t-25 -29.5q-7 -8 -13.5 -15t-12.5 -14t-12 -13l-11 -11t-9 -9.5 t-8 -7.5l-6 -6q1 0 2 1l2 2l3 3q3 2 8 6t10 9l24 24q6 7 12.5 14t13.5 15zM173 185q4 5 9 10t11 11.5t14 14.5t16.5 17t17.5 20v1q2 5 5 10.5t5 11.5l-15 -18q-9 -11 -17 -21t-15 -18q-7 -9 -12.5 -16t-9.5 -12q-2 -3 -4 -4.5t-3 -3.5q-2 -2 -2 -3zM90 -289q3 17 6 25 q2 5 3 10q-1 -5 -3 -10t-4.5 -10.5t-4.5 -13.5t-5 -16.5t-6 -18.5t-6 -19.5t-6 -20.5t-5.5 -21t-5.5 -20q-2 -10 -3.5 -19t-3.5 -17q-3 -15 -3 -26q0 -2 0.5 -3.5t0.5 -3.5l2 -2l-2 2v7q0 5 1 11.5t3 14.5q3 16 9 35q2 10 5 20t6 21t6 20.5t5 19.5q3 10 6 18.5t5 16.5z M171 44q5 13 9 24.5t8 22.5l15 45q-2 -5 -5 -12q-2 -6 -5 -14.5t-7 -18.5t-8.5 -21.5t-9.5 -24.5t-9.5 -26t-9.5 -27t-9.5 -27t-9.5 -27q-5 -13 -8.5 -24.5t-7.5 -21.5q-4 -11 -6.5 -19.5t-4.5 -14.5q-3 -7 -4 -12q0 1 1 3t1.5 4t2.5 5q4 12 12 33q8 20 17 46t19 54 q5 14 9.5 27t9.5 26zM412 125q4 6 5 8t2 3l-1 1q-1 -1 -2 -3q-2 -4 -6 -8q-3 -5 -8.5 -11.5t-11.5 -14.5q-14 -17 -31 -37.5t-36 -42.5q-18 -21 -36 -41t-32 -36q-14 -17 -21 -27q-4 -4 -6 -8q-1 -1 -1 -2t-1 -1h1q1 1 2 3t6 7q2 2 4.5 5t5.5 6t6.5 6t7.5 8q7 8 15.5 16 t17.5 18l18 20t19 21q9 11 18 21.5t17 21.5q5 5 8.5 10t7.5 10q3 5 6.5 9.5t6.5 9.5q6 8 11 15.5t8 12.5z" />
</svg>