<svg version="1.1" xmlns="http://www.w3.org/2000/svg" xmlns:xlink="http://www.w3.org/1999/xlink">
	<path transform="scale(0.200, -0.200) translate(0, -750)" d="M374 338q6 11 17 5.5t21.5 -18t17 -27t3.5 -20.5q-38 -77 -80.5 -137.5t-86.5 -112.5q0 -44 -17 -97.5t-44 -107t-61 -104t-68 -89t-65 -62t-52 -23.5q-11 0 -27.5 6t-32.5 16t-27.5 23t-11.5 28q0 48 28.5 97t74.5 103t104.5 114.5t118.5 131.5q-2 22 -8.5 30.5t-15 8.5 t-18 -7t-18.5 -17q-20 -35 -35 -57.5t-19 -22.5q-6 0 -18.5 6.5t-25.5 16t-23 20t-10 18.5q0 5 13 28.5t32.5 55.5t42 69.5t42 70.5t32.5 57t13 31q0 6 -15 13.5t-38 18.5q-13 -27 -26.5 -52.5t-25 -45.5t-19 -33.5t-9.5 -16.5q-5 -9 -14.5 -2t-18.5 20.5t-14.5 28 t-1.5 21.5q10 16 26 47.5t36 67.5q-36 21 -63.5 51t-27.5 72q0 47 18.5 95t45 87t54.5 63.5t48 24.5q10 0 27 -9t33.5 -23t28 -31.5t11.5 -35.5q0 -29 -8 -65.5t-21 -75.5t-30 -79t-34 -77q21 -9 42 -17t37.5 -19t27 -26t10.5 -36q0 -8 -6 -24.5t-16 -38.5t-23 -48.5 t-27 -53.5q14 -8 28.5 -22t26.5 -31q39 49 75 103t67 115zM175 701q-1 -5 -2 -10.5t-3 -11.5q-2 -11 -5 -22t-5 -19q-2 -5 -2.5 -8.5t-1.5 -5.5q-1 -3 -1 -5q1 2 2 5q1 2 2 5t3 8t3 9.5t3 9.5t3 11t3 11q2 6 2.5 12t2.5 11q1 5 1 10t1 10v14v5v-1q0 -1 -0.5 -2t-0.5 -2 q0 -2 -0.5 -5.5t-0.5 -8.5q-1 -5 -1.5 -9.5t-2.5 -10.5zM62 693q-3 -5 -4.5 -9t-3.5 -7q-2 -4 -2 -7l3 6q2 3 4 7t5 9t6.5 10t7.5 11q6 8 9 11l9 12q3 2 5.5 5t5.5 5q2 3 5 5.5t5 4.5q3 2 6 3.5t5 3.5q3 2 5.5 3t5.5 3l9 3q2 1 4 1t4 1h5q1 0 2 1h-2q-1 0 -2 -0.5t-3 -0.5 h-8q-2 -1 -5 -1.5t-5 -1.5q-3 -2 -5.5 -2.5t-5.5 -2.5l-6 -4l-6 -4q-3 -3 -11 -9q-4 -3 -10 -11q-4 -3 -10 -11l-9 -12q-4 -6 -7 -11.5t-6 -10.5zM5 485q2 -2 3.5 -3t2.5 -2t2 -1q-1 0 -2 1l-5 5q-1 1 -2 1.5t-2 2.5l-4 4q-1 2 -2 2.5t-2 2.5q-2 2 -4 6t-4 7.5t-4 7.5 q-2 3 -4 9q-2 3 -3 9q0 3 -2 9q0 2 -0.5 5t-0.5 5q-1 5 -1 10.5v10.5t0.5 10t1.5 10t1.5 10t2.5 10q1 5 2 9t3 9q1 5 2 8.5t3 7.5q1 7 5 14q1 4 3 10q1 3 3 7q1 1 1 2q0 -1 -1 -2q-2 -4 -3 -7l-5 -10q-1 -3 -2.5 -6t-2.5 -7q-2 -4 -3 -7.5t-3 -8.5t-3 -9t-2 -9q-2 -8 -4 -20 q-1 -5 -1.5 -10.5t-0.5 -10.5q-1 -5 -0.5 -10.5t0.5 -10.5q1 -3 1 -5.5t1 -4.5q0 -4 2 -10q1 -4 3 -10q2 -2 2 -4t2 -4q4 -9 9 -15q1 -2 2 -3t2 -3q2 -2 3 -2.5t2 -2.5q2 -1 2.5 -2t1.5 -2q2 -1 4 -3zM-19 541q-2 7 -2 15v17q0 8 0.5 16.5t1.5 14.5q0 3 0.5 6t0.5 5v4v-1 q0 -1 -0.5 -1.5t-0.5 -1.5q-1 -2 -3 -10q0 -5 -2 -15q-1 -5 -1 -8.5v-8.5v-9t1 -9q0 -6 2 -14q1 -4 2 -6l2 -4t1 -4q-1 2 -1 4t-0.5 4t-0.5 6zM68 473q18 34 35 70t30.5 70.5t21.5 65t8 54.5q0 18 -9 18q-13 0 -32.5 -20t-38 -51.5t-31.5 -69t-13 -72.5q0 -22 7.5 -37.5 t21.5 -27.5zM76 -79q-4 -4 -6 -8q-1 -2 -2 -3l10 10q5 4 10 9.5t10 11.5q6 7 10.5 12.5t8.5 10.5q4 6 6 8l3 3q-1 -1 -3 -2l-7 -7q-5 -5 -10 -10.5t-11 -11.5l-10 -12t-9 -11zM-53 -230l20 24t19 23q10 11 19 21.5t17 18.5q8 9 14 16.5t11 12.5q5 6 9 11q0 -1 -2 -3l-8 -8 q-5 -5 -11.5 -12t-14.5 -15q-4 -5 -8 -9.5t-9 -9.5t-9.5 -10t-9.5 -11q-10 -11 -20 -23l-20 -24q-5 -6 -9 -12.5t-9 -12.5q-5 -7 -9 -13l-8 -12l-3.5 -7t-3.5 -6q-3 -4 -7 -12l-6 -12l-2 -6l-2 -6q-4 -10 -6 -20q-2 -5 -2 -9t-1 -8q-1 -3 -0.5 -5.5t0.5 -4.5q-1 -2 -1 -3v-1 v1q0 1 0.5 1t0.5 2v4.5t1 5.5q1 4 1 7.5t2 8.5q3 10 7 21q1 3 5 11q2 3 3 5.5t3 5.5q1 4 2.5 6.5t3.5 5.5q2 4 4 7l4 6l8 12t9 13q5 6 9 12t9 13zM-13 -338q13 8 33.5 31t43 55t45 71t40.5 79q-53 -58 -95.5 -113.5t-66.5 -122.5z" />
</svg>