<svg version="1.1" xmlns="http://www.w3.org/2000/svg" xmlns:xlink="http://www.w3.org/1999/xlink">
	<path transform="scale(0.200, -0.200) translate(0, -750)" d="M688 803q4 0 10.5 -10.5t12.5 -23.5t10 -25.5t4 -16.5q0 -2 -13.5 -34.5t-36 -83.5t-51 -116t-59 -132t-60 -131.5t-53 -114.5t-39 -80.5t-18.5 -30.5q-5 0 -16 8t-22 18.5t-19.5 21t-8.5 14.5q0 1 6.5 15.5t17.5 38t26 55.5t32 68q-30 -1 -64 -3t-69 -5t-70 -6.5 t-67 -6.5q-39 -48 -69.5 -88t-51.5 -69t-33 -45t-15 -16q-5 0 -14.5 8.5t-18.5 20.5t-15.5 24t-6.5 19q0 11 24 46t65 85q-11 -1 -17.5 -1.5t-7.5 -0.5q-1 1 -2 11.5t-1.5 23.5t0 24.5t3.5 14.5q2 2 30 7.5t73 11.5q45 51 97.5 106.5t107 109t108.5 103.5t102.5 89.5 t89 66.5t68.5 35q7 0 9 -4q1 -2 0 -4q3 0 7 1q8 2 15 2zM504 694q-4 -3 -6 -5l-4 -4l-4 -4q1 1 4 3q2 2 4.5 4t6.5 5q7 5 15 11t17 14q5 3 9 6.5t8 6.5q5 3 8.5 6t6.5 5q4 2 6.5 4t4.5 4q1 1 1.5 1t1.5 1q1 0 1 1q-1 -1 -4 -2q-2 -2 -5 -3.5l-7 -3.5t-7.5 -4.5t-8.5 -5.5 q-4 -4 -8 -7t-9 -6q-5 -4 -9 -7.5t-8 -6.5q-4 -4 -7.5 -7t-6.5 -6zM258 457q14 14 29 28.5t30 28.5q31 29 59.5 57t51.5 51q11 11 20.5 20t16.5 15l14 14q-1 -1 -4 -3q-6 -4 -11 -9q-7 -7 -17 -15t-21 -19q-12 -11 -26 -23t-28 -26t-29 -28t-31 -28l-59 -59l-13.5 -13.5 t-12.5 -13.5t-12 -13t-11 -12q-6 -6 -10.5 -11t-9.5 -10q-8 -11 -14 -17l-12 -15q1 2 3 4t4.5 4t5.5 6l36 36zM340 310q14 1 27 2t24 2l24 2h-7h-17h-24q-6 -1 -13 -1t-14 -1q-8 -1 -14.5 -1.5t-13.5 -0.5q-6 -1 -12.5 -1.5t-11.5 -1.5t-9.5 -1.5t-7.5 -0.5q-4 -1 -6 -1h7 h7.5t9.5 1q5 0 11 0.5t13 0.5q6 1 13 1.5t14 0.5zM395 67q0 1 1 3t1.5 4t2.5 5q3 5 6 12t6 15t5.5 15.5l4.5 13.5q1 2 1.5 4.5t1.5 4.5t1 4l-2 -4l-2 -4t-2 -5q-3 -5 -6 -12t-6 -15t-5.5 -15.5t-4.5 -12.5q-2 -8 -2 -10q-1 -2 -1 -3zM516 310q1 2 2 4.5t2 4.5t1 3l-6 -12 q-6 -11 -15 -30q-5 -10 -10 -20.5t-10 -22.5t-11 -24.5t-11 -25.5t-10.5 -25.5t-10.5 -24.5t-9.5 -23t-8.5 -21q-5 -10 -8 -18t-5 -13l-3 -9q-1 -2 -1 -3q0 1 1 3t2 3.5l3 4.5q2 5 6 13t9 17q8 20 20 43q5 12 10.5 24.5t11.5 25.5q5 13 10.5 25.5t10.5 24.5t9.5 23.5 t8.5 20.5q4 10 7 18t5 14zM454 333q28 58 56 116.5t50 106.5t35.5 79t13.5 36q-120 -88 -217 -179.5t-172 -176.5q61 7 122 11.5t112 6.5zM589 737q11 8 19.5 15.5t14.5 12.5q7 6 13 10l-4 -2q-2 -2 -4.5 -3.5t-5.5 -3.5q-7 -5 -16 -11.5t-20 -14.5t-23.5 -17.5t-25.5 -20.5 q-14 -11 -28 -22.5t-28 -22.5q-7 -6 -13.5 -12t-13.5 -13q-7 -6 -13.5 -11.5t-12.5 -11.5l-12 -12t-12 -11q-5 -6 -10 -11.5t-10 -10.5q-10 -10 -17.5 -18t-12.5 -14q-3 -3 -4.5 -5.5t-3.5 -4.5l-3 -3l3 3l9 9q3 2 6 5.5t8 7.5q4 4 8.5 8t9.5 9t10.5 10t10.5 11q6 5 12 10.5 t13 11.5q6 6 12.5 11.5t13.5 11.5l27 24q14 12 27.5 23.5t27.5 22.5q13 11 25 21t23 19z" />
</svg>