<svg version="1.1" xmlns="http://www.w3.org/2000/svg" xmlns:xlink="http://www.w3.org/1999/xlink">
	<path transform="scale(0.200, -0.200) translate(0, -750)" d="M556 617q0 -42 -14.5 -75.5t-39.5 -59t-57 -43.5t-67 -31q48 -14 77.5 -54.5t29.5 -126.5q0 -40 -18 -72.5t-46 -58t-62 -43.5t-65.5 -29.5t-57 -17t-35.5 -5.5q-30 0 -48 11.5t-27 27.5t-11.5 32t-2.5 24t4 7.5t11.5 -5t18 -9.5t23.5 -5q25 0 55 8.5t60.5 22.5 t59.5 32.5t51 38.5t35.5 39.5t13.5 36.5q0 19 -16.5 34.5t-44 26.5t-62.5 17t-72 6q-18 0 -35 -3t-31 -6.5t-24.5 -6.5t-14.5 -3t-8.5 9.5t-8.5 20.5q-33 -71 -55 -129t-22 -87q0 -15 2.5 -29t4 -24.5t1 -17t-6.5 -6.5q-5 0 -17 8.5t-24 24.5t-21.5 40t-9.5 54q0 32 21 90 t52.5 126.5t69.5 140t71 130.5q-44 -11 -55 -11q-8 0 -12.5 12t-7 28t-3.5 30.5t-1 19.5q0 2 12.5 6t33.5 9.5t47.5 10.5t53.5 10q17 27 20 27q7 0 15 -5.5t16 -13.5q28 3 50 3q29 0 63 -8t63 -28.5t48.5 -57t19.5 -93.5zM42 343q1 2 1 3.5t1 3.5q0 2 1 3q0 -1 -1 -3 q-2 -4 -3 -7l-12 -24q-7 -16 -15.5 -36t-14.5 -42q-1 -5 -2 -11t-2 -11q-2 -6 -2 -11.5t-1 -10.5v-11q1 -3 1 -10q1 -5 1.5 -9.5t2.5 -8.5q1 -8 5 -15l2 -6t2 -5q2 -6 3 -7l1 -2l-3 9q-3 10 -6 27q-1 4 -1 8.5t-1 9.5v9v10l3 21q1 6 2 11.5t3 10.5l6 21q2 5 3.5 10.5 t3.5 10.5q4 10 7 19t6 17t5 14.5t4 11.5zM244 64q4 1 7.5 2.5t5.5 2.5q3 1 5 2q-2 0 -5 -1q-2 -1 -5.5 -2t-7.5 -2q-8 -2 -19 -3.5t-22 -2.5q-5 -1 -10.5 -1h-10.5h-10q-4 1 -9 1q-3 1 -8 1q-2 1 -3 1t-3 1h-4q-1 0 -1 1q0 -1 1 -1t1.5 -0.5t2.5 -0.5q2 -1 3 -1t3 -1t3.5 -1 t3.5 -1t4.5 -1t4.5 -1h10q6 -1 11.5 -0.5t11.5 0.5q5 1 10.5 1.5t10.5 1.5q5 2 10 3t9 2zM402 170q2 2 3 3.5t2 2.5l2 2l-7 -7q-4 -3 -9 -7.5t-12 -9.5q-3 -2 -6 -4.5t-7 -5.5t-8 -5.5t-8 -5.5q-5 -3 -9 -6t-9 -5q-5 -3 -9 -6t-9 -5t-9.5 -5t-9.5 -5t-9.5 -4t-9.5 -4 t-9.5 -4t-8.5 -4q-5 -2 -9 -3l-8 -2q-4 -2 -7.5 -2.5t-6.5 -2.5q-3 -1 -6 -1t-5 -1q-6 -2 -7 -2h-3h3q4 0 7 1q2 1 5 1t6 1q10 2 15 4l8 2t9 3l18 6q5 2 9.5 4.5t9.5 4.5q11 5 19 10q5 2 9.5 5t9.5 6q5 2 9 5t9 6l15 12q4 3 7.5 5.5t6.5 5.5q6 5 11 9.5t8 7.5zM362 785 q-2 0 -3 -0.5t-2 -0.5h-2h7q3 0 8 -0.5t10 -1.5q3 0 6 -0.5t6 -0.5q8 -2 14 -2q7 -2 14 -3.5t14 -4.5q7 -1 14 -5q5 -2 13 -6q4 -2 6.5 -3.5t5.5 -3.5q6 -3 10 -7q9 -6 14 -11q1 -2 2 -2.5t2 -1.5l1 -1l-1 1q-2 2 -3 4q-2 2 -5 5.5t-8 7.5q-2 2 -5 4t-5 4q-3 2 -6 3.5 t-6 3.5t-6.5 3t-6.5 3l-15 6q-7 2 -14 3.5t-15 3.5q-4 1 -7 1t-6 1q-4 0 -7 0.5t-6 0.5h-18zM344 771q-6 -2 -7 -2q-2 -1 -3 -1h10q10 2 21 0h22h9q-1 1 -2 1q-4 0 -7 1q-5 1 -10.5 1.5t-11.5 0.5h-11t-10 -1zM174 456q81 6 146 27t110 48.5t69 57t24 53.5q0 21 -19 34 t-45 20.5t-54 10.5t-46 3q-21 0 -58 -8q-24 -45 -58 -110t-69 -136z" />
</svg>