<svg version="1.1" xmlns="http://www.w3.org/2000/svg" xmlns:xlink="http://www.w3.org/1999/xlink">
	<path transform="scale(0.200, -0.200) translate(0, -750)" d="M526 375q3 9 14.5 12t24 -1t21 -15t4.5 -29q-5 -26 -25.5 -61.5t-51.5 -73.5t-71 -75t-85 -66.5t-92.5 -47.5t-94.5 -18q-23 0 -52.5 17.5t-55.5 47.5t-44 69.5t-18 82.5q0 47 18.5 109t49 127.5t70 129t82.5 113.5t86 81t80 31q17 0 36 -14t35 -34t26.5 -44t10.5 -43 q0 -27 -9 -66t-20.5 -74.5t-23 -60.5t-16.5 -25t-16 7.5t-22.5 17t-20.5 19.5t-9 16q0 4 7 21.5t16.5 42t19 51.5t14.5 50t2.5 38t-16.5 15q-20 0 -51.5 -30t-68 -78t-73 -108.5t-66.5 -121.5t-48.5 -116.5t-18.5 -93.5q0 -20 0.5 -37.5t6.5 -30t20 -20t40 -7.5 q48 0 93.5 16t86 41.5t76 57.5t62 64.5t44 62.5t23.5 51zM37 307q2 5 3.5 11t3.5 12l4 12t4 13q9 23 20 49q3 7 6 13t6 13l6 12t6 13q13 25 26.5 48.5t27.5 46.5q7 11 13.5 22t12.5 21q7 11 13 20l12 18q12 17 21.5 31t17.5 24q7 9 12 15q3 4 4 6l-5 -5q-2 -2 -5 -6t-7 -9 q-8 -10 -18.5 -23.5t-22.5 -30.5q-6 -8 -12.5 -17.5t-13.5 -19.5t-14 -20.5t-14 -21.5q-29 -45 -54 -96q-14 -26 -24 -51q-5 -13 -10 -25.5t-10 -24.5q-2 -7 -4 -13l-4 -12l-6 -24l-3 -12q-1 -2 -1 -5t-1 -6t-1 -5.5t-1 -5.5t-1 -5.5t-1 -5.5q0 -2 -0.5 -5t-0.5 -5 q0 -7 -1 -10q0 -5 -0.5 -9t0.5 -9v-16q0 -4 0.5 -7.5t0.5 -6.5q0 -4 1 -5v-6q2 -6 2 -7q0 -2 0.5 -3t0.5 -2v-2v2q0 1 -0.5 2t-0.5 3q0 4 -1 8v10q-1 5 -1 14v16q0 4 0.5 8.5t1.5 9.5q0 2 0.5 4.5t0.5 5.5q1 2 1 4.5t1 5.5q0 2 0.5 5t0.5 5q1 3 1.5 5.5t1.5 5.5t1 5.5t1 5.5 zM57 323q3 10 6.5 20.5t8.5 21.5q4 11 8 21l8 20q5 10 8.5 19t7.5 17l12 24l5 10q-2 -4 -5 -9q-2 -5 -6 -11t-8 -14t-8 -16.5t-9 -18.5l-8 -20t-9 -21q-8 -22 -14 -42q-2 -5 -3 -10l-2 -10q-2 -5 -2.5 -9t-1.5 -9q-2 -9 -3 -15q-1 -5 -1 -12q-1 -4 -1 -8v-3v3q0 4 1 8 q1 2 1 5t1 6q1 4 2 7.5t2 7.5q1 5 2 9t2 9q2 5 3 10t3 10z" />
</svg>