<svg version="1.1" xmlns="http://www.w3.org/2000/svg" xmlns:xlink="http://www.w3.org/1999/xlink">
	<path transform="scale(0.200, -0.200) translate(0, -750)" d="M420 807q52 0 94.5 -17t73 -52t47 -89t16.5 -129q0 -64 -29 -127.5t-75 -121.5t-103.5 -108.5t-114.5 -87t-107.5 -57.5t-83.5 -21q-11 0 -26 8.5t-29 20.5q2 -11 1 -17.5t-7 -6.5q-7 0 -20 7.5t-25.5 23t-22 39t-9.5 56.5q0 28 12 68t32 88t46 100.5t54.5 105t57 102.5 t54.5 92q-32 -11 -54.5 -19t-30.5 -8q-9 0 -16.5 9.5t-13.5 21.5t-9.5 24.5t-3.5 18.5q0 4 16.5 13t44 19.5t64 20t76.5 15.5q13 21 15 21q15 0 32 -15q11 1 22 1.5t22 0.5zM168 470q-4 -8 -9 -16.5t-10 -18.5l-10 -20t-10 -21t-9.5 -21t-9.5 -20t-8.5 -19t-7.5 -17 q-3 -8 -5.5 -15t-4.5 -12q-2 -6 -2 -7q-1 -2 -1 -3q1 5 4 10q2 5 4.5 11.5t6.5 14.5t8 17t9 19q9 20 20 40q10 21 19.5 40.5t17.5 35.5q9 18 17 35q-2 -4 -5 -9q-2 -5 -6 -10.5t-8 -13.5zM31 196q5 17 10.5 34t12.5 34t13.5 33.5t14.5 32.5q7 16 13.5 30t11.5 27 q6 12 10.5 22t8.5 18q4 9 8 15q-1 -2 -3 -4t-6 -10t-9.5 -17.5t-11.5 -21.5q-7 -12 -14 -26t-14 -30q-8 -16 -15 -32.5t-14 -33.5t-12.5 -34.5t-10.5 -34.5l-2 -8l-2 -8q-2 -10 -4 -16q-1 -8 -2 -15t-2 -15q-2 -29 3 -44q1 -3 3 -7q0 -2 1 -2.5t1 -2.5l2 -2v-1v1q0 1 -0.5 1 t-0.5 2q-2 2 -2 5q-2 2 -2 6q-1 5 -1.5 9.5t-0.5 9.5q0 6 0.5 12t1.5 13l2 14t3 15q3 17 9 31zM87 66q34 0 85 21.5t107.5 58t112.5 86.5t101.5 106.5t73.5 117.5t28 120q0 42 -13.5 69.5t-37 44t-55 23.5t-67.5 7q-8 0 -16.5 -0.5t-17.5 -1.5q-20 -29 -50.5 -77t-65 -105.5 t-69.5 -120t-63.5 -122.5t-46 -112.5t-17.5 -88.5v-13t1 -11q6 -2 10 -2zM441 235q2 3 4.5 5.5l4.5 4.5t3 4l-4 -4q-3 -2 -10 -9l-28 -28q-8 -8 -15.5 -15t-13.5 -12q-7 -7 -10 -9q-2 -2 -3 -2l-1 -1l1 1l4 2q2 1 4.5 3t6.5 4q8 6 14 12q4 3 7.5 6.5t8.5 7.5q8 8 15 15.5 t12 14.5zM510 341q6 8 7 9l2 4q-4 -6 -9 -13q-5 -6 -12 -14.5t-15 -18.5t-18 -21t-21 -23l-24 -24l-6 -6t-7 -6l-13 -11q-6 -6 -12.5 -11.5t-13.5 -11.5q-7 -5 -13.5 -10t-12.5 -10q-7 -5 -13.5 -9.5t-12.5 -8.5l-12 -9q-3 -2 -6 -3.5t-5 -3.5q-6 -3 -10.5 -6.5t-9.5 -6.5 q-9 -4 -16 -9l-6 -3l-4 -2l-4 -2l4 2l4 2l6 3l16 8l10 6t11 6q3 2 6 3.5t6 3.5l6 4l6 4q6 5 12.5 9t13.5 9q6 5 13 10t13 11q7 5 13.5 10.5t13.5 11.5l13 12l12 12q7 6 12.5 12t11.5 12q22 24 39 45q8 11 14 19.5t11 14.5z" />
</svg>