<svg version="1.1" xmlns="http://www.w3.org/2000/svg" xmlns:xlink="http://www.w3.org/1999/xlink">
	<path transform="scale(0.200, -0.200) translate(0, -750)" d="M668 793q2 -2 1.5 -16t-3.5 -30t-7 -28.5t-9 -12.5t-35.5 1.5t-76 3t-99.5 2t-106 -2.5q-26 -54 -52.5 -113t-51.5 -121q22 -1 54 -1.5t62 -1t53 -1t26 -0.5q9 0 13 -3t2 -14q0 -5 -1.5 -13.5l-3 -17t-4 -16.5t-4.5 -11q-4 -7 -6 -10t-15 -3q-5 0 -29.5 0.5t-56.5 0.5 h-66.5h-59.5q-32 -81 -59.5 -155t-47.5 -129q24 1 56 1t65.5 -0.5t66 -1t57.5 -0.5q59 0 97.5 -5t41.5 -12q1 -3 0.5 -17t-2 -29t-5 -27.5t-8.5 -12.5t-33.5 2t-68 5t-82.5 5t-77 2q-35 0 -73.5 -1t-70.5 -3q-3 -15 -6 -15q-7 0 -38 13h-18.5t-9.5 2q-3 3 -1 20q-7 10 -7 17 q0 5 13 41.5t35 92t50 125t57.5 140.5t58 138t51.5 119q-18 -2 -27.5 4.5t-10.5 31.5q-1 18 -3 27.5t-3.5 14.5t-1 7.5t5.5 7.5q2 2 26 3t62 2q7 10 8 10q9 0 19 -10q35 0 74.5 0.5t79 0t76 -1t64.5 -1t45.5 -1.5t18.5 -2zM22 139q1 4 2 7t2 5q1 3 1 4q-1 -1 -2 -4l-2.5 -5 t-3.5 -6q-3 -7 -6.5 -15.5t-6.5 -17.5q-4 -9 -5.5 -18t-3.5 -16q-2 -4 -2 -7t-1 -5q-1 -3 -1 -4q0 1 1 4q1 2 2 4.5t3 6.5q3 14 11 33q3 10 6 18.5t6 15.5zM168 21q-3 -1 -7 -1q-2 0 -2 -1h9h24q8 0 16 -0.5t18 -0.5q9 0 18.5 -0.5t19.5 -0.5q10 -1 20 -1t19 -1 q9 0 17.5 -0.5t16.5 -0.5h13.5t10.5 -1h9q-1 1 -2 1q-4 0 -7 1q-9 1 -24 3q-8 2 -16 2.5t-18 1.5q-9 1 -18.5 1.5t-19.5 0.5q-11 1 -20.5 1h-18.5q-10 0 -18 -0.5t-16 -1.5q-14 0 -24 -2zM149 427q1 4 2 7t2 5q1 3 1 5q-1 -1 -2 -4q-1 -2 -2 -5t-3 -7q-3 -7 -7 -16t-8 -19 t-7.5 -19t-5.5 -17q-2 -4 -3 -7t-2 -5q-1 -3 -1 -5l8 16q3 7 7 16t8 19t7.5 19t5.5 17zM238 669q1 4 2 7.5t2 5.5q1 3 1 5q-1 -1 -2 -4q-1 -2 -2.5 -5.5t-3.5 -7.5q-3 -8 -8 -19.5t-12 -25.5q-6 -14 -13 -30t-15 -33t-15.5 -35.5t-15.5 -37.5t-15.5 -38t-14.5 -36 q-7 -18 -13.5 -34.5t-12.5 -30.5q-5 -14 -9 -26t-7 -20l-6 -18q13 29 27 62q12 28 27 64t31 74q7 19 14.5 37.5t15.5 35.5q8 18 14 34t12 30t10.5 26t8.5 20zM569 775q3 0 6 1h-6q-3 0 -6 0.5t-8 0.5t-9.5 0.5t-10.5 0.5h-23h-23q-5 0 -10 -0.5t-10 -0.5t-8.5 -0.5 t-5.5 -0.5h-5q2 -1 5 -1h14h10t10 -1h23h23q5 0 10 0.5t10 0.5h14zM650 785q2 0 3 -0.5t2 -0.5h2q-1 1 -2 1q-3 0 -5 1q-4 0 -9.5 0.5t-11.5 1.5q-7 0 -14.5 0.5t-15.5 0.5q-8 1 -16.5 1h-16.5h-17.5t-16.5 1q-8 0 -15.5 -0.5t-14.5 -0.5t-11.5 -0.5t-8.5 -0.5h-8h8 q4 0 8.5 -0.5t11.5 -0.5t14.5 -0.5t15.5 -0.5h16.5t17.5 -1h63q6 -1 11.5 -1h9.5z" />
</svg>