<svg version="1.1" xmlns="http://www.w3.org/2000/svg" xmlns:xlink="http://www.w3.org/1999/xlink">
	<path transform="scale(0.200, -0.200) translate(0, -750)" d="M752 785q5 -5 7 -20t1.5 -30.5t-3.5 -28t-7 -12.5q-9 0 -49 6t-119 6q-81 0 -143.5 -1t-107.5 -3q-15 -42 -38 -102t-49 -129q19 0 42 0.5t43.5 0.5t35 -0.5t16.5 -1.5q2 -2 1.5 -12.5t-3 -23t-7.5 -24.5t-11 -16q-5 -3 -21.5 -5t-38.5 -3t-46.5 -1h-44.5 q-29 -73 -56.5 -143t-49.5 -125t-36.5 -88.5t-16.5 -33.5q-4 0 -16.5 6.5t-26 15.5t-24 18t-10.5 13q0 1 13 34.5t34.5 87t49 122.5t56.5 141t57.5 141t51.5 125q-18 0 -20 2t-3.5 16t-1.5 30.5t1 31t4 17.5q2 2 18.5 2.5t44.5 1.5q7 14 11 22.5t6 8.5q5 0 15.5 -9.5 t20.5 -21.5q39 0 84.5 -0.5t91.5 -1.5t89 -2t76.5 -3t55 -4t23.5 -4zM0 76q-1 -2 -1 -5v-2l3 6q2 4 3.5 7.5t3.5 8.5q2 4 2.5 8t1.5 8q2 4 2 5v2q0 -1 -1 -2t-3 -5q-3 -6 -6 -15q-2 -5 -3 -8.5t-2 -7.5zM34 120q6 16 11 30.5t9 25.5q2 6 3 10.5t2 8.5q2 4 2 5v2l-3 -6 q-2 -4 -4 -8.5t-4 -9.5q-5 -11 -11 -25.5t-12 -29.5q-5 -15 -10 -29.5t-9 -26.5q-2 -5 -3 -10t-3 -8q-1 -3 -1 -5q0 -1 -1 -2l1 1q1 1 3 5q2 3 4 8l4 10q5 11 11 25t11 29zM80 204q2 8 3 11t1 4l-2 -4q-1 -2 -2 -4.5t-2 -5.5q-3 -7 -6 -15l-6 -16q-3 -9 -5.5 -17t-4.5 -15 q-2 -3 -2 -5.5t-1 -4.5q-1 -3 -1 -4q0 2 1 4l2 4l3 6q2 6 5 14l6 16q3 9 6 17t5 15zM214 573q5 11 8 20.5t6 16.5q3 8 6 14q-2 -6 -6 -14q-3 -7 -7 -16t-9 -20t-10 -24.5t-11 -27.5t-12 -29l-12 -30l-12 -30t-12 -29q-5 -14 -10 -27.5t-10 -24.5q-10 -25 -14 -37 q-3 -8 -5 -14q2 6 6 14q3 7 6.5 16t8.5 20t10 24.5t11 27.5t12 29l12 30q7 15 13 30t11 29q6 14 10.5 27.5t9.5 24.5z" />
</svg>