<svg version="1.1" xmlns="http://www.w3.org/2000/svg" xmlns:xlink="http://www.w3.org/1999/xlink">
	<path transform="scale(0.200, -0.200) translate(0, -750)" d="M649 390q8 -6 4.5 -18t-17 -24t-36 -21t-51.5 -9q-8 -1 -16.5 -1t-17.5 -1q-10 -23 -28.5 -56t-43.5 -68.5t-56 -70.5t-66 -63t-73.5 -45t-78.5 -17q-23 0 -52.5 14.5t-55.5 44.5t-43.5 75t-17.5 106q0 49 25.5 111t67 126t93.5 125t105 109t102 77t85 29q32 0 53 -13 t34 -31.5t18 -40.5t5 -40t-9.5 -44.5t-22 -51.5t-24 -42.5t-15.5 -17.5q-5 0 -13.5 4.5t-16.5 12t-14.5 17t-6.5 19.5q0 12 11 33t20.5 41t10.5 34.5t-20 14.5q-36 0 -80.5 -26.5t-89.5 -70.5t-87 -101t-74.5 -118t-52.5 -121t-20 -111q0 -16 2 -30.5t9.5 -25.5t22.5 -17.5 t42 -6.5q48 0 86.5 23t69.5 57t53.5 72t37.5 67q-30 -5 -45 -5.5t-26 -0.5t-19 13.5t-13 31t-7.5 34.5t-2.5 25q0 3 25 5t62.5 2.5t82 0t84 -2.5t68 -5t33.5 -7zM561 635q-2 -5 -4 -11q-1 -3 -2 -5q0 1 2 4l2.5 5l3.5 7q2 3 3.5 7t3.5 9q4 11 5 20q1 2 1 5t1 5v10v10 q-1 3 -1 8q-1 5 -2 8t-2 5l-2 4v-1q0 -1 0.5 -2t0.5 -2q1 -1 1 -2t1 -3v-7q1 -2 1 -8v-9q0 -3 -0.5 -5.5t-0.5 -4.5q0 -4 -2 -10q-1 -5 -1.5 -10t-2.5 -10t-3 -9t-3 -8zM360 726q2 2 4.5 4t4.5 4l3 3l-4 -2q-2 -2 -4.5 -3.5t-4.5 -3.5q-6 -5 -13 -10.5t-14 -11.5 q-8 -6 -15 -12t-12 -11l-11 -11q1 0 3 2q2 1 10 7q5 5 12 10.5t15 11.5t14.5 12t11.5 11zM255 650q-2 -3 -4 -4.5t-3 -3.5q-2 -2 -2 -3q0 1 2 3q4 4 8 7q5 5 12.5 11.5t15.5 14.5q5 4 9.5 8t9.5 9t10.5 9t10.5 9t11 9.5t12 9.5t12 9.5t13 8.5l13 9q3 2 6 4.5t7 4.5l6 4t7 4 q3 2 6 3.5l7 3.5l12 6q5 1 13 5q3 2 6 2t6 2q8 2 12 2q3 1 5.5 1.5t5.5 0.5h10q2 1 4 0.5t4 -0.5q3 -1 8 -1q3 -2 5.5 -2t4.5 -1t4 -1h-1q-2 0 -3 1l-4 2t-6 2q-2 1 -3.5 1t-3.5 1q-2 0 -4.5 0.5t-4.5 0.5q-7 0 -10 1q-3 0 -6 -0.5t-6 -0.5l-12 -3q-3 -1 -6.5 -1t-6.5 -2 q-3 -1 -6.5 -2t-6.5 -2q-3 -2 -6.5 -3t-6.5 -3l-7 -3.5l-7 -3.5q-3 -2 -6.5 -4t-6.5 -4q-4 -2 -7 -4t-7 -4l-12 -9q-7 -5 -13 -9.5t-12 -9.5l-12 -10t-11 -10q-6 -5 -11 -9.5t-10 -9.5l-9.5 -9.5l-8.5 -8.5q-8 -8 -14.5 -15.5t-11.5 -12.5zM52 370q2 5 5 10t5 10q9 19 15 30 q4 6 5 8t2 2q-1 0 -2 -2t-5 -8q-8 -12 -17 -29q-5 -9 -10 -19.5t-10 -23.5q-3 -6 -5 -12t-4 -13q-2 -6 -4 -12.5t-4 -13.5t-3 -13.5t-2 -13.5t-2 -13.5t-1 -13.5q-1 -6 -1 -12.5v-12.5q1 -5 1 -11t1 -11q1 -11 3 -18q1 -9 3 -15q1 -3 1 -5t1 -4q0 -2 1 -3q-1 1 -1 3 t-0.5 4.5t-0.5 5.5q-1 3 -1.5 6t-1.5 8q-1 4 -1 8.5t-1 9.5t-1 11v12q0 5 0.5 11.5t0.5 12.5q1 7 1.5 13t1.5 13t2.5 13.5t3.5 13.5t3.5 13.5t3.5 12.5q2 7 4.5 13t4.5 12t4.5 12t4.5 11zM247 23q1 1 2 1t2 1q1 0 2 1q-1 -1 -2 -1t-2 -0.5t-3 -0.5q-7 -3 -16 -6 q-13 -4 -24 -5q-3 -1 -6.5 -1t-7.5 -1q-3 0 -6.5 -0.5t-7.5 0.5q-4 -1 -7 -0.5t-7 0.5q-4 1 -7 1t-7 1l-12 3q-8 2 -11 3q-3 2 -9 4q-3 1 -7 3l-6 3l1 -1q1 -1 5 -3q1 -1 2.5 -1.5t3.5 -1.5q2 -2 4.5 -2.5t4.5 -2.5q3 -1 5.5 -2t5.5 -2q8 -2 13 -3q4 -1 14 -3h14q10 0 15 1 q4 0 14 2q3 0 6 1l6 2q8 2 11 3q5 2 9.5 3.5t7.5 3.5zM317 79q0 -1 -1 -1t-1.5 -0.5t-1.5 -0.5q-2 -2 -10 -8q-7 -4 -15.5 -8.5t-17.5 -9.5q-10 -5 -19 -9t-16 -7q-4 -2 -7 -2.5t-5 -1.5q-3 -1 -4 -2q2 0 5 1q2 1 5 1t7 2t7.5 3t8.5 3t9.5 4.5t9.5 4.5q12 5 18 10q5 2 8.5 5 t6.5 5q8 6 10 8zM636 381q-1 0 -4 1t-11 3t-16.5 3t-18.5 1q-19 2 -34 0q-5 -1 -11 -1q-3 0 -5 -1q2 -1 5 -1q2 0 4.5 -0.5t6.5 -0.5q7 -1 16 -2t18 -1q9 -1 18 -1h16h16z" />
</svg>