<svg version="1.1" xmlns="http://www.w3.org/2000/svg" xmlns:xlink="http://www.w3.org/1999/xlink">
	<path transform="scale(0.200, -0.200) translate(0, -750)" d="M634 805q3 4 14.5 -6t24.5 -24.5t22.5 -28t8.5 -16.5q-1 -1 -14.5 -33t-35 -83.5t-49 -116.5t-56.5 -132.5t-57 -132.5t-50 -116t-35.5 -82.5t-14.5 -32.5q-3 -3 -16 5.5t-27.5 20.5t-25 23t-7.5 13q2 1 14.5 28.5t32.5 73t45 104.5t52 122q-20 -2 -48.5 -5.5t-61.5 -7 t-68.5 -7.5t-68.5 -7q-32 -66 -61.5 -129.5t-53 -113t-38 -80t-15.5 -31.5q-3 -3 -16 6t-27.5 21t-25 22.5t-7.5 12.5q1 1 12.5 24t30 61.5t42.5 89t50 106.5q-31 -2 -32 -1q-2 1 -2 14.5v29t1 28.5t3 15t22 3.5t52 4.5q31 67 61 131t53.5 114.5t38 81.5l14.5 31 q3 4 14.5 -6t24.5 -24.5t23 -28t9 -16.5q-1 -1 -11.5 -24t-28.5 -60.5t-41.5 -87t-48.5 -104.5q35 2 70.5 4.5t67.5 4t57.5 3t39.5 2.5q28 65 53.5 125.5t45.5 107.5t32 75.5zM73 240l9 18t12 23q6 14 13 28.5t15 31.5q2 4 3.5 7.5t3.5 7.5q-6 0 -8 -1q-4 -8 -5 -11 q-16 -35 -26 -61q-6 -13 -10.5 -24t-8.5 -19q-2 -4 -2.5 -7t-1.5 -5q-1 -3 -2 -4zM131 340q2 5 3.5 9t3.5 8h-3q-2 -4 -3.5 -7.5t-3.5 -8.5q-3 -6 -6 -12.5t-7 -13.5q-3 -8 -6 -14.5t-5 -13.5l-6 -12t-5 -11t-3.5 -9.5t-3.5 -7.5q-2 -4 -3 -7l3 6q2 3 4 7.5t5 9.5t6 10.5 t6 12.5q4 13 12 27zM228 581q2 4 3 7t2 5q1 3 2 4l-2 -4q-1 -2 -2.5 -4.5t-3.5 -6.5q-4 -8 -9 -18.5t-11 -23.5q-7 -13 -14 -28t-15 -31q-4 -8 -7.5 -16.5t-7.5 -17.5q2 0 4 0.5t4 0.5q3 8 6.5 15t6.5 15q8 17 14.5 31.5t12.5 28.5t10 24.5t7 18.5zM435 399q5 1 8 1.5t6 1.5 t6 1h-6q-3 0 -6.5 -0.5t-8.5 -0.5q-5 -1 -10 -1.5t-11 -0.5q-5 -1 -11.5 -1.5t-12.5 -1.5t-12.5 -1.5t-11.5 -1.5q-6 -1 -11.5 -2t-10.5 -1q-5 -1 -9 -1.5t-6 -1.5q-4 -1 -5 -1h6h6.5t8.5 1t10 1.5t11 0.5l24 3q7 1 13 1.5t12 1.5q5 1 10.5 2t10.5 1zM410 240q0 2 0.5 3 t0.5 2t1 2q0 -1 -1 -2t-3 -5q-2 -3 -3.5 -7.5t-4.5 -10.5q-13 -24 -25 -56q-7 -15 -13 -30t-10 -27l-3.5 -10.5t-3.5 -8.5q-1 -3 -1 -5q0 -1 -1 -2q0 1 1 2t1 2t2 3l9 18q6 11 12 25.5t13 29.5q6 16 12 31t11 27q2 5 3 10t3 9z" />
</svg>