<svg version="1.1" xmlns="http://www.w3.org/2000/svg" xmlns:xlink="http://www.w3.org/1999/xlink">
	<path transform="scale(0.200, -0.200) translate(0, -750)" d="M248 805q2 4 14 -6t25.5 -24.5t23.5 -28t9 -16.5q-1 -1 -13 -33t-31.5 -83t-44 -116t-50 -133t-49.5 -133t-43.5 -116t-31.5 -82.5t-13 -32.5q-3 -3 -16.5 6t-28 21t-25 22.5t-7.5 12.5q2 1 14.5 33.5l32.5 84.5t45 118.5t51 135.5t50.5 135.5t44 118.5t31.5 83.5 t12 32.5zM12 62q1 1 2 4q2 6 4 11q4 7 7.5 15.5t5.5 17.5q4 9 7 17.5t5 15.5q2 8 3 11t2 4l-2 -4q-1 -2 -2.5 -4.5t-2.5 -5.5q-2 -7 -6 -15.5t-7 -17.5t-6 -17.5t-6 -15.5q-1 -5 -3 -11q-1 -3 -1 -5zM53 126q5 11 8.5 22t7.5 22q5 11 8.5 22.5t7.5 22.5q5 11 8 20.5t6 18.5 q2 8 4.5 15.5t3.5 12.5q1 3 3 7q1 2 1 3l-1 -2l-2 -4l-2 -4q-2 -5 -5 -11.5t-7 -15.5q-2 -8 -6 -17.5t-9 -20.5l-8 -22t-9 -22l-8 -22l-8 -22q-3 -11 -6.5 -21t-5.5 -19q-4 -8 -6 -15t-4 -12l-1.5 -4.5t-0.5 -3.5v-3q-1 1 0 3q0 1 4 7q2 5 4.5 12t7.5 15q3 8 6.5 17.5 t8.5 20.5zM135 307q0 2 0.5 3t0.5 2t1 2q0 -1 -1 -2t-3 -5q-2 -3 -3.5 -8t-3.5 -10q-10 -23 -23 -57q-6 -16 -10.5 -31t-8.5 -27q-2 -7 -3 -11.5t-2 -8.5q-1 -3 -1 -6q0 -1 -1 -2q0 1 1 2t1 2t1 3q2 4 4 8.5t4 10.5q6 11 11.5 26t11.5 31q5 16 10 31l9 27q2 6 2.5 11t2.5 9z " />
</svg>