<svg version="1.1" xmlns="http://www.w3.org/2000/svg" xmlns:xlink="http://www.w3.org/1999/xlink">
	<path transform="scale(0.200, -0.200) translate(0, -750)" d="M514 806q4 0 15.5 -10t23.5 -22.5t22 -24t10 -14.5q0 -2 -9.5 -34t-27 -84t-42.5 -118t-55.5 -134t-65.5 -133.5t-72.5 -117t-77.5 -82.5t-80 -31q-18 0 -43 11.5t-49 34.5t-41.5 59t-20.5 86q-1 32 12 75t30.5 81.5t33 65t19.5 26.5t13.5 -8t19 -18t16.5 -19.5t7 -12.5 t-14.5 -25t-31.5 -55t-30.5 -73t-11.5 -80q2 -38 12.5 -59.5t35.5 -21.5q32 0 66 31.5t67.5 83.5t66 118.5t61.5 135.5t54 135.5t43.5 118.5t30 83.5t13.5 31.5zM42 91q2 -2 2.5 -3l1.5 -3t2 -3q0 1 -1 3q-2 4 -3 7q-2 2 -3 5t-3 6q-2 4 -3 7.5t-3 7.5l-6 18q-2 5 -2.5 10 t-2.5 10q0 5 -1 11t-1 11q0 8 -1 11v12l1 11q2 8 2 11q0 11 3 22q2 5 2.5 10t1.5 10t1.5 9t2.5 9q4 10 5 15q0 5 2 11q1 2 1 4t1 4q0 2 1 3q0 -1 -1 -3q-2 -4 -3 -7q-2 -5 -4 -11.5t-6 -14.5q-4 -9 -5 -17q-2 -5 -3 -10t-3 -10q-1 -6 -2 -11.5t-1 -10.5q-1 -3 -1 -6t-1 -6 l-1 -12v-11q1 -4 1 -12q0 -6 1 -11.5t2 -11.5q0 -2 1 -5t2 -5q1 -4 3 -10q2 -5 3.5 -9.5t3.5 -8.5q2 -5 4 -8.5t4 -6.5q4 -6 6 -11zM44 268q3 11 6 21.5t4 18.5q2 5 2.5 8.5t1.5 5.5q1 3 2 5q-1 0 -1 -1q-1 -1 -1 -1.5t-1 -1.5q-2 -2 -3.5 -5.5t-3.5 -7.5t-3 -8.5t-3 -9.5 t-3.5 -11t-3.5 -11q0 -6 -1 -12t-3 -11q-1 -5 -1 -10t-1 -10v-14v-5v1q0 2 1 4t2 5.5t1 8.5q2 8 4.5 19t4.5 22zM222 87q2 2 3.5 4.5t3.5 4.5q1 2 2 3q-6 -5 -11 -10l-11 -11t-13 -11q-4 -2 -7.5 -5t-7.5 -5t-7 -4t-7 -4q-3 -2 -5.5 -3t-4.5 -2q-1 -1 -2 -1t-1 -1q0 1 1 1 t3 1q4 0 10 3q3 1 7 3q4 3 8 4q4 2 7.5 5t7.5 5q3 3 6.5 6t6.5 6t5.5 6t5.5 5zM331 313q2 3 2.5 5.5t1.5 4.5l2 4q-3 -6 -7 -13q-4 -6 -8.5 -15t-9.5 -20q-3 -6 -6 -11.5t-6 -12.5q-8 -12 -14 -25q-3 -8 -7 -14.5t-9 -13.5q-4 -7 -7.5 -13.5t-8.5 -14.5q-4 -7 -8 -13.5 t-9 -13.5q-2 -3 -4.5 -6t-4.5 -7l-9 -12q-5 -6 -9.5 -11.5t-8.5 -10.5q-3 -2 -5.5 -5t-4.5 -5q-3 -2 -5.5 -4t-4.5 -4t-4 -3.5t-4 -3.5l-9 -6q-4 -3 -7.5 -4.5t-7.5 -3.5q-3 -2 -5.5 -2.5t-4.5 -1.5q-2 0 -2 -0.5t-1 -0.5h-1h1q1 0 3 1t4.5 1t6.5 2q3 2 7 3t9 4l4 2t5 3 q6 4 9 7q2 2 4.5 4t5.5 4q2 2 5 4.5t5 4.5q3 2 5.5 5t4.5 5q3 3 5 6t5 6q6 8 10 12q2 3 4.5 6.5t4.5 6.5q5 7 9 13.5t8 13.5q5 8 8.5 14.5t8.5 13.5q4 8 7.5 14.5t7.5 13.5q3 7 6.5 13.5t6.5 13.5q3 6 5.5 12t4.5 12q6 11 9.5 20t6.5 16z" />
</svg>