<svg version="1.1" xmlns="http://www.w3.org/2000/svg" xmlns:xlink="http://www.w3.org/1999/xlink">
	<path transform="scale(0.200, -0.200) translate(0, -750)" d="M657 729q0 -1 -17 -20.5t-46 -50.5t-68 -71.5t-83 -84t-91 -87t-92 -81.5q9 -31 25.5 -63t35.5 -63t39.5 -59.5t36.5 -50.5t26.5 -37t10.5 -19q0 -7 -10 -12t-22.5 -8.5t-25.5 -5t-19 -1.5q-4 0 -15 13t-26.5 34t-33 49t-33.5 58t-29.5 60t-20.5 56q-9 -7 -18 -13 t-17 -12q-23 -53 -44 -100.5t-37 -82.5t-26.5 -55.5t-11.5 -20.5q-5 0 -15.5 8t-22 18.5t-20 20.5t-8.5 14q0 2 13.5 33t35.5 81.5t50 114.5t57 131t57 131.5t50 116t35.5 85t13.5 37.5q0 7 2 10.5t10 3.5q6 0 16.5 -9t21 -20.5t18 -22.5t7.5 -15q0 -2 -11.5 -30t-30 -73 t-43 -103t-51.5 -120q75 68 142.5 137t119.5 124.5t84 90.5t35 35t11 -10t15.5 -22.5t13.5 -24t6 -14.5zM11 80q5 9 10.5 20.5t10.5 24.5q5 12 9.5 24t8.5 22l5 15q0 2 0.5 2.5t0.5 1.5t1 2l-1 -1q-1 -1 -1.5 -2t-1.5 -2q-1 -3 -3 -6.5t-4 -8.5q-5 -9 -10.5 -20.5 t-10.5 -23.5q-5 -13 -9.5 -24.5t-8.5 -21.5q-2 -5 -3 -9t-2 -7q-1 -2 -1 -5q0 -1 -1 -1l1 1q1 1 1 2t1 3q4 6 8 14zM76 200q1 3 2 5.5t2 4.5t1 4l-2 -4l-2 -4t-3 -5q-3 -6 -6.5 -14t-7.5 -16q-3 -8 -6.5 -16t-5.5 -15q-2 -3 -2.5 -5.5t-1.5 -4.5q-1 -3 -1 -4l7 14 q3 6 6.5 14t7.5 16t7 16t5 14zM198 516q8 20 16 39t16 37t14.5 35t12.5 31q5 14 10 26.5t8 20.5q4 10 5 13t2 5q-1 -1 -2 -4q-1 -2 -2.5 -5.5t-3.5 -7.5q-4 -8 -9.5 -20t-11.5 -26q-7 -14 -14 -31t-15 -34q-8 -18 -16.5 -37t-16.5 -39l-16 -38t-16 -37t-14.5 -35t-12.5 -31 q-6 -15 -10.5 -27l-7.5 -20q-2 -5 -3 -8.5t-2 -5.5q-1 -3 -2 -4q1 1 2 4t6 13q4 8 9.5 20t11.5 26q7 14 14 30.5t15 34.5t16.5 37t16.5 38zM496 608q-4 -5 -6.5 -8.5t-4.5 -5.5l-5 -5l5 5l5 5t8 7q4 5 8 9l9 9t10 10.5t10 10.5t10 10.5t10 10.5t9 9.5t8 9.5q3 4 6 7.5t5 5.5 l5 5q-2 -1 -5 -4l-13 -13q-4 -4 -8 -8.5t-9 -9.5q-11 -9 -20 -20q-5 -6 -10 -11l-10 -10t-9 -10t-8 -9zM428 514q14 14 28.5 28t29.5 29l28 30t28 29q13 14 24.5 27.5t22.5 24.5t19.5 20.5t13.5 16.5q3 4 5 6.5t4 4.5l4 4l-14 -14l-35 -35q-22 -23 -49.5 -51t-56.5 -58 q-14 -14 -28 -29t-28 -29l-50 -50q-11 -11 -20 -19.5t-15 -15.5q-7 -8 -13 -14q6 5 14 12q7 6 16.5 14.5t20.5 19.5t24 23t27 26z" />
</svg>