<svg version="1.1" xmlns="http://www.w3.org/2000/svg" xmlns:xlink="http://www.w3.org/1999/xlink">
	<path transform="scale(0.200, -0.200) translate(0, -750)" d="M491 94q2 -2 1 -16t-4.5 -30t-8 -28.5t-9.5 -12.5q-3 0 -21.5 1t-47.5 2.5t-66 2.5t-76 1t-79 -1.5t-74 -5.5q-11 -2 -19.5 -3t-16.5 -2q0 -1 -1 -1h-3q-19 0 -25 10q-16 7 -30 17.5t-14 22.5q0 5 13.5 40t36 88t51 119.5t59 135.5t60.5 134t54 116t40 82t20 31 q10 0 20.5 -9.5t19.5 -20.5q11 -13 21 -30q-39 -72 -79.5 -159t-78 -175t-69.5 -168t-55 -137q32 1 72.5 1h82.5t82.5 -0.5t72 -1t51 -1.5t20.5 -2zM179 423q2 6 4.5 11.5t4.5 9.5t3 8l-4 -8l-4.5 -9l-5.5 -11q-2 -7 -5.5 -14l-7.5 -15q-3 -8 -6.5 -16.5t-7.5 -17.5 q-4 -8 -7.5 -16.5t-6.5 -16.5q-4 -8 -7 -15.5t-6 -14.5q-2 -7 -4 -12t-4 -9t-3 -8l4 8t4 8.5t5 11.5t6.5 14t6.5 15q4 8 7.5 16.5t7.5 17.5q8 18 14 34q7 14 12 29zM94 258q4 8 9 19t11 25t13.5 30t15.5 34q8 17 16 35t16 37t16 37.5t16 35.5t15 33.5t13 30.5t10.5 25.5 t8.5 19.5q4 10 5 13t2 5q-1 -2 -2 -5l-2.5 -5l-3.5 -7q-5 -8 -10 -19t-12 -25t-14 -30t-15 -33t-16.5 -35.5t-16.5 -37.5t-16 -37.5t-16 -35.5t-14.5 -33.5t-12.5 -30.5t-10 -26t-8 -20q-2 -5 -2.5 -8t-1.5 -5q-1 -3 -2 -5q1 2 2 5t6 13zM250 38q2 -1 6 -1h17q5 -1 11 -1h13 q7 -1 13.5 -1h14.5h14t13 -1q7 0 13 0.5t12 0.5h23q-2 1 -6 1h-7.5t-9.5 1h-11.5t-13.5 1h-13t-14 1h-28h-24q-5 0 -9.5 -0.5t-7.5 -0.5h-6zM452 21q-3 0 -7 1q-3 1 -8 1t-10 1t-11.5 1t-13.5 1h-15t-15 1h-29h-26q-6 0 -10.5 -0.5t-7.5 -0.5h-7h7q3 0 7.5 -0.5t10.5 -0.5 q5 0 11.5 -0.5t14.5 -0.5q7 0 14 -0.5t15 -0.5z" />
</svg>