<svg version="1.1" xmlns="http://www.w3.org/2000/svg" xmlns:xlink="http://www.w3.org/1999/xlink">
	<path transform="scale(0.200, -0.200) translate(0, -750)" d="M905 789q4 0 8.5 -9.5t8.5 -21.5t7 -24t3 -16q0 -2 -12.5 -26.5t-33.5 -65t-48 -93t-56.5 -110.5t-59 -118.5t-55.5 -116t-46 -103.5t-30 -81q-2 -8 -13.5 -2.5t-24.5 16t-23 21.5t-10 14q9 33 16 58t17 51.5t25.5 59t40.5 81.5t62.5 119t91.5 171q-146 -119 -241 -222.5 t-152 -180t-82 -120t-31 -43.5t-16 8t-20 17.5t-17 18.5t-7 12q12 22 35 68t49.5 101.5t54.5 115.5t50.5 110.5t37 86t14.5 43.5q-63 -58 -122.5 -126t-111.5 -135.5t-95.5 -130t-75 -110.5t-50.5 -77t-21 -29q-4 0 -13.5 7.5t-19.5 17.5t-18 20.5t-8 17.5q51 88 114.5 178 t130.5 172.5t132 154.5t119 125.5t92 84t51 30.5q10 0 19 -9.5t16.5 -21.5t12 -23.5t4.5 -15.5q0 -2 -6 -16t-15.5 -35.5t-21.5 -48.5t-25 -55q-30 -66 -68 -148q107 100 192 179q36 34 71.5 66t63.5 57.5t46.5 41t20.5 15.5q4 0 7.5 -3.5t6.5 -7.5q4 -4 6 -10l8 8q8 8 15 8 zM52 258l3.5 7t3.5 5q2 3 3 5q-1 -2 -3 -5q-2 -2 -4.5 -5t-4.5 -6q-3 -6 -12 -16q-5 -9 -13 -20q-3 -5 -6 -9.5t-6 -9.5q-4 -5 -6.5 -9t-4.5 -8q-3 -4 -4.5 -7t-3.5 -5q-2 -3 -2 -5q1 1 3 4q2 2 4 5t4 7q3 4 6 7.5t6 8.5t6.5 9.5t6.5 9.5q4 5 7 10l6 10t6 9t5 8zM309 569 q10 11 18.5 20.5t14.5 16.5q7 8 12 14q-2 -1 -4 -3t-4 -4.5t-5 -5.5q-14 -12 -35 -35q-5 -6 -10.5 -12t-11.5 -12q-6 -7 -12 -13.5t-13 -13.5q-13 -15 -25.5 -30t-26.5 -31q-13 -16 -25.5 -31.5t-24.5 -30.5t-22.5 -29t-20.5 -26l-16.5 -22t-12.5 -18q-3 -4 -4.5 -6.5 t-3.5 -4.5q-2 -3 -2 -4q5 6 12 14q5 7 13 16.5t18 21.5t21 25.5t23 28.5t24.5 30.5t26.5 30.5q13 16 26 31.5t25 29.5q13 15 24 28.5t21 24.5zM440 508q2 6 3 8t1 3l-5 -10q-2 -5 -5.5 -11.5t-7.5 -14.5t-8 -17t-9 -19q-5 -11 -9 -21.5t-9 -21.5t-9.5 -21.5t-8.5 -20.5 q-5 -11 -8.5 -20.5t-6.5 -17.5q-4 -8 -6.5 -14.5t-4.5 -11.5q-1 -3 -3 -7q-1 -2 -1 -3l5 10q2 5 5.5 11t7.5 14q5 8 9 17t9 19q5 11 9.5 21t9.5 21t9 21.5t8 21.5q5 11 8.5 20.5t6.5 17.5q4 8 6 14.5t4 11.5zM661 589q7 7 13.5 13t12.5 12l11.5 11.5l10.5 10.5l9 9t6 7l6 6 q-1 0 -2 -1q-3 -3 -5 -4q-5 -4 -17 -14q-5 -5 -11 -10t-13 -10q-6 -6 -12.5 -12t-13.5 -12t-13.5 -12.5l-12.5 -12.5q-7 -6 -12.5 -11.5l-10.5 -10.5t-8.5 -9t-6.5 -7q-2 -2 -2.5 -3t-1.5 -2l-1 -1l1 1q1 1 2 1.5t3 2.5q3 3 7.5 6t9.5 8t11.5 10t12.5 11q7 5 13.5 11 t13.5 12zM763 671q2 2 4 4.5t4 4.5l3 3q-2 -1 -4 -3q-1 -1 -9 -7q-5 -5 -12 -11t-15 -13q-7 -7 -14 -13.5t-12 -11.5q-2 -3 -4 -4.5t-4 -3.5l-3 -3q1 0 3 2t4.5 3.5t5.5 4.5q5 5 12 11t15 12q7 7 14 13.5t12 11.5zM639 274q2 5 3 9t3 7q2 4 3 7l-3 -6q-2 -3 -4 -7.5t-4 -9.5 t-5 -10.5t-6 -12.5q-3 -6 -6 -12.5t-6 -13.5t-6 -13.5t-5 -13.5q-3 -6 -5.5 -12t-4.5 -11t-3 -9.5t-3 -7.5l-3 -6l3 6q2 3 4 7t4 9t5 10.5t6 12.5q3 6 6 12.5t6 13.5t5.5 14t5.5 13q3 7 5.5 13t4.5 11zM664 357q2 3 2.5 5t1.5 4l2 4q-1 -1 -2 -3l-2 -4t-3 -5q-3 -7 -8 -15 t-10 -19t-11 -23l-13 -26q-6 -13 -12.5 -27.5t-13.5 -28.5l-6 -14t-6 -15l-6 -14l-6 -14q-5 -14 -9.5 -26.5t-9.5 -23.5q-3 -12 -6 -21q-2 -5 -3 -8.5t-2 -7.5q-2 -4 -2 -6t-1 -4t-1 -4q0 2 1 4t1.5 4t2.5 6q3 6 6 15l4 10l4 10q5 11 10.5 23.5t10.5 26.5q6 14 12.5 28 t12.5 28q13 29 25 56.5t22 49.5q5 11 9 19.5t6 15.5z" />
</svg>