<svg version="1.1" xmlns="http://www.w3.org/2000/svg" xmlns:xlink="http://www.w3.org/1999/xlink">
	<path transform="scale(0.200, -0.200) translate(0, -750)" d="M690 793q4 0 13.5 -8.5t18.5 -19.5t16 -23t7 -19q0 -3 -11 -30t-30 -69t-43.5 -96t-51 -112t-52 -116t-47 -108.5t-37 -89.5t-20.5 -59q-2 -7 -8.5 -6.5t-14.5 3.5q0 -22 -2 -24q-3 -3 -15 -0.5t-26 7.5t-26.5 9.5t-15.5 6.5t-5 12t-4.5 33t-6 63t-7.5 102 q-2 30 -2.5 68.5t-0.5 81.5t1 87.5t3 87.5q-33 -67 -64 -136.5t-57.5 -133.5t-49 -120t-39 -98t-26.5 -66t-12 -24q-4 0 -16 5t-25 12.5t-23.5 17t-11.5 18.5q0 4 13.5 38.5t36 88t51.5 120.5t59.5 136t59.5 134.5t52.5 117t38.5 82.5t17 31q4 0 15 -7q1 3 3 3q5 0 16.5 -7 t23 -16t21 -18t9.5 -13t-0.5 -30.5t-1 -70.5t-1 -103.5t-0.5 -130.5q0 -54 2.5 -105.5t5.5 -98.5q21 50 49 113t57 129t57.5 129t51.5 112.5t38 79.5t17 30zM80 186q2 5 3.5 8.5t2.5 6.5q1 4 2 6l-10 -20q-2 -5 -4.5 -10t-4.5 -11t-5 -12t-5 -12t-5 -12.5t-5 -11.5 q-2 -6 -4 -11.5t-4 -10.5q-5 -9 -6 -15q-1 -4 -2 -6l3 6q2 3 3.5 6.5t3.5 8.5t4.5 10t4.5 10q2 6 5 12t5 12q3 7 5.5 13t4.5 12q4 10 8 21zM127 330q1 6 3 9q1 2 1 4l-6 -12q-2 -6 -5.5 -14t-8.5 -18l-10 -22t-10 -24q-6 -13 -11.5 -26t-11.5 -27q-5 -14 -10.5 -27 t-10.5 -26t-9.5 -24.5t-8.5 -21.5q-4 -11 -7 -19.5t-5 -14.5q-2 -3 -2.5 -5t-1.5 -4t-1 -3l6 12q3 6 6.5 14t8.5 18q10 21 20 46q5 12 11 25t11 27q6 14 11.5 27.5t10.5 26.5t9 24.5t9 21.5q7 21 12 33zM279 517q2 3 2.5 5t1.5 4l2 4l-2 -4l-2 -4t-3 -5l-17 -34 q-5 -11 -11.5 -23t-12.5 -26t-12.5 -28t-13.5 -29q-7 -14 -13 -28.5t-12 -28.5t-11 -26.5t-10 -23.5t-8.5 -20t-5.5 -16q-3 -8 -5 -14q2 5 6 13l7.5 15t9.5 20t10.5 23.5t11.5 26.5q7 14 13.5 28t12.5 28q7 15 13.5 29t12.5 28t11 26.5t10 23.5q10 22 15 36zM356 91 q0 -4 0.5 -7t0.5 -5q0 -3 1 -4v4q0 2 -0.5 5t-0.5 8q-2 15 -3 42q-1 14 -1.5 28.5t-2.5 31.5q-1 17 -1.5 34.5t-0.5 34.5q-1 17 -1.5 34.5t-1.5 34.5q0 17 -0.5 32t-1.5 28t-1 24v19v16q-1 -7 -1 -16v-43v-28.5t1 -31.5q0 -17 0.5 -34.5t1.5 -34.5q1 -36 3 -69q1 -17 2 -32 t3 -28q1 -14 2 -24.5t2 -18.5zM707 672q9 22 15 36q1 3 2 5.5t2 4.5t1 4l-2 -4l-2 -4t-3 -5q-3 -7 -7.5 -16t-9.5 -20t-11.5 -23.5t-12.5 -26.5q-7 -14 -13.5 -29t-13.5 -30t-13.5 -29.5t-12.5 -28.5t-11.5 -27.5t-10.5 -24.5t-8.5 -20.5t-6.5 -15.5l-3 -6l-2 -4t-1 -4 q1 1 2 3l5 10q7 13 18 36q5 11 11 23.5t13 26.5q6 14 13 29t14 29q7 15 13 30t13 29q6 14 11.5 27.5t10.5 24.5z" />
</svg>