<svg version="1.1" xmlns="http://www.w3.org/2000/svg" xmlns:xlink="http://www.w3.org/1999/xlink">
	<path transform="scale(0.200, -0.200) translate(0, -750)" d="M459 797q15 0 43.5 -9.5t56.5 -32t49 -59.5t21 -92q0 -63 -19 -132.5t-52 -137t-76.5 -128t-91.5 -106.5t-98.5 -73t-96.5 -27q-37 0 -71 16.5t-60.5 42t-42 54.5t-15.5 55q0 57 27.5 122.5t65.5 125.5q-2 12 -3 26t-1 28q0 12 16 41.5t43 65.5t63.5 75t76.5 71.5 t82.5 53t82.5 20.5zM60 278q2 5 2.5 8.5t1.5 6.5q1 4 2 6l-2 -6q-1 -3 -2.5 -6t-3.5 -8t-3.5 -10t-3.5 -11l-4 -12t-4 -13q-2 -6 -3 -12.5t-3 -12.5q-1 -6 -1.5 -11.5t-1.5 -10.5v-9q-1 -4 0 -7v-6v6q0 3 0.5 7t1.5 9t2 10.5t3 11.5q1 6 2.5 12t3.5 12q2 7 3.5 13t3.5 12 q3 12 6 21zM76 355q2 6 3 8t1 3q-1 -1 -2 -3t-1.5 -4t-2.5 -4l-14 -28q-2 -5 -4 -9.5t-4 -9.5t-5 -10.5t-5 -11.5l-4 -12l-4 -12l-4 -12t-4 -13q-2 -6 -3 -12.5t-3 -12.5q-3 -14 -3 -26q-1 -4 -1 -12t1 -12q1 -5 1.5 -10.5t2.5 -10.5l3 -9l2 -4l2 -4q2 -4 3.5 -6.5t3.5 -5.5 q3 -5 6 -6q0 -1 1 -2q0 -1 1 -1q-1 1 -2 3t-2 3.5t-3 3.5q-1 3 -2.5 6l-3.5 7q0 2 -1 3.5t-1 3.5l-3 9q-1 5 -1.5 10t-1.5 11v11q0 2 0.5 3t0.5 3v6l2 12l2 12q2 7 3 13t3 12q2 7 3.5 13t3.5 12l9 24q3 10 8 22q2 5 3.5 9.5t3.5 9.5q7 19 12 30zM227 424q-24 -24 -47.5 -60 t-42.5 -75.5t-32 -78.5t-16.5 -70t5.5 -50.5t33 -19.5q51 0 103 23t100 64t89.5 97t72 122t48 139t17.5 149q0 45 -25.5 59t-66.5 1.5t-92.5 -49t-102.5 -92.5q11 -5 24.5 -16t25.5 -23.5t20.5 -24.5t8.5 -18q0 -8 -5.5 -7t-19.5 -2t-37.5 -17t-59.5 -51zM393 137 q-2 -1 -4 -3t-4.5 -4t-5.5 -4l-15 -12q-5 -3 -9 -6t-9 -7l-18 -12q-5 -3 -8.5 -5.5t-7.5 -4.5l-7 -3.5t-5 -3.5q-3 -2 -4 -3q2 1 5 2q4 1 12 6q4 2 8 4.5t9 4.5q4 3 8.5 6t9.5 6q5 4 9 7t8 7q9 6 15 12l10 10zM410 141q2 2 3.5 4t3.5 4q1 2 2 3q-1 -1 -2 -3q-2 -2 -3.5 -4 t-3.5 -4q-5 -5 -11.5 -11t-14.5 -14q-17 -15 -40.5 -31.5t-49.5 -30.5q-26 -15 -53.5 -23.5t-50.5 -9.5q-11 -2 -20 0q-2 0 -4 0.5t-4 0.5q-2 1 -4 1t-4 1q-6 1 -9 3h-3q-1 0 -1 1q0 -1 1 -1h3l4 -2t5 -2q2 -1 3.5 -1t3.5 -1q2 0 4.5 -0.5t4.5 -0.5q5 -1 10 -1h10q22 0 51 8 q27 9 55 23q24 14 50 32q11 8 21 16.5t18 16.5q18 17 25 26zM555 375q4 10 5 13t2 5q-1 -2 -3 -5q-3 -5 -6 -12l-4 -8t-4 -9t-4.5 -9.5t-4.5 -9.5q-10 -21 -18 -36q-5 -8 -6 -12q-1 -3 -2 -5q1 1 3 4q2 2 3.5 5l3.5 7q2 3 4.5 7t4.5 9q3 5 5.5 9.5t4.5 9.5t4.5 10t4.5 10 t3.5 9t3.5 8z" />
</svg>