<svg version="1.1" xmlns="http://www.w3.org/2000/svg" xmlns:xlink="http://www.w3.org/1999/xlink">
	<path transform="scale(0.200, -0.200) translate(0, -750)" d="M364 812q36 0 75.5 -18t73 -49.5t55.5 -75t22 -95.5q0 -40 -24.5 -85.5t-69.5 -86.5t-107.5 -72t-137.5 -40q5 1 10 1.5t10 2.5q6 1 13 2.5t14 3.5q8 2 15 4.5t15 5.5q5 2 8.5 3t7.5 3t7.5 3.5t8.5 3.5q8 3 15.5 7t15.5 8q8 5 15.5 9t14.5 9q8 5 15 9t14 9q6 5 12.5 10 t11.5 10q6 5 11 10l10 10l9 9t7 8q3 5 6 8.5t5 6.5q6 8 7 9l2 4q0 -1 -2 -3l-4 -4t-4 -5q-6 -8 -12 -14q-4 -4 -8 -7.5t-9 -8.5t-10.5 -9t-10.5 -9q-6 -5 -12.5 -9.5t-12.5 -9.5q-7 -5 -14 -9t-14 -9q-8 -5 -15 -9t-15 -8t-15.5 -8t-15.5 -8q-4 -2 -7.5 -3.5t-8.5 -3.5 l-15 -6q-8 -3 -15 -5.5t-14 -4.5q-8 -2 -14.5 -4t-12.5 -4q-7 -2 -12.5 -3t-10.5 -3q-11 -2 -18 -3l-10.5 -1.5t-5.5 -0.5h-19q-9 0 -17.5 5.5t-16.5 14.5q-30 -69 -53 -125.5t-39.5 -97t-26 -62.5t-12.5 -22q-5 0 -14.5 8t-20 19t-18 22t-7.5 17q0 5 13.5 38.5t35.5 85 t50.5 116.5t59 132.5t60 132.5t54.5 118q-16 -11 -21 -11t-14 9t-17.5 21t-14.5 24t-6 19q0 4 10.5 11t28.5 15t41.5 16t49.5 13q8 15 10 15q4 0 17 -11q10 1 19.5 1.5t18.5 0.5zM125 257q4 9 7 17t5 13q3 6 4 11q-2 -5 -5 -11q-2 -5 -5.5 -12.5t-7.5 -16.5t-8 -19.5 t-9 -21.5t-10 -23l-10 -24l-10 -24t-10 -23q-5 -12 -8.5 -22.5t-7.5 -19.5t-7 -17t-5 -13q-3 -6 -4 -11q2 5 5 11l5 12.5t8 16.5q4 9 8 19.5t9 21.5t10 23l10 24q5 13 10 25t10 23t8.5 21.5t7.5 19.5zM147 363q2 5 3.5 10t3.5 8q1 4 2 7q-1 -3 -3 -7q-2 -3 -4 -7.5t-4 -9.5 t-5 -11.5t-6 -13.5q-2 -7 -5 -13.5t-6 -14.5t-6 -15l-6 -14q-2 -7 -4.5 -13.5t-4.5 -11.5q-2 -6 -3 -10.5t-3 -7.5q-2 -4 -3 -7q1 3 3 7q2 3 4 7.5t4 9.5t5 11.5t6 13.5q4 13 11 28q3 8 6 15l6 14q2 7 4.5 13.5t4.5 11.5zM209 369q42 0 97.5 17.5t104.5 52t83 85.5t34 117 q0 17 -8.5 34t-26.5 30t-44.5 21t-62.5 8h-13t-12 -1q-51 -98 -94 -190t-79 -173q5 -1 9.5 -1h11.5z" />
</svg>