<svg version="1.1" xmlns="http://www.w3.org/2000/svg" xmlns:xlink="http://www.w3.org/1999/xlink">
	<path transform="scale(0.200, -0.200) translate(0, -750)" d="M441 -81q39 -38 60 -53.5t30 -20.5t10.5 -4.5t2.5 -3.5t-6 -12.5t-18.5 -16t-24 -12.5t-21.5 -3q-16 4 -41 26q-3 3 -6 6.5t-7 7.5q-6 7 -12.5 14.5t-12.5 15.5q-7 8 -13 16t-11 16q-6 8 -11 15l-10 14q-5 6 -9 10.5t-6 8.5q-4 4 -5 8q0 -1 1 -2t1.5 -2.5t2.5 -3.5 q4 -10 12 -22q7 -14 18 -30q2 -2 2.5 -3t2.5 -3q-25 29 -49.5 59.5t-47.5 63.5q-16 -7 -33 -8t-34 -1q-29 0 -61.5 13t-61.5 37l-3 3q-2 2 -4.5 4t-4.5 5l-6 6q-4 6 -7 9q-4 6 -7 9q-4 8 -7 12l-3 6l-2 3l-1 3q-4 10 -6 14t-2.5 8t-2.5 8t-2 8q-1 2 -1 4t-1 4q-1 5 -1.5 9 t-1.5 8q0 5 -0.5 9t-0.5 9v18v10l1 9q1 5 1 9t1 9l3 18q1 5 1.5 9t2.5 9q2 10 4 17l4 16t5 16q2 8 4.5 15t4.5 14q2 6 4.5 12t4.5 11l3.5 10.5t3.5 8.5t2.5 7t1.5 5q1 3 2 4l-8 -16q-2 -4 -4 -8.5t-4 -9.5t-5 -10.5t-5 -12.5t-5 -13.5t-5 -14.5l-6 -16t-5 -16q-1 -5 -2 -9 t-2 -9t-2 -9t-2 -9l-3 -18q-1 -5 -1 -9.5t-1 -9.5l-1 -9v-9q0 -5 -0.5 -9.5t0.5 -9.5t1 -9t1 -9q0 -5 1 -9t2 -9t1.5 -9t2.5 -8t3 -8t3 -8t3 -7t3 -7h1q-14 22 -21.5 48t-7.5 55q0 53 20.5 117.5t54 129.5t77 126.5t90 109t92 76t83.5 28.5q32 0 65 -19t59.5 -48t43 -65 t16.5 -69q0 -57 -18.5 -132.5t-52.5 -153.5t-81.5 -149t-105.5 -119q29 -43 52.5 -74.5t40.5 -48.5zM41 293q0 2 0.5 2.5t0.5 1.5v2v-2q0 -1 -0.5 -1.5t-0.5 -2.5q-2 -3 -2.5 -7t-2.5 -9q-1 -5 -2 -11l-2 -12q-3 -14 -3 -27q-1 -7 -1 -13.5v-13.5q0 -6 0.5 -12t0.5 -11 q2 -12 3 -17l2 -6v2q0 1 -0.5 2t-0.5 3q-1 3 -1 16q-1 5 -1 11v12q0 7 0.5 13.5t0.5 13.5q1 7 1.5 13.5t1.5 12.5q2 15 3 23q2 12 3 17zM523 522q-1 -5 -2 -9.5t-2 -9.5q-2 -5 -2.5 -10t-2.5 -10l-6 -21q-6 -21 -13 -40.5t-12 -34.5q-3 -8 -5.5 -13.5t-4.5 -10.5 q-2 -6 -3 -7l-1 -2q2 3 5 8q2 4 4.5 10t6.5 14q3 8 6.5 16.5t6.5 18.5q2 5 3.5 9.5t3.5 9.5t3.5 10.5t3.5 10.5t2.5 10.5t2.5 10.5t2.5 10t2.5 10q1 5 2 9.5t2 9.5q0 5 0.5 9t1.5 9q0 4 0.5 7.5t0.5 6.5q1 4 0.5 6.5t0.5 5.5v10q-1 -1 -1 -3v-7q0 -7 -1 -12q-1 -3 -1 -6.5 t-1 -7.5q-1 -5 -1.5 -8.5t-1.5 -8.5zM293 123q33 28 62.5 66t54.5 80.5t45 87t34 87t21.5 79.5t7.5 65q0 39 -4 64.5t-10 40.5t-14 21.5t-17 6.5q-40 0 -83 -28t-85 -74t-80 -104t-66.5 -118.5t-45.5 -118t-17 -101.5q0 -19 -0.5 -39.5t4 -37.5t15.5 -28t34 -11q37 0 76 17 q-25 36 -40 60t-16 27q-4 12 6 13q3 1 16 2.5t28 2.5t27 0t14 -5q6 -14 33 -55zM474 -197h-1q-2 0 -4 2q-5 1 -11 8l-15 15t-16 18l-15 18q-4 4 -7 8l-6 8q-3 3 -5.5 6t-4.5 5q-2 3 -3 4q1 -2 3 -5q2 -2 3.5 -5t4.5 -7t6 -7.5t7 -8.5q3 -5 6.5 -9.5t8.5 -9.5q4 -5 7.5 -9 t8.5 -8q4 -5 7.5 -8t7.5 -6q9 -7 13 -8q1 -1 4 -1h1zM83 49q-1 0 -3 2q1 0 3 -2z" />
</svg>