<svg version="1.1" xmlns="http://www.w3.org/2000/svg" xmlns:xlink="http://www.w3.org/1999/xlink">
	<path transform="scale(0.200, -0.200) translate(0, -750)" d="M380 818q48 0 89.5 -13t72.5 -40.5t47.5 -70t13.5 -101.5q-2 -40 -25.5 -75t-59.5 -65q2 2 4.5 4t4.5 4q5 5 9 9.5t9 9.5q8 8 16 21q4 5 7.5 10.5t6.5 11.5q4 6 6.5 12t4.5 12l2 6l2 6l3 12q1 2 1 5t1 6q0 2 0.5 5t0.5 5q0 5 0.5 9.5t-0.5 8.5q0 11 -1 14q-2 8 -2 9v3 v-12q1 -3 0.5 -6t-0.5 -8q0 -4 -0.5 -8t-0.5 -9q-1 -3 -1 -5.5t-1 -5.5q-1 -2 -1 -5t-2 -5q-1 -3 -1.5 -5.5t-1.5 -5.5l-2 -6t-2 -5q-4 -11 -11 -23q-3 -6 -6.5 -11.5t-7.5 -10.5t-7.5 -10.5t-8.5 -10.5q-4 -5 -8 -9l-9 -9t-9 -8.5t-8 -8.5q-5 -3 -8.5 -6.5t-8.5 -6.5 q-4 -3 -7.5 -6t-6.5 -5q-3 -3 -6 -5t-5 -4t-3.5 -3t-3.5 -2t-3 -2q-35 -20 -73.5 -36.5t-74.5 -29.5q8 -42 19.5 -78.5t25.5 -66.5q30 -61 51 -93.5t34.5 -48t19.5 -21t6 -11.5t-8 -13t-20 -12.5t-26 -9t-26 -3.5q-8 0 -21.5 16.5t-29.5 43.5t-33.5 62t-33 72t-27.5 73 t-17 66q-12 -2 -22.5 -4t-19.5 -4q-26 -59 -50.5 -112.5t-43.5 -94.5t-31.5 -65.5t-15.5 -24.5q-6 0 -17.5 6t-22.5 15t-19 18t-8 15q0 2 16 38t41 92t57 125.5t63.5 139.5t60.5 134t49 108q-42 -19 -63.5 -38.5t-27.5 -19.5q-5 0 -11.5 7t-12 18.5t-9 25t-2.5 27.5 q0 5 21 20t56 31.5t80 29t93 12.5zM73 269q3 8 5.5 14t4.5 11t4 9q-2 -4 -5 -9q-2 -5 -5 -10.5t-6 -13.5t-7 -16t-8 -18q-5 -9 -9 -19t-9 -20l-8 -20t-8 -19q-5 -10 -8.5 -18.5t-6.5 -16.5t-5.5 -13.5t-4.5 -10.5l-3 -9q1 4 4 9q2 5 4.5 10.5t6.5 13.5t7.5 16t8.5 18 q4 9 8 18.5t9 20.5q5 10 8.5 19.5t8.5 19.5q4 10 7.5 18t6.5 16zM293 799q-6 -2 -7 -2q-2 -1 -3 -1q1 1 3 1q4 0 7 1q6 2 12 2q6 1 15 3q8 2 17.5 2.5t19.5 1.5q5 0 11 0.5t11 0.5t11 -0.5t11 -0.5t11 -0.5t11 -1.5t10.5 -1.5t10.5 -2.5l10 -2l10 -2q5 -2 9 -2.5t8 -2.5 q10 -4 14 -6l6 -2t5 -2q3 -2 7 -4q1 -1 2 -1q-1 0 -2 1q-4 2 -7 4q-2 2 -4.5 2.5t-5.5 2.5q-4 2 -7 3t-8 3q-4 2 -8 3t-9 3t-9.5 3t-9.5 3q-5 1 -10.5 1.5t-11.5 1.5q-5 1 -10.5 1.5t-11.5 1.5h-22h-11t-11 -1q-11 -1 -20.5 -2t-17.5 -3l-15 -3q-8 -2 -11 -3zM344 52 q-3 5 -6 11t-8 14q-2 4 -4.5 7.5t-4.5 8.5t-4.5 9.5t-4.5 9.5q-5 10 -9.5 20t-9.5 21q-10 21 -18.5 41.5t-15.5 36.5q-3 8 -5.5 14.5t-4.5 11.5q-2 2 -2 3.5t-1 3.5t-1 3q1 -5 3 -10q3 -11 9 -27q4 -8 7 -17t8 -20q4 -10 8 -20.5t9 -21.5t10 -21l10 -20t9.5 -18t9.5 -16 t8.5 -14t6.5 -10l6 -9l-1 2q-3 2 -4 7zM298 162q-4 6 -5 8t-1 3q0 -1 1 -3t1 -4t2 -4q2 -5 4.5 -11.5t5.5 -12.5q2 -6 5.5 -12t5.5 -11q2 -3 4 -7q1 -2 2 -3q-2 5 -4 11q-2 5 -4.5 11t-5.5 13zM410 400q10 4 13 6t5 3q-2 -1 -5 -2q-2 -1 -6 -2t-8 -3t-8.5 -4t-9.5 -4l-21 -9 q-22 -9 -40 -17q-10 -4 -18 -8q2 0 5 1q2 1 5.5 2t8.5 3q4 2 9 3.5t10 3.5l21 9l21 9q10 4 18 9zM562 652q1 17 -11 32t-34.5 26t-53 17.5t-66.5 6.5q-11 0 -20 -0.5t-18 -1.5q-6 -14 -20 -46t-33 -76.5t-42 -97.5t-47 -109q45 14 104.5 37.5t113 55t90.5 71t37 85.5z" />
</svg>