<svg version="1.1" xmlns="http://www.w3.org/2000/svg" xmlns:xlink="http://www.w3.org/1999/xlink">
	<path transform="scale(0.200, -0.200) translate(0, -750)" d="M521 475q-8 0 -19.5 8t-22 19t-18 22t-7.5 16t10 19t19.5 36.5t14.5 54t-5 72.5q-45 0 -88 -26t-77 -63.5t-54.5 -79.5t-20.5 -73q0 -4 20 -10t50 -17t65.5 -28.5t65.5 -43.5t50 -62.5t20 -86.5q0 -39 -15.5 -74t-42.5 -63.5t-64.5 -49.5t-81.5 -33q2 1 8 3q5 3 10.5 5.5 t10.5 5.5q11 6 20.5 11.5t17.5 10.5t14 9.5t11 8.5l9 6l-2 -1l-4 -2l-4 -2q-5 -3 -12 -6.5t-15 -8.5t-17.5 -10t-20.5 -10q-5 -2 -10.5 -5t-11.5 -5q-3 -1 -11 -5l-12 -4q-5 -2 -11 -3.5t-12 -3.5t-12 -2.5t-12 -1.5t-11.5 -1.5t-10.5 -1.5t-10 -1h-10h-17h-6q-58 4 -94 30 t-56 59.5t-27 67.5t-7 56q0 23 4 45.5t10.5 40t15 28t17.5 10.5t16 -4.5t12.5 -11t8 -13.5t2.5 -11q0 -7 -8.5 -20t-18 -28t-18 -29.5t-8.5 -24.5q0 -11 7.5 -27t28 -32t56 -27t92.5 -11q56 0 104 18.5t83 44.5t54.5 54t19.5 46q0 12 -13 25t-32.5 25t-44 23.5t-47 21 t-41 15.5t-26.5 9q-12 4 -29 18t-32 33.5t-25.5 41.5t-10.5 40q0 22 12.5 53.5t34.5 66t51.5 68t63 60t69 43t70.5 16.5q25 0 44.5 -18.5t33 -45.5t21 -57.5t7.5 -55.5q0 -24 -7.5 -53t-18 -54t-22.5 -42t-20 -17zM533 518q-2 -6 -2 -5q-1 -1 -1 -2l1 1q1 1 1.5 2t2.5 3 q2 4 5 7q1 3 5 11q3 3 4 5q1 3 3 7q1 3 2.5 6.5t2.5 7.5q2 4 3 7.5t2 8.5q2 4 2.5 8t1.5 8q2 5 2 9t1 8q1 5 1 8.5t1 8.5v15t-1 14q0 6 -1 11t-2 9q-1 2 -1 6v2v-8v-20q-1 -7 -1 -14t-1 -15q-2 -8 -2.5 -16t-2.5 -16l-2 -8l-2 -8l-2 -8l-2 -8q-2 -4 -2.5 -7t-2.5 -7 q-2 -7 -5 -12l-2 -6t-2 -5l-2 -4zM248 9h-7h-9t-11 1h-12t-15 1q-5 0 -15 2q-4 1 -7.5 1t-7.5 1t-7.5 2t-7.5 2t-7.5 2t-7.5 2q-7 2 -13.5 5t-11.5 5q-5 3 -9.5 5t-7.5 4l-6 3l1 -1q2 -2 4 -3q3 -2 7.5 -4.5t9.5 -5.5t11 -6t14 -5q4 -2 7.5 -2.5t7.5 -2.5l15 -3q4 -2 8 -2 t8 -1q4 0 7.5 -0.5t7.5 -0.5q5 -1 15 -1h12q6 1 11 1t9 1h7zM319 448q-2 1 -3.5 1t-3.5 1q-2 0 -3 1l2 -1q4 -2 8 -3q5 -2 12 -5t15 -7l36 -18q5 -3 10.5 -5.5t10.5 -6.5q5 -2 10 -5.5t10 -6.5q5 -4 9.5 -7.5t9.5 -7.5q2 -2 4.5 -3.5t4.5 -3.5l4 -4l4 -4q5 -3 8 -8l3.5 -3.5 l3.5 -3.5q9 -10 12 -16q7 -9 9 -14q5 -7 6 -11l5 -10q0 1 -1 3q-2 4 -3 8q-2 5 -6 11q-2 4 -4 7t-4 8q-2 4 -5 7.5t-6 7.5q-3 3 -7 9q-5 3 -8 8q-3 2 -9 8q-2 2 -4 3.5t-5 3.5q-5 4 -9.5 7.5t-9.5 7.5q-5 3 -10 6.5t-10 6.5t-10.5 5.5t-10.5 5.5q-5 2 -10 4.5t-10 4.5t-9 4 t-9 4q-8 4 -15 6.5t-12 4.5zM284 606q-2 -3 -2.5 -5.5t-1.5 -4.5t-1 -3q1 0 1 1l1 2l2 4t3 5q2 2 4 4.5t4 5.5l9 12q5 6 9.5 11.5t8.5 10.5l3.5 3.5t2.5 3.5t2 3q-1 -1 -3 -2t-3.5 -2.5l-3.5 -3.5l-4.5 -4.5t-4.5 -5.5l-5 -5t-5 -6t-4.5 -6.5t-4.5 -6.5t-3.5 -6t-3.5 -5z M403 702q13 8 25 13q5 3 11 5q-1 0 -3 -1t-8 -3q-2 -1 -5 -2t-7 -3q-3 -2 -6.5 -3.5t-7.5 -3.5q-5 -2 -8.5 -5t-8.5 -5l-18 -12q-5 -4 -9.5 -7.5t-9.5 -7.5t-9 -8t-9 -8q-5 -5 -8.5 -9t-7.5 -9t-7.5 -9t-6.5 -9q-4 -5 -7 -9.5t-6 -9.5q-3 -4 -5 -8t-4 -9q-2 -4 -4 -7.5 t-4 -6.5q-2 -4 -2.5 -7t-2.5 -5t-2 -3.5t-1 -3.5t-1 -3l1 2l4 8q1 3 5 11q2 4 4.5 7t4.5 7q4 8 10 17q3 4 6 8.5t6 9.5q4 4 7.5 8.5t7.5 9.5q4 4 7.5 8.5t8.5 8.5q5 5 9 8.5t9 7.5q4 5 8.5 8t9.5 7q4 4 8.5 7t8.5 6q5 2 8.5 5t8.5 5z" />
</svg>