<svg version="1.1" xmlns="http://www.w3.org/2000/svg" xmlns:xlink="http://www.w3.org/1999/xlink">
	<path transform="scale(0.200, -0.200) translate(0, -750)" d="M424 778h-41q5 -1 11 -1q5 0 12.5 -0.5t17.5 -0.5q9 -1 19.5 -1t21.5 -1q12 0 24 -0.5t24 -0.5q13 0 25 -0.5t23 -0.5h42h9q-1 -10 -3.5 -21.5t-6.5 -21.5t-8.5 -17t-8.5 -7t-23.5 0.5t-50.5 1.5t-70.5 2t-83.5 1q-10 -22 -27.5 -64t-39 -95.5t-46.5 -115t-49.5 -122.5 t-47 -117t-40 -99t-28 -69t-11.5 -27q-3 -3 -17 6t-28 21t-25 22.5t-8 12.5q2 1 16 35.5t36 90t49 125t55.5 141t56 138.5t49.5 117q-36 0 -70.5 -1.5t-66.5 -3.5q-21 -3 -38 -5.5t-28.5 -1.5t-18 7.5t-6.5 22.5t-2 26.5t-3.5 18t-1 12t6.5 8.5q2 1 25 2t59.5 1.5t84 0.5 h97.5q4 8 4 9q3 4 18 -9q55 0 108.5 -0.5t95.5 -1t68 -1t28 -1.5q3 -3 1 -20q-2 0 -5 0.5t-5 0.5q-9 0 -19.5 0.5t-22.5 0.5q-11 1 -23 1t-25 1h-24t-24 1h-41zM103 255q5 12 9 23q2 5 4 9l-4 -8t-4.5 -10t-5.5 -13q-7 -12 -15 -32l-8 -18t-9 -19q-4 -9 -8 -18.5t-8 -18.5 t-7 -17t-6 -15q-3 -8 -5.5 -13t-4.5 -10l-3 -9q1 4 4 8q2 4 4.5 9.5t6.5 13.5q3 7 6.5 15t7.5 17q5 9 8.5 18t8.5 19q4 9 8 18.5t8 18.5t7 17t6 15zM171 439q5 11 8 20t6 16t6 13q-2 -6 -6 -13q-7 -14 -16 -35q-5 -11 -10.5 -23t-11.5 -26t-12.5 -28t-12.5 -29 q-7 -14 -13 -28l-12 -28t-11 -26.5t-10 -23.5t-9 -19.5t-6 -15.5q-4 -8 -5 -14q2 6 6 13q3 6 7 15t9 20t10.5 23t11.5 26t12.5 28.5t12.5 28.5q7 14 13 28.5t12 28.5t11 26t10 23z" />
</svg>