<svg version="1.1" xmlns="http://www.w3.org/2000/svg" xmlns:xlink="http://www.w3.org/1999/xlink">
	<path transform="scale(0.200, -0.200) translate(0, -750)" d="M539 798q7 0 20 -6.5t26 -16t21.5 -19.5t5.5 -16q-9 -23 -27 -67.5t-43 -101t-55 -120.5t-63.5 -127.5t-68 -122t-68 -103.5t-65 -71.5t-57.5 -26.5q-11 0 -38 10t-55 33t-49.5 62t-21.5 96q0 23 9 61t24.5 85t35 99.5t40.5 103.5t41.5 97.5t37.5 82t28.5 56.5t14.5 21 q10 0 23 -8t24.5 -18.5t19.5 -20.5t8 -14q0 -3 -16.5 -36t-41.5 -85t-53.5 -116t-53.5 -130t-41.5 -127t-16.5 -106q0 -37 7 -58t24 -21q25 0 56.5 31.5t65 83t68 117t67 134t61.5 134t51.5 117t37 83t17.5 31.5zM213 721q-5 -9 -8.5 -19t-8.5 -20t-8.5 -19.5t-8.5 -19.5 q-4 -9 -7 -17.5t-6 -16.5t-5.5 -13.5t-4.5 -10.5l-3 -9q6 15 14 33q7 15 15 33.5t17 38.5q5 10 8.5 19.5t8.5 19.5q4 9 7.5 17.5t6.5 16.5q3 7 5.5 13t4.5 11t4 9q-2 -4 -5 -9q-2 -5 -5 -10.5t-6 -13.5q-3 -7 -7 -15.5t-8 -17.5zM37 306q8 26 17.5 53t19.5 55q11 27 21.5 54 t21.5 53q10 25 19.5 48.5t17.5 43.5q8 21 14.5 37.5t11.5 28.5l3.5 10.5t3.5 8.5q1 4 2 7q-1 -3 -3 -7q-2 -3 -4 -7.5t-4 -10.5q-5 -12 -12 -28.5t-16 -36.5q-8 -20 -18.5 -43t-21.5 -49t-21.5 -52.5t-21.5 -53.5q-10 -28 -19 -55.5t-17 -54.5q-4 -13 -7 -26t-5 -25 q-2 -13 -4 -24.5t-3 -22.5q-2 -25 1 -41q0 -2 0.5 -4t0.5 -4q0 -4 2 -8q0 -4 1 -7.5t2 -6.5t2.5 -6l2.5 -5t2 -3.5t2 -3.5q2 -4 3 -5l1 -1l-1 1q-1 1 -3 5q-1 2 -3 8q-1 2 -2 4.5t-2 5.5q-1 4 -2 7t-1 7q-1 2 -1 4t-1 4v9q-1 8 -1 18t2 21q1 11 3 22.5t4 24.5q3 12 6 24.5 t7 26.5zM438 389l-5 -10q-2 -5 -6 -12t-8 -15q-5 -8 -10 -17.5t-11 -20.5q-5 -11 -11.5 -21.5t-12.5 -21.5t-12 -21.5t-12 -21.5q-6 -10 -11.5 -19.5t-10.5 -17.5t-8.5 -14.5t-6.5 -11.5q-4 -5 -6 -10q2 5 6 10q3 5 7.5 11t9.5 14t11 17t12 20q6 10 12 20.5t12 21.5 q7 11 13 22t11 22t10 20.5t9 17.5q5 9 8 16t5 12z" />
</svg>