<svg version="1.1" xmlns="http://www.w3.org/2000/svg" xmlns:xlink="http://www.w3.org/1999/xlink">
	<path transform="scale(0.200, -0.200) translate(0, -750)" d="M642 795q4 0 14 -10t20 -22.5t18 -24.5t8 -15q0 -2 -17.5 -26.5t-48 -65t-71.5 -94t-87.5 -113t-96 -121t-98 -118t-93.5 -105t-81 -82.5q-6 -5 -17.5 4.5t-20.5 25.5q-1 -7 -1.5 -11t-0.5 -6q0 -8 -15 -8t-33 4.5t-33 11t-15 11.5q0 34 10.5 85.5t27 112.5t38.5 127.5 t45 130.5t45.5 122t41.5 101.5t31.5 69.5t15.5 26q4 0 14 -6.5t20 -15t19 -16t12 -9.5q5 -4 9 -8.5t-1 -11.5q-47 -89 -83.5 -181t-63 -177.5t-44 -158.5t-27.5 -124q79 84 150.5 168.5t133 162t111 144.5t85.5 116.5t56 78t23 28.5zM10 169l6 24t6 23q2 11 5 21t5 19l10 40 q-1 -1 -1 -3q-1 -2 -1 -4t-1 -4q-2 -5 -4.5 -12t-4.5 -16q-3 -9 -6 -19t-6 -21t-6 -23l-6 -24q-2 -12 -5 -24t-5 -23q-1 -6 -2 -11.5t-2 -10.5t-1.5 -9.5t-1.5 -9.5q0 -5 -0.5 -9t-0.5 -8t-0.5 -7t-0.5 -6v-11v3q0 4 1 8q0 2 0.5 5.5t0.5 7.5q1 4 1.5 7.5t1.5 8.5q0 5 1 10 l2 10t2 10.5t2 10.5q2 11 5 23zM68 332q2 7 3 13t2 10l2 8l-10 -30q-2 -7 -4.5 -15t-4.5 -16t-5 -17t-5 -19q-2 -9 -5 -18t-5 -17q-2 -9 -3.5 -17t-3.5 -15t-2.5 -12.5t-1.5 -9.5q-1 -3 -1 -7q0 -2 -1 -2q1 4 2 9q2 10 6 22q4 14 8.5 31t9.5 35q5 19 10 36t9 31zM584 613 q1 2 3 4l4 4t5 6q2 3 5 6.5t6 7.5q3 5 6 8.5t6 8.5q4 5 7 9l6 8q2 5 5 8.5t5 6.5t3.5 6t3.5 5q2 3 3 5q-1 -2 -3 -4l-4.5 -4.5t-4.5 -5.5q-2 -4 -5 -7t-6 -8l-6 -8t-7 -9q-3 -5 -6 -8.5t-6 -8.5q-3 -4 -5.5 -8t-4.5 -7zM634 649q8 11 15 20.5t13 17.5t10.5 15.5t8.5 12.5 q4 6 7 10l-8 -10t-9.5 -11.5t-11.5 -14.5q-11 -15 -29 -38q-8 -10 -16 -21t-17 -22l-16 -22l-16 -22t-14.5 -21t-12.5 -18q-7 -9 -11.5 -16t-8.5 -12q-4 -6 -7 -10l8 10t9 11.5t12 14.5q15 18 29 38q8 11 16.5 21.5t16.5 21.5t16 22.5t16 22.5z" />
</svg>