<svg version="1.1" xmlns="http://www.w3.org/2000/svg" xmlns:xlink="http://www.w3.org/1999/xlink">
	<path transform="scale(0.200, -0.200) translate(0, -750)" d="M845 808q6 0 16.5 -10.5t20.5 -24t14.5 -26.5t-1.5 -19q-115 -121 -198 -221.5t-141 -181t-94.5 -141.5t-57.5 -101.5t-31 -61t-14 -20.5q-7 0 -21 7t-28 16.5t-24.5 20t-10.5 16.5q0 15 5.5 42.5t14 63t20 76t23.5 80.5q27 93 63 203q-91 -101 -161.5 -195.5 t-119.5 -168t-76.5 -117.5t-31.5 -44q-5 0 -21 7t-33.5 16.5t-31 20.5t-13.5 19q6 43 23 97.5t40.5 115t51.5 123.5t56.5 122t56 111t49.5 91t36.5 61.5t18.5 22.5q7 0 18.5 -8t22.5 -19.5t19 -23t8 -17.5q0 -4 -16 -31.5t-40.5 -70.5t-54.5 -96.5t-58.5 -109t-52 -109 t-34.5 -96.5q11 17 36 51t59 77.5t73.5 93.5t80 99.5t78.5 95.5t68.5 81t50 56t23.5 21q7 0 14 -6.5t12.5 -16t8.5 -21.5t3 -23q0 -7 -11 -41t-27.5 -82t-36 -103t-36 -104t-27.5 -85.5t-11 -46.5q88 128 170 236q35 46 71.5 92.5t71 87t64.5 72t53 47.5zM143 519 q-2 -2 -2 -3.5t-1 -3.5t-1 -3q0 1 1 3t1 3t2 3q2 5 5 10.5t7 12.5q4 8 7.5 16t8.5 17t10 18.5t10 18.5l19 38t17 32q3 7 6 12.5t5 10.5q3 5 5 9q-2 -4 -5 -8q-2 -4 -5.5 -10t-7.5 -13t-8.5 -15t-9.5 -17l-10 -18t-10 -19l-9.5 -19t-9.5 -18t-8.5 -17.5t-6.5 -16.5 q-4 -7 -6 -13t-4 -10zM69 459q1 4 2 6.5t2 4.5l2 4q-4 -7 -8 -15q-4 -7 -8.5 -16.5t-10.5 -21.5q-5 -13 -11.5 -27t-13.5 -29q-7 -16 -13.5 -32t-13.5 -33t-13 -33.5t-12 -32.5q-5 -16 -9.5 -31t-8.5 -28q-8 -28 -11 -42q-2 -10 -2 -12q-1 -3 -1 -4q0 1 1 4q1 2 1 5t2 7 q2 8 5.5 18t8.5 23q4 13 9.5 27.5t10.5 30.5q6 16 12.5 32t13.5 33q6 17 12.5 33.5t13.5 31.5q6 16 12 30t11 27t9.5 22.5t7.5 17.5zM352 592l-3 -3l-4 -4t-4 -5q-5 -6 -12 -14t-15 -19q-8 -10 -17.5 -21.5t-20.5 -24.5q-11 -14 -21.5 -27t-21.5 -27t-21 -28t-21 -27 q-20 -27 -36 -48q-8 -11 -14 -20t-11 -15q-5 -7 -9 -13l3 3q2 2 7 10q5 6 11.5 14t14.5 19q17 21 37.5 47.5t41.5 54.5zM324 212l4 16l4 16q2 7 3 12.5t2 9.5q2 6 2 7v2q-1 -4 -3 -8q-4 -10 -8 -22q-2 -7 -5 -15t-5 -16q-3 -9 -5.5 -18t-5.5 -19q-2 -9 -4 -18.5t-4 -17.5 q-2 -9 -3 -17t-3 -16q-2 -7 -2 -12.5t-1 -10.5q-1 -3 -1 -7v-2q1 0 1 2q0 4 1 7q2 6 6 22q4 14 8.5 32t9.5 36q2 10 4.5 19t4.5 18zM376 369q2 6 3.5 11t2.5 9l2 8q-1 -4 -3 -8t-3.5 -9t-3.5 -11q-3 -14 -9 -29q-5 -15 -9 -33q-3 -8 -5.5 -16.5t-4.5 -16.5t-3.5 -15.5 t-3.5 -13.5q-2 -7 -3 -12t-2 -9t-1 -8l2 8q1 5 6 20q4 13 8.5 29t9.5 33q2 9 5 17.5t5 16.5t3.5 15t3.5 14zM630 534q2 2 3 4.5t2 4.5t2 3q-1 -1 -2 -3l-7 -7q-4 -5 -9 -11.5t-10 -13.5q-5 -6 -9.5 -13t-8.5 -12q-2 -3 -3 -5l-2 -4t-2 -3l3 3q2 2 3 4t3 4q4 5 9 11t10 13 t9.5 13.5t8.5 11.5zM831 777l3.5 3.5t2.5 3.5t2 3l-9 -9l-24 -24q-8 -8 -16 -16.5t-17 -18.5t-18 -20.5t-19 -21.5q-5 -5 -9 -11t-8 -11q-5 -5 -9 -10.5t-8 -10.5q-8 -11 -15.5 -20.5t-13.5 -18.5q-7 -8 -11.5 -15.5t-8.5 -12.5q-3 -3 -5 -7q-1 -2 -2 -3q14 17 30 36 q14 16 31 36.5t35 42.5q9 11 18 21.5t18 20.5q8 11 16 20t15 17t12.5 14.5t9.5 11.5z" />
</svg>