<svg version="1.1" xmlns="http://www.w3.org/2000/svg" xmlns:xlink="http://www.w3.org/1999/xlink">
	<path transform="scale(0.200, -0.200) translate(0, -750)" d="M710 712q0 -2 -28.5 -23.5t-80 -64t-123.5 -107t-158 -154.5q5 -86 13 -150t16 -107t14.5 -66.5t8.5 -29.5q3 -8 -11.5 -11t-33 -1.5t-35.5 6.5t-18 13q-13 63 -22 128t-14 131q-60 -67 -124 -144t-132 -167q-5 -7 -9 -6t-10 6q-3 2 -11.5 10.5t-17.5 19t-16.5 20.5 t-7.5 15q0 3 25.5 35t69.5 83t102 116.5t124 135.5q-5 113 -4.5 214.5t0.5 180.5q0 2 5 5t9 3q6 0 15.5 -4t19.5 -9.5t18.5 -10.5t12.5 -7q7 -4 8.5 -6t1.5 -18q-2 -73 -3 -137.5t1 -122.5q46 47 92 91.5t90.5 84.5t86.5 73t78 57q5 3 13 -8.5t16 -27t13.5 -30t5.5 -16.5z M-53 61q10 12 23 27.5t27 32.5q7 8 13.5 16.5t12.5 16.5q7 8 13 15t11 13t9 11t7 9q4 4 6 8l-7 -7q-5 -7 -17 -20q-11 -12 -24 -27q-7 -8 -13.5 -16t-13.5 -16t-13.5 -16.5t-12.5 -16.5q-7 -8 -12.5 -15t-10.5 -14t-8.5 -11.5t-6.5 -8.5q-4 -4 -6 -8q2 3 6 7q5 7 17 20z M21 67q2 2 3 3.5t2 3.5t2 3q-1 -1 -3 -2q-4 -4 -6 -7q-4 -4 -8 -9.5t-9 -11.5t-9 -11.5t-7 -10.5q-3 -3 -5 -7q-1 -2 -2 -3q1 0 2 2q1 1 2.5 3t3.5 4q9 9 18 21q5 6 9 11.5t7 10.5zM84 210q3 4 5.5 8t4.5 6q2 3 4 5q-1 -2 -4 -5l-12 -12q-4 -5 -7.5 -9.5t-8.5 -9.5t-9 -10.5 t-9 -10.5t-9 -11t-8 -11q-5 -5 -8.5 -10t-6.5 -9l-10 -15q-3 -4 -4 -5l5 5l5 5t7 8q3 4 7 8.5t9 9.5q7 10 18 21q4 6 8 11.5t9 10.5q4 5 7.5 10t6.5 10zM243 434q0 -2 1 -3v11q0 5 -0.5 12.5t-0.5 17.5v19.5t-1 21.5v48q0 13 -0.5 25t-0.5 23v22.5t-1 19.5q0 9 -0.5 17 t-0.5 13v11q-1 -5 -1 -11q0 -5 -0.5 -13t-0.5 -17t-0.5 -19.5t-0.5 -22.5v-48q1 -12 1 -24v-24q2 -25 3 -41q1 -20 3 -30v-8zM259 676v28v25q-1 5 -1 9.5v7.5v7q-1 -3 -1 -7v-17q-1 -6 -1 -12v-13v-28v-28v-13.5t1 -11.5v-17q0 -4 1 -7v7v7.5t1 9.5v25v28z" />
</svg>