<svg version="1.1" xmlns="http://www.w3.org/2000/svg" xmlns:xlink="http://www.w3.org/1999/xlink">
	<path transform="scale(0.200, -0.200) translate(0, -750)" d="M466 784q5 0 18 -9.5t25.5 -21.5t19 -23.5t-1.5 -16.5q-21 -18 -51 -54t-63.5 -80t-66.5 -91t-61 -88t-47.5 -70.5t-24.5 -37.5q-8 -13 -15 -18t-12 -7q-6 -2 -12 1q-42 -80 -61.5 -132t-27 -82t-8.5 -42t-7 -12t-18.5 6.5t-26 15.5t-23.5 18.5t-10 15.5q0 3 4.5 15.5 t12 30.5t16.5 40.5t19 45.5q23 54 53 120q-9 28 -10.5 73.5t1 97t7.5 104t10.5 95t10 70.5t5.5 31q2 8 6 13t14 5q7 0 18.5 -7.5t22.5 -18t19 -21t8 -15.5t-5.5 -39.5t-12.5 -84t-12.5 -108t-5.5 -112.5q9 18 33.5 54t56 80t66 89.5t64 83.5t50 62t23.5 24zM103 530 q0 9 -0.5 16t-0.5 12v10h-1q-2 -18 -3 -37q-2 -17 -2.5 -38.5t-1.5 -43.5q-1 -23 -0.5 -44.5t2.5 -38.5q0 -5 2 -15q0 -3 0.5 -6t0.5 -6q2 -6 2 -7v-3l1 1v2q0 2 -0.5 3.5t-0.5 4.5v12q-1 4 -1 15q0 8 0.5 17.5t0.5 20.5v21.5t1 21.5v44q1 11 0.5 20.5t0.5 17.5zM119 649v4 q-1 -1 -1 -3t-0.5 -4.5t-0.5 -4.5q-2 -12 -3 -27q-1 -7 -1 -14v-12v-12q1 1 1 3q0 5 1 9q1 9 3 26q1 8 1 14.5v11.5v9zM456 675q16 22 27 36q5 7 10 13l-12 -12q-5 -7 -12.5 -15t-15.5 -19q-9 -11 -19 -23t-21 -26l-22 -28t-22 -29t-21.5 -30t-20.5 -29t-18.5 -27.5 t-16.5 -24.5q-3 -6 -6.5 -11.5t-6.5 -10.5q-2 -5 -4.5 -9t-4.5 -7q-2 -4 -3.5 -6.5t-2.5 -4.5q-1 -3 -2 -4q0 2 2 4q1 2 3 4t4 6q2 3 5 7t6 9t6.5 10t7.5 11q4 5 8 11t9 13q5 6 9.5 12.5t9.5 14.5q11 14 21.5 28.5t21.5 28.5q11 15 21.5 29.5t21.5 28.5t20.5 26.5t17.5 23.5 z" />
</svg>