<svg version="1.1" xmlns="http://www.w3.org/2000/svg" xmlns:xlink="http://www.w3.org/1999/xlink">
	<path transform="scale(0.200, -0.200) translate(0, -750)" d="M624 815q3 3 11 -8.5t16.5 -27.5t15 -30.5t6.5 -18.5t-47 -45.5t-124.5 -121t-175.5 -198t-200 -276.5q69 7 136.5 9t121.5 0.5t89.5 -5.5t41.5 -9q3 -3 2.5 -16t-3.5 -27t-8 -25t-11 -11q-122 5 -209.5 1.5t-144.5 -8.5t-85 -9.5t-31 -1.5q-4 3 -5.5 18.5t-2.5 31.5 q-19 7 -19 21q0 8 32 60.5t97 140t164 204t234 253.5q-60 2 -141 -1.5t-171 -21.5q-9 -2 -13.5 0t-5.5 11q-1 4 -2 13.5t-2 21l-2 23t-2 19.5q0 4 33.5 10.5t91.5 11.5t135.5 6t165.5 -6zM511 796h-3q-5 0 -9 1q-6 1 -14 1.5t-19 0.5q-10 0 -21.5 0.5t-24.5 -0.5 q-13 0 -26 -0.5t-27 -1.5t-27 -1.5t-26 -2.5t-24.5 -3t-21.5 -3t-18 -3t-14 -2q-8 -2 -9 -2h-3q20 1 44 3q20 2 46 3.5t53 3.5q14 1 27 1.5t26 1.5q7 0 13 0.5t11 0.5q6 0 11.5 0.5t10.5 0.5q11 0 19 0.5t14 0.5h12zM373 85q-2 -1 -4 -1h-2h2q1 0 1.5 -0.5t2.5 -0.5 q3 0 7 -0.5t9 -0.5q9 -1 21 -1.5t25 -1.5t25 -1.5t21 -1.5q5 -1 9 -1t6 -1h6q0 1 -1 1q-3 0 -4 1q-3 1 -6.5 2t-8.5 2q-5 2 -10.5 2.5t-11.5 1.5t-12 1.5t-13 0.5q-27 2 -46 0q-5 0 -9 -0.5t-7 -0.5zM78 163q4 5 7.5 9.5t7.5 9.5q7 11 15 21.5t16 21.5t15 22t15 22 q8 10 14 20t12 18q12 16 18 27q4 6 5 8t2 3h-1l-28 -36q-13 -17 -28 -37t-31 -42q-8 -11 -15 -22t-15 -22q-7 -11 -13.5 -20.5t-11.5 -18.5q-10 -15 -17 -28l-3 -4.5t-2 -3.5t-1 -3h1q1 1 2 3q2 4 5 7q2 2 4 5t4 7q2 3 5 6.5t6 8.5q6 7 12 18zM270 393q8 9 13 16.5t10 12.5 q4 6 9 11q-4 -5 -9 -11q-5 -5 -10.5 -12t-13.5 -16q-15 -18 -33.5 -41t-38.5 -47q-9 -13 -18 -25l-18 -24q-8 -12 -15.5 -23t-13.5 -21q-3 -5 -6 -9t-5 -9q-2 -4 -4 -7.5t-4 -6.5t-3 -5l-2 -4t-2 -3q1 1 2 3l2 4t3 5t4.5 6t4.5 8q6 9 12 17q6 10 14 21l16 22q8 12 17.5 24 t19.5 24q9 13 18.5 25t18.5 23t17 22t15 20z" />
</svg>